<?xml version="1.0" encoding="utf-8"?>
<!-- Generator: Adobe Illustrator 19.2.0, SVG Export Plug-In . SVG Version: 6.00 Build 0)  -->
<svg version="1.1" id="Layer_1" xmlns="http://www.w3.org/2000/svg" xmlns:xlink="http://www.w3.org/1999/xlink" x="0px" y="0px"
	 viewBox="0 0 100 100" style="enable-background:new 0 0 100 100;" xml:space="preserve">
<style type="text/css">
	.st0{fill:none;stroke:#D72128;stroke-width:2;stroke-miterlimit:10;}
	.st1{fill:#D72128;enable-background:new    ;}
	.st2{fill:#FFFFFF;enable-background:new    ;}
	.st3{fill:#D62328;}
</style>
<path d="M96.1,99.1h-92c-1.7,0-3-1.3-3-3v-92c0-1.7,1.3-3,3-3h92c1.7,0,3,1.3,3,3v92C99.1,97.8,97.8,99.1,96.1,99.1z"/>
<path class="st0" d="M88.2,66.5l-1.6-24.7c0,0,0-0.1,0-0.1c0-0.1,0-0.2,0-0.2c0-9.7-7.9-17.6-17.6-17.6c-3.9,0-6.6,1.3-8.9,2.9
	c-0.2-0.1-0.5-0.1-0.7-0.2c-2.2-0.7-4.1-1.3-7.7-1.5c-0.2,0-0.5,0-0.7,0h-2.2c-0.2,0-0.5,0-0.7,0c-3.6,0.2-5.5,0.8-7.7,1.5
	c-0.2,0.1-0.5,0.1-0.7,0.2c-2.3-1.6-5-2.9-8.9-2.9c-9.7,0-17.6,7.9-17.6,17.6c0,0.1,0,0.2,0,0.2c0,0,0,0.1,0,0.1l-1.6,24.7
	c0,0.1,0,0.1,0,0.2c0,5.2,4.3,9.5,9.5,9.5h0c3.9,0,7.6-2,9.6-5.3l1.6-2.6c1.6-2.6,4.5-4.2,7.6-4.2h19.8c3.1,0,5.9,1.6,7.6,4.2
	l1.6,2.6c2.1,3.3,5.7,5.3,9.6,5.3h0c5.2,0,9.5-4.3,9.5-9.5C88.2,66.6,88.2,66.5,88.2,66.5z"/>
<path class="st1" d="M98.1,0.1H1.9c-1,0-1.8,0.8-1.8,1.8v96.2c0,1,0.8,1.8,1.8,1.8h96.2c1,0,1.8-0.8,1.8-1.8V1.9
	C99.9,0.9,99.1,0.1,98.1,0.1z M41.3,3.6h34.2v9.5H60.4H41.3V3.6z M3.7,3.6h34.2v9.5H22.8H3.7V3.6z M3.7,15.5H21V25H3.7V15.5z
	 M21,96.4H3.7v-9.5H21V96.4z M58.7,96.4H24.5v-9.5h34.1V96.4z M96.3,96.4H62.2v-9.5h34.1V96.4z M96.3,25h-19h-2.1
	c1.6,0.6,3.1,1.4,4.4,2.4h16.7v9.5H86.1c0.2,0.8,0.4,1.6,0.5,2.4h9.8v9.5h-9.2l0.2,2.4h9.1v9.5h-8.5l0.2,2.4h8.3v9.5H86.1
	c-0.8,1-1.8,1.8-3,2.4h13.2v9.5H79.1v-8.4c-0.1,0-0.2,0-0.3,0l0,0c-1.1,0-2.2-0.2-3.2-0.5v8.9H60.4H41.3V75h32.6
	c-1.3-0.6-2.4-1.4-3.4-2.4h-8.3v-8.3c-0.7-0.2-1.5-0.3-2.3-0.3h-1.3v8.6H29.5c-1,1-2.1,1.8-3.4,2.4h11.8v9.5H22.8H3.7V75h13.2
	c-1.1-0.6-2.2-1.4-3-2.4H3.7v-9.5H12l0.2-2.4H3.7v-9.5h9.1l0.2-2.4H3.7v-9.5h9.8c0.1-0.8,0.3-1.6,0.5-2.4H3.7v-9.5h16.7
	c1.3-1,2.8-1.8,4.4-2.4h-0.3v-9.5h34.1V25H39.6h-3.1c1.2,0.5,2.3,1.1,3.2,1.8c0.2-0.1,0.5-0.1,0.7-0.2c2.2-0.7,4.1-1.3,7.7-1.5
	c0.2,0,0.5,0,0.7,0h2.2c0.2,0,0.5,0,0.7,0c3.6,0.2,5.5,0.8,7.7,1.5c0.2,0.1,0.5,0.1,0.7,0.2c1-0.7,2-1.3,3.2-1.8h-1.3v-9.5h34.1V25z
	 M96.3,13.1H79.1V3.6h17.2V13.1z"/>
<g>
	<g>
		<path class="st2" d="M28.3,52.4c0,0.3-0.1,0.6-0.3,0.7c-0.2,0.2-0.5,0.2-1,0.2h-3.2c-0.7,0-1.3-0.2-1.6-0.6
			c-0.4-0.4-0.6-1-0.6-1.7v-2.5c0-0.8,0.2-1.3,0.6-1.7c0.4-0.4,0.9-0.6,1.6-0.6h3.3c0.4,0,0.7,0.1,0.9,0.2c0.2,0.2,0.3,0.4,0.3,0.8
			c0,0.7-0.4,1-1.2,1h-3.2c-0.1,0-0.2,0-0.2,0.1c-0.1,0-0.1,0.1-0.1,0.2v2.5c0,0.2,0.1,0.3,0.3,0.3h2.5V50c0-0.3,0.1-0.6,0.3-0.7
			c0.2-0.2,0.4-0.2,0.7-0.2c0.3,0,0.5,0.1,0.7,0.2c0.2,0.2,0.3,0.4,0.3,0.7V52.4z"/>
		<path class="st2" d="M35.4,52.1c0,0.1,0,0.1,0.1,0.2c0,0.1,0,0.1,0,0.2c0,0.1,0,0.3-0.1,0.4c-0.1,0.1-0.1,0.2-0.2,0.3
			c-0.1,0.1-0.2,0.1-0.3,0.2c-0.1,0-0.3,0.1-0.4,0.1c-0.4,0-0.7-0.2-0.8-0.6l-0.1-0.3H31l-0.2,0.3c-0.2,0.4-0.5,0.6-0.9,0.6
			c-0.1,0-0.3,0-0.4-0.1c-0.1,0-0.2-0.1-0.3-0.2c-0.1-0.1-0.2-0.2-0.2-0.3s-0.1-0.2-0.1-0.4c0-0.1,0-0.1,0-0.2c0-0.1,0-0.1,0.1-0.2
			l1.1-2.4c0.1-0.2,0.2-0.4,0.4-0.5c0.1-0.1,0.3-0.2,0.5-0.2c0.1,0,0.3,0,0.4,0.1c0.1,0,0.2,0.1,0.3,0.2c0.1,0.1,0.2,0.2,0.2,0.3
			c0.1,0.1,0.1,0.2,0.1,0.4c0,0.1,0,0.3-0.1,0.4l-0.1,0.3h1l-1.3-3c0-0.1-0.1-0.1-0.1-0.2c0-0.1,0-0.1,0-0.2c0-0.1,0-0.3,0.1-0.4
			c0.1-0.1,0.1-0.2,0.2-0.3c0.1-0.1,0.2-0.2,0.3-0.2c0.1,0,0.2-0.1,0.4-0.1c0.2,0,0.4,0.1,0.5,0.2c0.2,0.1,0.3,0.3,0.4,0.5
			L35.4,52.1z"/>
		<path class="st2" d="M36.1,46.9c0-0.4,0.2-0.6,0.6-0.6h4.9c0.2,0,0.4,0.1,0.6,0.2c0.2,0.1,0.3,0.3,0.4,0.6l1.4,5.1
			c0,0.1,0,0.1,0,0.1c0,0,0,0.1,0,0.1c0,0.3-0.1,0.5-0.3,0.7c-0.2,0.2-0.4,0.3-0.7,0.3c-0.2,0-0.4-0.1-0.6-0.2
			c-0.2-0.1-0.3-0.3-0.4-0.5L41,48.3h-0.5v4.2c0,0.3-0.1,0.6-0.3,0.7c-0.2,0.2-0.4,0.2-0.7,0.2c-0.3,0-0.5-0.1-0.7-0.2
			c-0.2-0.2-0.3-0.4-0.3-0.7v-4.2h-0.5v4.2c0,0.3-0.1,0.6-0.3,0.7c-0.2,0.2-0.4,0.2-0.7,0.2c-0.3,0-0.5-0.1-0.7-0.2
			c-0.2-0.2-0.3-0.4-0.3-0.7V46.9z"/>
		<path class="st2" d="M45.7,53.4c-0.7,0-1-0.3-1-1v-5.1c0-0.7,0.3-1,1-1h3.9c0.3,0,0.5,0.1,0.7,0.3s0.3,0.4,0.3,0.7
			c0,0.3-0.1,0.5-0.3,0.7c-0.2,0.2-0.4,0.3-0.7,0.3h-2.9v0.6h2.9c0.3,0,0.5,0.1,0.7,0.3s0.3,0.4,0.3,0.7c0,0.3-0.1,0.5-0.3,0.7
			s-0.4,0.3-0.7,0.3h-2.9v0.6h2.9c0.3,0,0.5,0.1,0.7,0.3s0.3,0.4,0.3,0.7c0,0.3-0.1,0.5-0.3,0.7s-0.4,0.3-0.7,0.3H45.7z"/>
		<path class="st2" d="M57,48.6c0,1.5-0.7,2.2-2.1,2.3h-0.2l0.8,0.8c0.1,0.1,0.2,0.3,0.3,0.4s0.1,0.3,0.1,0.4c0,0.1,0,0.2-0.1,0.4
			c0,0.1-0.1,0.2-0.2,0.3s-0.2,0.2-0.3,0.2c-0.1,0.1-0.2,0.1-0.4,0.1c-0.1,0-0.3,0-0.4-0.1c-0.2-0.1-0.3-0.2-0.4-0.3l-2.3-2.3
			c-0.1-0.1-0.2-0.1-0.2-0.2c-0.1-0.1-0.1-0.1-0.1-0.2c0-0.1-0.1-0.1-0.1-0.2c0-0.1,0-0.2,0-0.3c0-0.3,0.1-0.5,0.2-0.7
			c0.2-0.2,0.4-0.3,0.8-0.3h2.6c0.3,0,0.4-0.1,0.4-0.3c0-0.2-0.1-0.3-0.4-0.3h-2.6c-0.3,0-0.5-0.1-0.7-0.2c-0.2-0.2-0.2-0.4-0.2-0.8
			c0-0.6,0.3-1,0.9-1h2.5C56.2,46.3,57,47.1,57,48.6z"/>
		<path class="st3" d="M57.6,47.3c0-0.3,0.1-0.6,0.3-0.7c0.2-0.2,0.4-0.2,0.7-0.2c0.3,0,0.5,0.1,0.7,0.3c0.2,0.2,0.3,0.4,0.3,0.7
			v4.2h0.6v-4.2c0-0.3,0.1-0.6,0.3-0.7c0.2-0.2,0.4-0.2,0.7-0.2c0.3,0,0.5,0.1,0.7,0.2c0.2,0.2,0.3,0.4,0.3,0.7v4.2h0.4l1.2-4.4
			c0.1-0.2,0.2-0.4,0.4-0.5c0.2-0.1,0.3-0.2,0.5-0.2c0.1,0,0.3,0,0.4,0.1c0.1,0,0.2,0.1,0.3,0.2c0.1,0.1,0.2,0.2,0.2,0.3
			c0.1,0.1,0.1,0.2,0.1,0.4c0,0.1,0,0.2-0.1,0.3l-1.4,5.1c0,0.2-0.1,0.3-0.2,0.4c-0.1,0.1-0.2,0.2-0.3,0.2c-0.1,0.1-0.2,0.1-0.3,0.1
			c-0.1,0-0.2,0-0.3,0h-4.6c-0.7,0-1-0.3-1-1V47.3z"/>
		<path class="st3" d="M71.5,52.1c0,0.1,0,0.1,0.1,0.2c0,0.1,0,0.1,0,0.2c0,0.1,0,0.3-0.1,0.4c-0.1,0.1-0.1,0.2-0.2,0.3
			s-0.2,0.1-0.3,0.2c-0.1,0-0.3,0.1-0.4,0.1c-0.4,0-0.7-0.2-0.8-0.6l-0.1-0.3H67l-0.2,0.3c-0.2,0.4-0.5,0.6-0.9,0.6
			c-0.1,0-0.3,0-0.4-0.1c-0.1,0-0.2-0.1-0.3-0.2c-0.1-0.1-0.2-0.2-0.2-0.3S65,52.6,65,52.5c0-0.1,0-0.1,0-0.2c0-0.1,0-0.1,0.1-0.2
			l1.1-2.4c0.1-0.2,0.2-0.4,0.4-0.5c0.1-0.1,0.3-0.2,0.5-0.2c0.1,0,0.3,0,0.4,0.1c0.1,0,0.2,0.1,0.3,0.2c0.1,0.1,0.2,0.2,0.2,0.3
			C68,49.8,68,49.9,68,50c0,0.1,0,0.3-0.1,0.4l-0.1,0.3h1l-1.3-3c0-0.1-0.1-0.1-0.1-0.2c0-0.1,0-0.1,0-0.2c0-0.1,0-0.3,0.1-0.4
			c0.1-0.1,0.1-0.2,0.2-0.3c0.1-0.1,0.2-0.2,0.3-0.2c0.1,0,0.2-0.1,0.4-0.1c0.2,0,0.4,0.1,0.5,0.2c0.2,0.1,0.3,0.3,0.4,0.5
			L71.5,52.1z"/>
		<path class="st3" d="M73.2,53.4c-0.7,0-1-0.3-1-1v-5.1c0-0.3,0.1-0.6,0.3-0.7c0.2-0.2,0.4-0.2,0.7-0.2c0.3,0,0.5,0.1,0.7,0.3
			c0.2,0.2,0.3,0.4,0.3,0.7v4.2h2c0.3,0,0.5,0.1,0.7,0.3c0.2,0.2,0.2,0.4,0.2,0.7c0,0.3-0.1,0.5-0.2,0.7c-0.2,0.2-0.4,0.3-0.7,0.3
			H73.2z"/>
		<path class="st3" d="M78.5,53.4c-0.7,0-1-0.3-1-1v-5.1c0-0.3,0.1-0.6,0.3-0.7c0.2-0.2,0.4-0.2,0.7-0.2c0.3,0,0.5,0.1,0.7,0.3
			c0.2,0.2,0.3,0.4,0.3,0.7v4.2h2c0.3,0,0.5,0.1,0.7,0.3c0.2,0.2,0.2,0.4,0.2,0.7c0,0.3-0.1,0.5-0.2,0.7c-0.2,0.2-0.4,0.3-0.7,0.3
			H78.5z"/>
	</g>
	<g>
		<path class="st2" d="M20,52.3c0.1,0,0.2,0,0.3,0.1c0.1,0.1,0.1,0.2,0.1,0.3c0,0.1,0,0.2-0.1,0.3s-0.2,0.1-0.3,0.1h-1.6v0.3
			c0,0.1,0,0.2-0.1,0.3c-0.1,0.1-0.2,0.1-0.3,0.1c-0.1,0-0.2,0-0.3-0.1c-0.1-0.1-0.1-0.2-0.1-0.3v-1.3c0-0.1,0-0.2,0.1-0.3
			c0.1-0.1,0.2-0.1,0.3-0.1c0.1,0,0.2,0,0.3,0.1c0.1,0.1,0.1,0.2,0.1,0.3v0.3H20z"/>
		<path class="st2" d="M20,48.9c0.1,0,0.2,0,0.3,0.1c0.1,0.1,0.1,0.2,0.1,0.3c0,0.1,0,0.2-0.1,0.3s-0.2,0.1-0.3,0.1h-0.6v1.1H20
			c0.1,0,0.2,0,0.3,0.1c0.1,0.1,0.1,0.2,0.1,0.3c0,0.1,0,0.2-0.1,0.3c-0.1,0.1-0.2,0.1-0.3,0.1h-2c-0.1,0-0.2,0-0.3-0.1
			c-0.1-0.1-0.1-0.2-0.1-0.3c0-0.1,0-0.2,0.1-0.3c0.1-0.1,0.2-0.1,0.3-0.1h0.6v-1.1H18c-0.1,0-0.2,0-0.3-0.1s-0.1-0.2-0.1-0.3
			c0-0.1,0-0.2,0.1-0.3c0.1-0.1,0.2-0.1,0.3-0.1H20z"/>
		<path class="st2" d="M20.3,48.2c0,0.3-0.1,0.4-0.4,0.4h-2c-0.3,0-0.4-0.1-0.4-0.4v-1.5c0-0.1,0-0.2,0.1-0.3
			c0.1-0.1,0.2-0.1,0.3-0.1c0.1,0,0.2,0,0.3,0.1c0.1,0.1,0.1,0.2,0.1,0.3v1.1h0.2v-1.1c0-0.1,0-0.2,0.1-0.3c0.1-0.1,0.2-0.1,0.3-0.1
			c0.1,0,0.2,0,0.3,0.1c0.1,0.1,0.1,0.2,0.1,0.3v1.1h0.2v-1.1c0-0.1,0-0.2,0.1-0.3c0.1-0.1,0.2-0.1,0.3-0.1c0.1,0,0.2,0,0.3,0.1
			c0.1,0.1,0.1,0.2,0.1,0.3V48.2z"/>
	</g>
</g>
</svg>
