<?xml version="1.0" encoding="utf-8"?>
<!-- Generator: Adobe Illustrator 19.2.0, SVG Export Plug-In . SVG Version: 6.00 Build 0)  -->
<svg version="1.1" id="Layer_1" xmlns="http://www.w3.org/2000/svg" xmlns:xlink="http://www.w3.org/1999/xlink" x="0px" y="0px"
	 viewBox="0 0 50 50" style="enable-background:new 0 0 50 50;" xml:space="preserve">
<style type="text/css">
	.st0{fill:#FFFFFF;}
</style>
<g>
	<g>
		<path class="st0" d="M24.7,4.9C13.6,5,4.7,14.2,4.9,25.3c0.1,11.1,9.3,20,20.4,19.8c11.1-0.1,20-9.3,19.8-20.4
			C45,13.6,35.8,4.7,24.7,4.9L24.7,4.9z M24.7,37.2l-0.1,0c-1.7,0-2.9-1.3-2.9-3c0-1.7,1.3-2.9,2.9-2.9l0.1,0c1.8,0.1,3,1.3,2.9,3
			C27.6,36.1,26.4,37.2,24.7,37.2L24.7,37.2z M31.9,23c-0.4,0.6-1.3,1.3-2.4,2.1L28.2,26c-0.7,0.5-1.1,1-1.2,1.5
			c-0.1,0.4-0.2,0.5-0.2,1.3l0,0.2h-4.7l0-0.4c0.1-1.6,0.1-2.6,0.8-3.4c1.1-1.2,3.4-2.7,3.5-2.8c0.3-0.3,0.6-0.5,0.8-0.8
			c0.5-0.7,0.7-1.2,0.7-1.7c0-0.7-0.2-1.4-0.6-2c-0.4-0.6-1.2-0.9-2.3-0.9c-1.1,0-1.9,0.4-2.3,1.1c-0.5,0.7-0.7,1.5-0.7,2.3v0.2
			h-4.8l0-0.2c0.1-3,1.2-5.1,3.1-6.3c1.2-0.8,2.8-1.2,4.5-1.2c2.3,0,4.3,0.6,5.9,1.7c1.6,1.1,2.4,2.8,2.4,5.1
			C33,20.7,32.6,21.9,31.9,23L31.9,23z M31.9,23"/>
	</g>
</g>
</svg>
