<?xml version="1.0" encoding="utf-8"?>
<!-- Generator: Adobe Illustrator 19.2.0, SVG Export Plug-In . SVG Version: 6.00 Build 0)  -->
<svg version="1.1" id="Layer_1" xmlns="http://www.w3.org/2000/svg" xmlns:xlink="http://www.w3.org/1999/xlink" x="0px" y="0px"
	 viewBox="0 0 50 50" style="enable-background:new 0 0 50 50;" xml:space="preserve">
<style type="text/css">
	.st0{fill:#FFFFFF;}
</style>
<g>
	<path class="st0" d="M39.1,22.1v-6.3c0-7.8-6.4-14.2-14.2-14.2c-7.8,0-14.2,6.4-14.2,14.2v6.3H7.9v26.4h34.2V22.1H39.1z M28.2,35.7
		v5.6c0,1.4-1.2,2.6-2.6,2.6c-1.5,0-2.6-1.2-2.6-2.6v-5.6c-0.9-0.8-1.5-1.9-1.5-3.2c0-2.3,1.9-4.1,4.1-4.1c2.3,0,4.1,1.9,4.1,4.1
		C29.7,33.8,29.1,34.9,28.2,35.7L28.2,35.7z M33.9,22.1H15.8v-6.3c0-5,4-9,9-9c5,0,9,4.1,9,9V22.1z M33.9,22.1"/>
</g>
</svg>
