<?xml version="1.0" encoding="utf-8"?>
<!-- Generator: Adobe Illustrator 19.2.0, SVG Export Plug-In . SVG Version: 6.00 Build 0)  -->
<svg version="1.1" id="Layer_1" xmlns="http://www.w3.org/2000/svg" xmlns:xlink="http://www.w3.org/1999/xlink" x="0px" y="0px"
	 viewBox="0 0 792 346" style="enable-background:new 0 0 792 346;" xml:space="preserve">
<style type="text/css">
	.st0{display:none;}
	.st1{display:none;fill:none;stroke:#ED1C24;stroke-width:3;stroke-miterlimit:10;}
	.st2{display:inline;}
	.st3{fill:#FFFFFF;}
	.st4{fill:#D72128;}
	.st5{font-family:'Code-Light';}
	.st6{font-size:57.6211px;}
	.st7{letter-spacing:-2.3;}
	.st8{font-size:100.8369px;}
	.st9{font-size:57.0888px;}
	.st10{fill:none;stroke:#D72128;stroke-miterlimit:10;}
	.st11{fill:none;stroke:#D72128;stroke-width:2;stroke-linecap:round;stroke-miterlimit:10;}
	.st12{fill:none;stroke:#D72128;stroke-width:3;stroke-miterlimit:10;}
</style>
<rect y="-4" class="st0" width="794.6" height="363.9"/>
<path class="st1" d="M-1080.4,175l-32.7-56.7c-0.1-0.1-0.2-0.1-0.3-0.2V-57.5h-253.7c0-0.1-0.1-0.1-0.1-0.2l-56.7-32.7l-56.7,32.7
	c0,0.1-0.1,0.1-0.1,0.2h-253.7v175.7c-0.1,0.1-0.2,0.1-0.3,0.2l-32.7,56.7l32.7,56.7c0.1,0.1,0.2,0.1,0.3,0.2v175.9h253.9l56.7,32.7
	l56.7-32.7h253.9V231.9c0.1-0.1,0.2-0.1,0.3-0.2L-1080.4,175z"/>
<g class="st0">
	<text transform="matrix(1 0 0 1 -1630.3226 203.6138)" class="st2"><tspan x="0" y="0" class="st3 st5" style="font-size:88.3159px;">Gamer</tspan><tspan x="265.8" y="0" class="st4 st5" style="font-size:88.3159px;">wall</tspan></text>
	<text transform="matrix(1 0 0 1 -1630.3226 203.6138)" class="st2"><tspan x="0" y="0" class="st3 st5" style="font-size:88.3159px;">Gamer</tspan><tspan x="265.8" y="0" class="st4 st5" style="font-size:88.3159px;">wall</tspan></text>
	<text transform="matrix(1 0 0 1 -1630.3226 203.6138)" class="st2"><tspan x="0" y="0" class="st3 st5" style="font-size:88.3159px;">Gamer</tspan><tspan x="265.8" y="0" class="st4 st5" style="font-size:88.3159px;">wall</tspan></text>
	<text transform="matrix(1 0 0 1 -1630.3226 203.6138)" class="st2"><tspan x="0" y="0" class="st3 st5" style="font-size:88.3159px;">Gamer</tspan><tspan x="265.8" y="0" class="st4 st5" style="font-size:88.3159px;">wall</tspan></text>
	<text transform="matrix(1 0 0 1 -1630.3226 203.6138)" class="st2"><tspan x="0" y="0" class="st3 st5" style="font-size:88.3159px;">Gamer</tspan><tspan x="265.8" y="0" class="st4 st5" style="font-size:88.3159px;">wall</tspan></text>
	<text transform="matrix(1 0 0 1 -1630.3226 203.6138)" class="st2"><tspan x="0" y="0" class="st3 st5" style="font-size:88.3159px;">Gamer</tspan><tspan x="265.8" y="0" class="st4 st5" style="font-size:88.3159px;">wall</tspan></text>
	<text transform="matrix(1 0 0 1 -1630.3226 203.6138)" class="st2"><tspan x="0" y="0" class="st3 st5" style="font-size:88.3159px;">Gamer</tspan><tspan x="265.8" y="0" class="st4 st5" style="font-size:88.3159px;">wall</tspan></text>
</g>
<g>
	<text transform="matrix(0 -0.861 1 0 139.291 182.6448)" class="st3 st5 st6 st7">THE</text>
	<text transform="matrix(0 -0.861 1 0 139.291 182.6448)" class="st3 st5 st6 st7">THE</text>
	<text transform="matrix(0 -0.861 1 0 139.292 182.6448)" class="st3 st5 st6 st7">THE</text>
	<text transform="matrix(0 -0.861 1 0 139.292 182.6448)" class="st3 st5 st6 st7">THE</text>
	<text transform="matrix(0 -0.861 1 0 139.292 182.6448)" class="st3 st5 st6 st7">THE</text>
	<text transform="matrix(0 -0.861 1 0 139.292 182.6448)" class="st3 st5 st6 st7">THE</text>
	<text transform="matrix(0 -0.861 1 0 139.291 182.6448)" class="st3 st5 st6 st7">THE</text>
</g>
<g>
	<text transform="matrix(1 0 0 1 146.3662 180.1165)"><tspan x="0" y="0" class="st3 st5 st8">WAGER</tspan><tspan x="317.8" y="0" class="st4 st5 st8">wall</tspan></text>
	<text transform="matrix(1 0 0 1 146.3662 180.1165)"><tspan x="0" y="0" class="st3 st5 st8">WAGER</tspan><tspan x="317.8" y="0" class="st4 st5 st8">wall</tspan></text>
	<text transform="matrix(1 0 0 1 146.3662 180.1165)"><tspan x="0" y="0" class="st3 st5 st8">WAGER</tspan><tspan x="317.8" y="0" class="st4 st5 st8">wall</tspan></text>
	<text transform="matrix(1 0 0 1 146.3662 180.1165)"><tspan x="0" y="0" class="st3 st5 st8">WAGER</tspan><tspan x="317.8" y="0" class="st4 st5 st8">wall</tspan></text>
	<text transform="matrix(1 0 0 1 146.3662 180.1165)"><tspan x="0" y="0" class="st3 st5 st8">WAGER</tspan><tspan x="317.8" y="0" class="st4 st5 st8">wall</tspan></text>
	<text transform="matrix(1 0 0 1 146.3662 180.1165)"><tspan x="0" y="0" class="st3 st5 st8">WAGER</tspan><tspan x="317.8" y="0" class="st4 st5 st8">wall</tspan></text>
	<text transform="matrix(1 0 0 1 146.3662 180.1165)"><tspan x="0" y="0" class="st3 st5 st8">WAGER</tspan><tspan x="317.8" y="0" class="st4 st5 st8">wall</tspan></text>
</g>
<text transform="matrix(1 0 0 1 343.8936 240.0618)" class="st3 st5 st9">2016</text>
<g>
	<g>
		<path class="st10" d="M501.1,228.9c-0.7,0-2.9-0.2-4.9-0.7c-2.3-0.6-5.3-0.6-7.6,0c-2,0.6-3.9,0.7-4.9,0.7
			c-3.5-0.1-6.3-3.7-6.3-7.3l0,0c0-4,3.3-7.3,7.3-7.3h15.3c4,0,7.2,3.3,7.2,7.3l0,0C507.2,225.2,504.7,228.8,501.1,228.9z"/>
		<line class="st11" x1="491.6" y1="216.3" x2="494" y2="216.3"/>
		<circle class="st4" cx="496.2" cy="221.6" r="1.6"/>
		<circle class="st4" cx="503.6" cy="221.6" r="1.6"/>
		<circle class="st4" cx="499.9" cy="225.2" r="1.6"/>
		<circle class="st4" cx="499.9" cy="217.9" r="1.6"/>
		<polygon class="st4" points="488.9,220 486.9,220 486.9,217.9 483.7,217.9 483.7,220 481.6,220 481.6,223.1 483.7,223.1 
			483.7,225.2 486.9,225.2 486.9,223.1 488.9,223.1 		"/>
	</g>
	<g>
		<path class="st10" d="M562.8,228.9c-0.7,0-2.9-0.2-4.9-0.7c-2.3-0.6-5.3-0.6-7.6,0c-2,0.6-3.9,0.7-4.9,0.7
			c-3.5-0.1-6.3-3.7-6.3-7.3l0,0c0-4,3.3-7.3,7.3-7.3h15.3c4,0,7.2,3.3,7.2,7.3l0,0C568.9,225.2,566.3,228.8,562.8,228.9z"/>
		<line class="st11" x1="553.2" y1="216.3" x2="555.7" y2="216.3"/>
		<circle class="st4" cx="557.9" cy="221.6" r="1.6"/>
		<circle class="st4" cx="565.2" cy="221.6" r="1.6"/>
		<circle class="st4" cx="561.6" cy="225.2" r="1.6"/>
		<circle class="st4" cx="561.6" cy="217.9" r="1.6"/>
		<polygon class="st4" points="550.6,220 548.5,220 548.5,217.9 545.4,217.9 545.4,220 543.3,220 543.3,223.1 545.4,223.1 
			545.4,225.2 548.5,225.2 548.5,223.1 550.6,223.1 		"/>
	</g>
	<g>
		<path class="st10" d="M624.4,228.9c-0.7,0-2.9-0.2-4.9-0.7c-2.3-0.6-5.3-0.6-7.6,0c-2,0.6-3.9,0.7-4.9,0.7
			c-3.5-0.1-6.3-3.7-6.3-7.3l0,0c0-4,3.3-7.3,7.3-7.3h15.3c4,0,7.2,3.3,7.2,7.3l0,0C630.5,225.2,628,228.8,624.4,228.9z"/>
		<line class="st11" x1="614.9" y1="216.3" x2="617.3" y2="216.3"/>
		<circle class="st4" cx="619.6" cy="221.6" r="1.6"/>
		<circle class="st4" cx="626.9" cy="221.6" r="1.6"/>
		<circle class="st4" cx="623.2" cy="225.2" r="1.6"/>
		<circle class="st4" cx="623.2" cy="217.9" r="1.6"/>
		<polygon class="st4" points="612.3,220 610.2,220 610.2,217.9 607,217.9 607,220 605,220 605,223.1 607,223.1 607,225.2 
			610.2,225.2 610.2,223.1 612.3,223.1 		"/>
	</g>
</g>
<g>
	<g>
		<path class="st10" d="M184.4,228.9c-0.7,0-2.9-0.2-4.9-0.7c-2.3-0.6-5.3-0.6-7.6,0c-2,0.6-3.9,0.7-4.9,0.7
			c-3.5-0.1-6.3-3.7-6.3-7.3l0,0c0-4,3.3-7.3,7.3-7.3h15.3c4,0,7.2,3.3,7.2,7.3l0,0C190.5,225.2,187.9,228.8,184.4,228.9z"/>
		<line class="st11" x1="174.8" y1="216.3" x2="177.3" y2="216.3"/>
		<circle class="st4" cx="179.5" cy="221.6" r="1.6"/>
		<circle class="st4" cx="186.8" cy="221.6" r="1.6"/>
		<circle class="st4" cx="183.2" cy="225.2" r="1.6"/>
		<circle class="st4" cx="183.2" cy="217.9" r="1.6"/>
		<polygon class="st4" points="172.2,220 170.1,220 170.1,217.9 167,217.9 167,220 164.9,220 164.9,223.1 167,223.1 167,225.2 
			170.1,225.2 170.1,223.1 172.2,223.1 		"/>
	</g>
	<g>
		<path class="st10" d="M246,228.9c-0.7,0-2.9-0.2-4.9-0.7c-2.3-0.6-5.3-0.6-7.6,0c-2,0.6-3.9,0.7-4.9,0.7c-3.5-0.1-6.3-3.7-6.3-7.3
			l0,0c0-4,3.3-7.3,7.3-7.3H245c4,0,7.2,3.3,7.2,7.3l0,0C252.1,225.2,249.6,228.8,246,228.9z"/>
		<line class="st11" x1="236.5" y1="216.3" x2="238.9" y2="216.3"/>
		<circle class="st4" cx="241.2" cy="221.6" r="1.6"/>
		<circle class="st4" cx="248.5" cy="221.6" r="1.6"/>
		<circle class="st4" cx="244.8" cy="225.2" r="1.6"/>
		<circle class="st4" cx="244.8" cy="217.9" r="1.6"/>
		<polygon class="st4" points="233.9,220 231.8,220 231.8,217.9 228.6,217.9 228.6,220 226.6,220 226.6,223.1 228.6,223.1 
			228.6,225.2 231.8,225.2 231.8,223.1 233.9,223.1 		"/>
	</g>
	<g>
		<path class="st10" d="M307.7,228.9c-0.7,0-2.9-0.2-4.9-0.7c-2.3-0.6-5.3-0.6-7.6,0c-2,0.6-3.9,0.7-4.9,0.7
			c-3.5-0.1-6.3-3.7-6.3-7.3l0,0c0-4,3.3-7.3,7.3-7.3h15.3c4,0,7.2,3.3,7.2,7.3l0,0C313.8,225.2,311.2,228.8,307.7,228.9z"/>
		<line class="st11" x1="298.1" y1="216.3" x2="300.6" y2="216.3"/>
		<circle class="st4" cx="302.8" cy="221.6" r="1.6"/>
		<circle class="st4" cx="310.1" cy="221.6" r="1.6"/>
		<circle class="st4" cx="306.5" cy="225.2" r="1.6"/>
		<circle class="st4" cx="306.5" cy="217.9" r="1.6"/>
		<polygon class="st4" points="295.5,220 293.4,220 293.4,217.9 290.3,217.9 290.3,220 288.2,220 288.2,223.1 290.3,223.1 
			290.3,225.2 293.4,225.2 293.4,223.1 295.5,223.1 		"/>
	</g>
</g>
<path class="st12" d="M788.3,173l-37.4-35.8c-0.1,0-0.2-0.1-0.3-0.1V26.1H460.9c0,0-0.1-0.1-0.1-0.1L396,5.3L331.2,26
	c0,0-0.1,0.1-0.1,0.1H41.4v110.9c-0.1,0-0.2,0.1-0.3,0.1L3.7,173l37.4,35.8c0.1,0,0.2,0.1,0.3,0.1V320h289.9l64.7,20.7l64.7-20.7
	h289.9V208.9c0.1,0,0.2-0.1,0.3-0.1L788.3,173z"/>
</svg>
