<?xml version="1.0" encoding="utf-8"?>
<!-- Generator: Adobe Illustrator 19.2.0, SVG Export Plug-In . SVG Version: 6.00 Build 0)  -->
<svg version="1.1" id="Layer_1" xmlns="http://www.w3.org/2000/svg" xmlns:xlink="http://www.w3.org/1999/xlink" x="0px" y="0px"
	 viewBox="0 0 792 346" style="enable-background:new 0 0 792 346;" xml:space="preserve">
<style type="text/css">
	.st0{display:none;}
	.st1{display:inline;}
	.st2{fill:#FFFFFF;}
	.st3{font-family:'Code-Light';}
	.st4{font-size:97.6696px;}
	.st5{fill:#D72128;}
	.st6{font-size:66.5319px;}
	.st7{letter-spacing:-2.3;}
	.st8{font-size:116.4309px;}
</style>
<rect y="-4" class="st0" width="794.6" height="363.9"/>
<g class="st0">
	<text transform="matrix(1 0 0 1 164.3428 178.5645)" class="st1"><tspan x="0" y="0" class="st2 st3 st4">Gamer</tspan><tspan x="294" y="0" class="st5 st3 st4">wall</tspan></text>
	<text transform="matrix(1 0 0 1 164.3428 178.5645)" class="st1"><tspan x="0" y="0" class="st2 st3 st4">Gamer</tspan><tspan x="294" y="0" class="st5 st3 st4">wall</tspan></text>
	<text transform="matrix(1 0 0 1 164.3428 178.5645)" class="st1"><tspan x="0" y="0" class="st2 st3 st4">Gamer</tspan><tspan x="294" y="0" class="st5 st3 st4">wall</tspan></text>
	<text transform="matrix(1 0 0 1 164.3428 178.5645)" class="st1"><tspan x="0" y="0" class="st2 st3 st4">Gamer</tspan><tspan x="294" y="0" class="st5 st3 st4">wall</tspan></text>
	<text transform="matrix(1 0 0 1 164.3428 178.5645)" class="st1"><tspan x="0" y="0" class="st2 st3 st4">Gamer</tspan><tspan x="294" y="0" class="st5 st3 st4">wall</tspan></text>
	<text transform="matrix(1 0 0 1 164.3428 178.5645)" class="st1"><tspan x="0" y="0" class="st2 st3 st4">Gamer</tspan><tspan x="294" y="0" class="st5 st3 st4">wall</tspan></text>
	<text transform="matrix(1 0 0 1 164.3428 178.5645)" class="st1"><tspan x="0" y="0" class="st2 st3 st4">Gamer</tspan><tspan x="294" y="0" class="st5 st3 st4">wall</tspan></text>
</g>
<g>
	<g>
		<text transform="matrix(0 -0.861 1 0 105.3643 213.6443)" class="st2 st3 st6 st7">THE</text>
		<text transform="matrix(0 -0.861 1 0 105.3643 213.6443)" class="st2 st3 st6 st7">THE</text>
		<text transform="matrix(0 -0.861 1 0 105.3662 213.6443)" class="st2 st3 st6 st7">THE</text>
		<text transform="matrix(0 -0.861 1 0 105.3662 213.6443)" class="st2 st3 st6 st7">THE</text>
		<text transform="matrix(0 -0.861 1 0 105.3662 213.6443)" class="st2 st3 st6 st7">THE</text>
		<text transform="matrix(0 -0.861 1 0 105.3662 213.6443)" class="st2 st3 st6 st7">THE</text>
		<text transform="matrix(0 -0.861 1 0 105.3643 213.6443)" class="st2 st3 st6 st7">THE</text>
	</g>
	<g>
		<text transform="matrix(1 0 0 1 113.5332 210.7234)"><tspan x="0" y="0" class="st2 st3 st8">WAGER</tspan><tspan x="367" y="0" class="st5 st3 st8">wall</tspan></text>
		<text transform="matrix(1 0 0 1 113.5332 210.7234)"><tspan x="0" y="0" class="st2 st3 st8">WAGER</tspan><tspan x="367" y="0" class="st5 st3 st8">wall</tspan></text>
		<text transform="matrix(1 0 0 1 113.5332 210.7234)"><tspan x="0" y="0" class="st2 st3 st8">WAGER</tspan><tspan x="367" y="0" class="st5 st3 st8">wall</tspan></text>
		<text transform="matrix(1 0 0 1 113.5332 210.7234)"><tspan x="0" y="0" class="st2 st3 st8">WAGER</tspan><tspan x="367" y="0" class="st5 st3 st8">wall</tspan></text>
		<text transform="matrix(1 0 0 1 113.5332 210.7234)"><tspan x="0" y="0" class="st2 st3 st8">WAGER</tspan><tspan x="367" y="0" class="st5 st3 st8">wall</tspan></text>
		<text transform="matrix(1 0 0 1 113.5332 210.7234)"><tspan x="0" y="0" class="st2 st3 st8">WAGER</tspan><tspan x="367" y="0" class="st5 st3 st8">wall</tspan></text>
		<text transform="matrix(1 0 0 1 113.5332 210.7234)"><tspan x="0" y="0" class="st2 st3 st8">WAGER</tspan><tspan x="367" y="0" class="st5 st3 st8">wall</tspan></text>
	</g>
</g>
</svg>
