<?xml version="1.0" standalone="no"?>
<!DOCTYPE svg PUBLIC "-//W3C//DTD SVG 1.1//EN" "http://www.w3.org/Graphics/SVG/1.1/DTD/svg11.dtd" >
<svg xmlns="http://www.w3.org/2000/svg">
<metadata></metadata>
<defs>
<font id="fake_receiptregular" horiz-adv-x="588" >
<font-face units-per-em="1000" ascent="800" descent="-200" />
<missing-glyph horiz-adv-x="500" />
<glyph unicode="&#xd;" horiz-adv-x="500" />
<glyph unicode=" " />
<glyph unicode="!" d="M319 620q0 -31 -25 -43q24 -11 24 -39q0 -30 -25 -42q24 -11 24 -38q0 -36 -32 -47q33 -16 33 -49q0 -24 -27 -31q23 -10 22 -35q-1 -49 -43 -49q-21 0 -38 14.5t-21 34.5q-7 30 35 39q-35 12 -35 45q0 26 28 36q-26 13 -26 40q0 28 29 40q-27 13 -27 41t29 40 q-29 14 -28 43q0 20 17 31t38 11q48 0 48 -42zM309 53q-1 -49 -49 -49q-23 0 -38 13.5t-15 35.5q1 42 54 42q48 0 48 -42z" />
<glyph unicode="&#x22;" d="M400 471q0 -6 -3 -13q-18 -48 -60 -48q-44 0 -43 48q1 28 38 38q-36 17 -36 48q0 23 31 32q-31 14 -30 44q0 20 17 31t38 11q48 0 48 -42q-1 -33 -27 -45q26 -9 26 -40q0 -27 -22 -39q23 -7 23 -25zM238 618q-1 -30 -23 -42q22 -11 22 -38q0 -30 -25 -42q24 -12 23 -38 q-1 -49 -49 -49q-22 0 -38 13.5t-16 35.5q1 26 29 38q-27 13 -27 41t28 40q-28 15 -27 43q0 20 18 32.5t39 12.5q46 0 46 -47z" />
<glyph unicode="#" d="M478 458q-1 -49 -50 -49q-30 0 -46 24q-8 -10 -18 -15q32 -9 32 -43q0 -29 -24 -41q22 -11 22 -39q0 -30 -24 -42q9 -5 14 -11q17 14 47 14q44 0 44 -31q0 -22 -17.5 -40.5t-39.5 -18.5q-21 0 -36 17q-5 -8 -13 -11q22 -11 22 -39q0 -30 -24 -42q23 -12 23 -38 q-1 -49 -49 -49q-23 0 -38 13.5t-15 35.5q0 26 29 38q-28 13 -28 41t29 40q-9 4 -16 12q-14 -18 -39 -18t-42 17q-5 -8 -13 -12q21 -11 21 -38q0 -30 -24 -42q23 -12 23 -38q-1 -49 -49 -49q-23 0 -38 13.5t-15 35.5q0 26 29 38q-28 13 -28 40q0 32 34 43q-10 5 -18 14 q-13 -22 -41 -22q-22 0 -38.5 13.5t-15.5 35.5q0 19 17 30t38 11q23 0 36 -12q8 5 18 9q-27 13 -27 41q0 27 27 39q-27 12 -27 38q0 31 33 42q-11 5 -19 14q-14 -18 -39 -18q-21 0 -37.5 14t-16.5 35q1 21 15.5 34.5t36.5 13.5q27 0 43 -20q6 6 15 10q-27 13 -27 41t28 40 q-28 15 -27 43q0 20 18 33t39 13q46 0 46 -48q-1 -30 -23 -42q22 -11 22 -38q0 -30 -25 -42q8 -5 14 -11q16 15 42 15t40 -16q10 8 24 12q-36 17 -36 48q0 23 31 32q-31 14 -30 44q1 20 17.5 31t37.5 11q48 0 48 -42q0 -33 -27 -45q26 -9 26 -40q0 -27 -22 -39q9 -3 14 -7 q17 11 39 11q49 0 48 -42zM320 334q-27 13 -27 41q0 27 27 39q-9 4 -15 11q-13 -16 -38 -16q-26 0 -42 18q-5 -8 -13 -11q24 -7 24 -28q0 -33 -34 -51q30 -9 30 -43q0 -30 -27 -43q10 -4 15 -10q17 16 44 16q25 0 38 -15q8 7 17 11q-27 13 -27 41t28 40z" />
<glyph unicode="$" d="M467 291q0 -25 -22 -38q21 -8 21 -29q0 -24 -20.5 -45t-45.5 -21q-6 0 -11 1q3 -10 3 -20q0 -23 -15.5 -38.5t-38.5 -15.5q-25 0 -40 21q-8 -9 -18 -13q29 -9 29 -40q-1 -49 -49 -49q-23 0 -38 13.5t-15 35.5q1 30 34 40l-14 7q-14 -15 -37 -15q-26 0 -42 18 q-14 -18 -39 -18q-22 0 -38.5 14t-15.5 35q0 20 17 31t38 11q25 0 38 -15q17 15 43 15q21 0 35 -11l12 6q-28 13 -28 41q0 32 33 43q-32 17 -32 45q0 27 35 35q-26 10 -32 30q-20 -28 -46 -28q-18 0 -32.5 14t-14.5 32q0 15 11 26q-24 -3 -43.5 11t-19.5 38q1 48 51 48 q52 0 52 -48q0 -21 -12 -33q11 2 23 2q34 0 42 -20l14 9q-26 13 -26 40q0 28 29 40q-9 4 -15 12q-15 -18 -39 -18q-22 0 -38 13.5t-16 35.5q1 20 17 31t37 11q25 0 39 -15q7 7 17 11q-29 14 -28 43q0 20 17 31t38 11q48 0 48 -42q-1 -31 -25 -43l14 -10q16 12 41 12 q50 0 50 -40q-1 -49 -44 -49q-26 0 -45 22q-6 -11 -17 -16q24 -11 24 -38q0 -36 -32 -47q9 -4 16 -11q17 20 45 20q22 0 36.5 -12t14.5 -33q0 -15 -9 -33q11 4 21 4q24 0 41 -16t17 -39zM399 252q-36 16 -36 54q0 7 1 14q-7 -3 -15 -3q-25 0 -42 21q-7 -4 -16 -7 q22 -10 22 -38q0 -29 -23 -41q22 -11 22 -38q0 -28 -22 -41q8 -3 12 -8q21 20 49 20q6 0 13 -1q-3 9 -3 18q0 37 38 50z" />
<glyph unicode="%" d="M238 618q-1 -30 -23 -42q22 -11 22 -37q-1 -21 -15 -35t-36 -14q-24 0 -40 18q-16 -19 -37 -19t-39 15.5t-18 35.5q0 23 27 36q-27 11 -27 33t20 39.5t42 17.5q20 0 34 -17q18 17 43 17q47 0 47 -48zM481 620q-1 -25 -17.5 -41.5t-41.5 -15.5q4 -11 4 -24q0 -18 -9 -32 q-10 -17 -26 -17q-10 0 -21 6q5 -8 5 -19q0 -22 -20.5 -44t-43.5 -23q5 -11 5 -24q0 -54 -48 -58q10 -14 10 -31q0 -23 -14 -37.5t-37 -12.5q6 -9 6 -21q0 -22 -14 -39q-14 -20 -35 -20q-9 0 -18 4q19 -16 19 -41q0 -20 -13 -32.5t-33 -12.5q8 -13 8 -32q0 -58 -44 -58 q-24 0 -41 17.5t-17 40.5q1 42 49 50q-13 14 -13 30q0 20 17 34t37 14q10 0 19 -4q-26 19 -26 41t23 35q19 12 42 12q-18 17 -18 36q0 37 49 44q-13 13 -13 29q0 21 18 38t39 20q-6 12 -6 22q0 25 26 41q22 14 48 14q11 0 20 -3q-19 18 -19 39q0 39 45 43q-6 13 -6 26 q0 22 18 35.5t42 13.5q45 0 45 -43zM473 63q0 -22 -19 -40.5t-41 -18.5q-19 0 -33 17q-16 -19 -37 -19q-20 0 -38.5 16t-18.5 36q0 24 30 37q-29 13 -28 43q1 42 55 42q25 0 39 -15q17 16 42 16q48 1 48 -43q0 -29 -20 -41q21 -8 21 -30zM162 577q-9 4 -16 12q-6 -8 -16 -12 q10 -4 16 -11q7 6 16 11zM399 90q-10 4 -17 13q-7 -8 -15 -12q9 -5 15 -11q7 6 17 10z" />
<glyph unicode="&#x26;" d="M238 618q-1 -48 -48 -48q-22 0 -38.5 14t-16.5 36q0 20 18 32.5t39 12.5q46 0 46 -47zM460 386q0 -26 -23.5 -46.5t-49.5 -19.5q7 -10 7 -24q0 -49 -48 -49q-23 0 -39 13.5t-15 35.5q0 42 54 42q8 0 14 -1q-9 15 -4 40q9 41 62 41q42 0 42 -32zM308 459q0 -21 -14 -36 t-35 -15q-12 0 -25 6q8 -14 0 -37q-17 -48 -59 -48q-45 0 -44 48q1 23 26 38q21 12 45 12q9 0 15 -1q-13 13 -13 30q0 25 25 38q-32 13 -32 45q0 20 18 32q15 10 36 10q49 0 49 -42q-1 -27 -21 -41q29 -10 29 -39zM174 539q-1 -33 -27 -45q16 -13 16 -36q0 -56 -50 -56 q-23 0 -38 16.5t-15 39.5q1 32 29 43q-18 14 -18 38q1 20 17 31t37 11q49 0 49 -42zM463 63q0 -3 -1 -10q-12 -48 -47 -48q-23 0 -41 18.5t-18 42.5q0 8 4 16q-12 -5 -22 -5t-19 4q2 -6 2 -14q0 -24 -18.5 -43.5t-43.5 -19.5q-24 0 -38 23q-12 -23 -41 -23q-22 0 -38 13.5 t-16 35.5q0 20 18 32q15 10 36 10q31 0 43 -20q21 29 60 29q10 0 18 -3q-4 11 -4 22q0 16 10 31q-5 -2 -10 -2q-23 0 -42 19.5t-19 42.5q0 14 9 24q-21 4 -39 21t-22 37q-4 19 12 30t36 11q48 0 54 -41q4 -23 -3 -39q25 3 41 -10t16 -38q0 -19 -11 -37q12 5 23 5 q39 0 39 -43q0 -15 -8 -30q9 3 19 3q23 0 40 -11q21 -12 21 -33zM169 296q0 -40 -35 -48q16 -10 16 -33q0 -26 -19 -40q36 -7 35 -41q-1 -49 -49 -49q-22 0 -38 14t-15 35q0 21 21 34q-37 10 -37 44q0 35 41 44q-23 14 -22 40q0 20 18 32q15 10 36 10q49 0 48 -42z" />
<glyph unicode="'" d="M382 620q-1 -31 -25 -43q24 -11 24 -38q0 -21 -14 -35t-35 -14q-6 0 -13 1q16 -12 16 -32t-14 -35t-35 -15q11 -14 11 -32q-1 -49 -53 -49q-51 0 -51 40q0 22 15.5 38t37.5 18q-16 14 -16 31q0 20 18.5 32.5t38.5 12.5q6 0 12 -1q-21 15 -21 37q0 29 29 41q-9 4 -15 11 q-14 -18 -38 -18q-23 0 -39.5 14t-16.5 36q0 20 18 33t39 13q25 0 37 -18q17 14 42 14q48 0 48 -42z" />
<glyph unicode="(" d="M481 620q0 -49 -44 -49q-21 0 -38 14.5t-21 34.5q-4 21 12 32t37 11q54 0 54 -43zM399 539q-1 -49 -43 -49q-21 0 -38 14t-22 35q-5 19 16 31q17 9 37 9q50 0 50 -40zM391 134q0 -49 -48 -49q-22 0 -38.5 13.5t-15.5 35.5q0 20 19 32q-23 -3 -43 11.5t-20 37.5 q0 20 20 32q-20 3 -37 18.5t-17 35.5q0 26 35 34q-34 12 -34 42q0 18 13 29.5t31 11.5q9 0 19 -2q-26 14 -26 42q1 20 19 32q15 10 36 10q48 0 48 -42q-1 -49 -48 -49q-10 0 -19 2q33 -17 33 -49q0 -25 -27 -31q22 -10 22 -38q0 -21 -14 -36q20 1 35 -11.5t15 -33.5 q0 -22 -20 -37q8 1 15 1q48 0 47 -42zM472 64q0 -4 -1 -11q-12 -49 -56 -49q-21 0 -33.5 14t-12.5 35t21 33q17 10 39 10q43 0 43 -32zM285 411q-4 3 -10 5q5 -3 10 -5zM291 331q-13 6 -27 6q-9 0 -18 -2q14 -6 28 -6q9 0 17 2z" />
<glyph unicode=")" d="M157 620q-1 -49 -54 -49q-19 0 -33 10q-17 11 -17 29q0 23 18.5 38.5t40.5 15.5q45 0 45 -44zM318 363q0 -25 -27 -32q23 -10 23 -37q0 -19 -12.5 -33t-31.5 -14q-5 0 -10 1q16 -11 16 -33q0 -21 -13.5 -35t-34.5 -14q-7 0 -14 1q16 -12 15 -33q0 -49 -48 -49 q-22 0 -38 13.5t-16 35.5q0 42 55 42q6 0 12 -1q-22 16 -22 36t17 33.5t37 13.5q6 0 12 -2q-27 18 -27 44q0 27 35 35q-35 12 -35 44q0 18 17 30q-20 1 -35.5 15t-15.5 33q0 21 19 33q-24 -3 -43 11t-19 38q1 20 17 31t37 11q49 0 49 -42q-1 -26 -18 -40q7 2 14 2 q21 0 34.5 -12.5t13.5 -33.5q0 -22 -19 -37q21 -1 38.5 -18t17.5 -37zM147 53q0 -57 -44 -57q-24 0 -41.5 17t-16.5 40q1 20 17 31.5t37 11.5q48 0 48 -43z" />
<glyph unicode="*" d="M463 134q-1 -49 -46 -49q-21 0 -39 13.5t-18 34.5q0 11 5 23q-38 -6 -59 33q-6 -10 -16 -16q21 -9 21 -32q0 -36 -31 -48q29 -9 29 -40q-1 -49 -49 -49q-23 0 -38 13.5t-15 35.5q1 30 34 40q-33 11 -33 40q0 26 30 38q-15 7 -22 19q-13 -24 -43 -24q-7 0 -12 1 q7 -13 5 -33q-4 -49 -51 -49q-22 0 -36.5 13.5t-14.5 35.5q0 23 21.5 37.5t44.5 12.5q-12 15 -12 29q0 20 19 32t39 12q28 0 41 -20q9 12 26 18q-32 17 -32 45q0 27 35 35q-35 12 -35 45q0 26 28 36q-12 6 -19 17q-12 -24 -41 -24q-22 0 -39.5 15t-17.5 37q0 14 9 29 q-23 -2 -41.5 11.5t-18.5 37.5q1 20 17 31t37 11q49 0 49 -42q0 -16 -8 -28q39 3 55 -30q8 9 21 15q-27 13 -27 41t29 40q-29 14 -28 43q0 20 17 31t38 11q48 0 48 -42q-1 -31 -25 -43q24 -11 24 -39q0 -30 -25 -42q11 -6 17 -15q20 32 58 27q-11 17 -11 30q0 20 19 33 q17 10 38 10q48 0 48 -42q0 -22 -14 -37t-36 -15q-6 0 -12 1q8 -15 8 -29q0 -22 -16 -36.5t-38 -14.5q-28 0 -44 25q-8 -15 -25 -22q33 -16 33 -49q0 -24 -27 -31q22 -10 22 -38q0 -29 -23 -41q11 -5 17 -15q15 21 45 21q21 0 36 -12.5t15 -34.5q0 -14 -7 -30q7 2 14 2 q23 0 38.5 -13.5t14.5 -35.5z" />
<glyph unicode="+" d="M475 296q0 -22 -14 -35.5t-36 -13.5q-25 0 -41 18q-13 -18 -38 -18q-26 0 -42 17q-5 -8 -14 -12q22 -11 22 -38q0 -28 -22 -41q26 -10 20 -39q-8 -45 -50 -45q-20 0 -36 13t-16 32q0 25 30 37q-28 13 -28 41q0 32 33 43q-10 5 -18 13q-14 -21 -41 -21t-43 18 q-13 -18 -38 -18q-22 0 -38.5 14t-15.5 35q0 20 18 32q15 10 36 10q26 0 39 -15q16 15 42 15q25 0 38 -14q10 7 24 11q-34 12 -34 45q0 26 27 36q-26 14 -26 42q1 20 19 32q15 10 36 10q48 0 48 -42q-1 -36 -31 -47q33 -16 33 -49q0 -25 -27 -31l12 -8q16 15 43 15 q26 0 39 -15q16 15 42 15q49 0 48 -42z" />
<glyph unicode="," d="M375 215q0 -28 -22 -42q26 -10 20 -39q-8 -45 -50 -45q-20 0 -36 13t-16 32q0 25 30 37l-17 12q-11 -17 -31 -17q-21 0 -41.5 18t-20.5 38q0 34 52 34q27 0 40 -15q18 16 44 16q49 0 48 -42zM327 53q-1 -49 -49 -49q-23 0 -38 13.5t-15 35.5q1 42 54 42q48 0 48 -42z" />
<glyph unicode="-" d="M475 296q0 -22 -14 -35.5t-36 -13.5q-25 0 -41 18q-13 -18 -38 -18q-26 0 -42 17q-12 -17 -33 -17q-27 0 -46 21q-14 -21 -41 -21t-43 18q-13 -18 -38 -18q-22 0 -38.5 14t-15.5 35q0 20 18 32q15 10 36 10q26 0 39 -15q16 15 42 15q25 0 38 -14q16 13 42 13q25 0 39 -14 q16 15 43 15q26 0 39 -15q16 15 42 15q49 0 48 -42z" />
<glyph unicode="." d="M325 93q29 -9 29 -40q-1 -21 -14.5 -35t-35.5 -14q-24 0 -41 18q-15 -20 -36 -20t-39.5 16t-18.5 37q0 23 31 36q-29 14 -28 43q0 20 17 31t38 11q25 0 38 -15q18 15 47 15q45 0 45 -31q0 -40 -32 -52zM286 93q-12 4 -20 11q-6 -9 -16 -13q8 -5 14 -11q9 9 22 13z" />
<glyph unicode="/" d="M481 620q-1 -25 -18 -41.5t-42 -15.5q5 -11 5 -24q0 -49 -43 -49q-5 0 -10 1q2 -6 2 -13q0 -23 -20 -45.5t-44 -22.5q5 -11 5 -24q0 -54 -48 -58q10 -14 10 -31q0 -23 -14 -37.5t-37 -12.5q6 -9 6 -21q0 -23 -14 -41t-36 -18q-8 0 -17 4q19 -16 19 -41q0 -20 -13 -32.5 t-33 -12.5q8 -13 8 -32q0 -58 -44 -58q-24 0 -41 17.5t-17 40.5q1 42 49 50q-13 14 -13 30q0 20 17 34t37 14q10 0 19 -4q-26 19 -26 41t23 35q19 12 42 12q-18 17 -18 36q0 37 49 44q-13 13 -13 29q0 22 19.5 39.5t42.5 19.5q-6 11 -6 21q0 25 24 40t49 15q-17 17 -17 35 q0 21 19 32.5t40 11.5q-6 13 -6 26q0 22 18 35.5t42 13.5q45 0 45 -43z" />
<glyph unicode="0" d="M479 455q0 -27 -25 -40q24 -8 24 -31q0 -31 -30 -48q27 -10 27 -41q0 -29 -23 -42q23 -8 23 -31q0 -20 -16.5 -37.5t-36.5 -18.5q15 -12 15 -31q0 -21 -15 -36t-36 -14q6 -12 6 -25q0 -23 -16.5 -39.5t-39.5 -16.5q-22 0 -37 18q-14 -18 -39 -18q-26 0 -42 18 q-14 -19 -37 -19q-20 0 -38.5 14.5t-18.5 34.5q0 16 15 29q-22 0 -40 15.5t-18 36.5q0 20 18 33q-21 0 -36.5 13.5t-15.5 33.5q0 27 30 39q-28 13 -28 42q0 27 27 39q-27 11 -27 37q0 30 27 46q-25 14 -25 42q0 21 15 34.5t37 13.5q-15 14 -15 30q0 21 18.5 33.5t39.5 11.5 q-12 17 -12 35q0 21 18 35.5t40 14.5q24 0 37 -18q17 14 42 14t39 -15q18 17 42 17q48 0 48 -45q0 -18 -12 -38q22 3 39.5 -8.5t17.5 -34.5q0 -21 -16 -38q21 1 35.5 -11.5t14.5 -33.5zM384 482h-6q2 -2 3 -5q1 2 3 5zM351 498q-11 13 -11 34q0 17 9 29q-26 1 -41 26 q-15 -16 -38 -16q-24 0 -41 16q-15 -25 -44 -25q8 -11 8 -24q0 -20 -15.5 -34t-35.5 -14q12 -13 12 -32q0 -28 -21 -41q20 -13 20 -39q0 -31 -26 -44q12 -6 19 -16q20 29 60 29q8 0 14 -2q-8 15 -8 29q0 23 16.5 38.5t38.5 15.5q7 0 15 -1q-6 13 -6 26q0 22 17 34t41 12 q9 0 17 -1zM405 414q-26 11 -29 37q-25 -54 -66 -48q5 -12 5 -24q0 -23 -14.5 -41.5t-36.5 -18.5q-11 0 -22 6q2 -7 2 -15q0 -24 -19 -43.5t-42 -19.5q-25 0 -38 23q-6 -12 -19 -18q24 -10 24 -38q0 -23 -17 -38q22 1 37.5 -12t15.5 -34q0 -19 -14 -35q30 4 47 -15 q16 15 42 15q25 0 39 -14q17 20 45 22q-12 14 -12 29q0 20 19 33q16 11 37 11q-18 15 -18 35q0 29 31 41q-29 13 -29 42q0 27 27 39q-26 13 -26 40q0 29 31 41z" />
<glyph unicode="1" d="M390 53q-1 -21 -14.5 -35t-35.5 -14q-24 0 -41 18q-14 -18 -39 -18q-26 0 -42 18q-14 -18 -38 -18q-22 0 -38 13.5t-16 35.5q1 42 54 42q25 0 39 -15q9 9 22 13q-33 11 -33 40q0 26 30 38q-28 13 -28 41q0 32 33 43q-32 17 -32 45q0 27 35 35q-35 12 -35 45q0 26 28 36 q-26 13 -26 40q0 28 29 40q-9 4 -15 12q-15 -18 -39 -18q-22 0 -38 13.5t-16 35.5q1 20 17 31t37 11q25 0 39 -15q7 7 17 11q-29 14 -28 43q0 20 17 31t38 11q48 0 48 -42q0 -31 -25 -43q24 -11 24 -39q0 -30 -25 -42q24 -11 24 -38q0 -36 -32 -47q33 -16 33 -49 q0 -24 -27 -31q22 -10 22 -38q0 -29 -23 -41q22 -11 22 -38q0 -28 -22 -41q21 -9 21 -32q0 -36 -31 -48q12 -4 20 -13q16 15 42 15q48 0 48 -42z" />
<glyph unicode="2" d="M478 458q-1 -49 -49 -49q-22 0 -38 13.5t-16 35.5q1 21 22 34q-39 11 -39 50q0 13 6 26q-5 -1 -10 -1q-28 0 -45 22q-14 -18 -39 -18t-41 17q-14 -18 -39 -18q-8 0 -15 1q9 -13 9 -30q0 -45 -43 -51q13 -13 13 -32q-1 -49 -49 -49q-22 0 -38 13.5t-16 35.5q1 41 43 47 q-15 14 -15 31q0 24 21.5 40.5t45.5 12.5q-12 15 -12 29q0 20 19 34t40 14q24 0 36 -18q17 14 42 14t39 -15q17 16 40 16q21 0 35.5 -12.5t14.5 -32.5q0 -13 -6 -27q6 2 12 2q23 0 40 -17t17 -40q0 -22 -19 -37q35 -7 34 -41zM391 372q0 -24 -16.5 -39.5t-39.5 -15.5 q-47 0 -47 44q0 24 17 38.5t41 14.5q45 0 45 -42zM277 296q-8 -58 -48 -58q-42 0 -54 58q-5 20 18 32q18 10 39 10q51 0 45 -42zM472 65q0 -23 -18 -42t-40 -19q-21 0 -34 17q-15 -17 -39 -17q-26 0 -42 18q-14 -18 -39 -18q-26 0 -42 18q-14 -18 -39 -18q-23 0 -40 15 q-11 -24 -35 -24q-22 0 -41.5 18.5t-19.5 40.5q0 25 31 37q-28 13 -28 39q0 21 16 34t36 13q9 0 18 -2q-18 10 -23 31q-6 22 20 39q23 14 46 14q38 0 38 -35q0 -10 -2 -18q-9 -39 -50 -39q-7 0 -15 2q18 -12 18 -35q0 -31 -24 -43l14 -11q16 15 42 15q25 0 39 -15 q16 15 42 15q25 0 39 -15q16 15 42 15t40 -15q18 16 48 16q42 0 42 -31z" />
<glyph unicode="3" d="M400 620q-1 -49 -49 -49q-41 0 -52 36q-8 -36 -47 -36q-25 0 -41 17q-14 -18 -38 -18q-6 0 -12 1q7 -13 4 -32q-8 -49 -53 -49q-22 0 -36.5 13.5t-13.5 35.5q1 23 23 38q19 13 43 13q-12 14 -12 28q0 21 20 35q17 13 39 13q24 0 36 -18q17 14 43 14q38 0 46 -30 q10 30 52 30q48 0 48 -42zM475 221q0 -16 -11.5 -31.5t-27.5 -20.5q19 -12 19 -35t-16 -37t-39 -12q8 -13 8 -32q0 -49 -49 -49q-31 0 -47 24q-12 -24 -43 -24t-47 24q-11 -24 -38 -24q-24 0 -42 16.5t-18 39.5q0 11 5 22q-24 -4 -44.5 11.5t-20.5 39.5q0 23 21 35 q-38 11 -37 47q0 19 17 30t38 11q48 0 47 -41q0 -26 -19 -40q35 -8 35 -43q0 -13 -5 -26q43 6 62 -31q15 20 47 20q30 0 42 -19q17 27 51 28q-11 13 -11 27q0 35 39 44q-19 14 -19 36q0 26 23 37q-40 11 -40 51q0 10 3 19q-29 -4 -50 21q-13 -10 -33 -10q-37 0 -55 24 q-18 -24 -45 -24q-44 0 -44 48q1 20 22 32q17 9 39 9t35 -9q12 9 29 9q27 0 45 -18q16 19 46 19q7 0 14 -1q-13 17 -13 35q0 35 34 45q-23 14 -23 41q0 20 18 32q15 10 36 10q49 0 49 -42q-1 -34 -30 -46q20 -12 20 -35q0 -26 -19 -43.5t-45 -13.5q9 -11 9 -27q0 -14 -7 -31 q7 2 14 2q22 0 38 -15t16 -38q0 -21 -19 -36q36 -4 36 -35z" />
<glyph unicode="4" d="M475 224q0 -22 -18 -40t-39 -18t-36 17q-5 -8 -13 -11q22 -11 22 -39q0 -30 -24 -42q23 -12 23 -38q-1 -49 -49 -49q-23 0 -38 13.5t-15 35.5q0 26 29 38q-28 13 -28 41t29 40q-9 4 -16 12q-14 -18 -39 -18t-42 17q-10 -17 -31 -17q-28 0 -47 22q-13 -22 -41 -22 q-23 0 -39 13.5t-15 35.5q0 26 29 37q-28 13 -28 41q0 39 45 45q-18 14 -18 34q0 21 19 33.5t41 12.5q-22 15 -22 36q0 25 21.5 41.5t45.5 12.5q-12 14 -12 29q0 21 18 36.5t40 16.5q-12 14 -12 28q0 21 18.5 33t39.5 12q23 0 37 -16q16 15 42 15q48 0 48 -42 q-1 -33 -27 -45q26 -9 26 -40q0 -27 -22 -39q23 -7 23 -26q0 -33 -36 -52q32 -9 32 -43q0 -29 -24 -41q22 -11 22 -39q0 -30 -24 -42q9 -5 14 -11q17 14 47 14q44 0 44 -32zM332 496q-36 17 -36 48q0 23 31 32q-11 4 -18 13q-16 -20 -44 -18q9 -15 9 -30q0 -22 -14 -36.5 t-36 -14.5q-8 0 -15 1q9 -13 9 -31q0 -21 -13 -36t-33 -15q10 -9 10 -20q0 -17 -16 -35.5t-33 -23.5q18 -11 18 -34q0 -31 -25 -44q8 -3 13 -8q16 12 41 12q27 0 40 -15q17 16 44 16q25 0 38 -15q8 7 17 11q-27 13 -27 41t28 40q-27 13 -27 41q0 27 27 39q-26 11 -26 37 q0 34 38 45z" />
<glyph unicode="5" d="M481 620q-1 -49 -45 -49q-25 0 -44 21q-13 -21 -41 -21q-26 0 -42 18q-14 -18 -39 -18t-41 17q-14 -18 -39 -18q-27 0 -44 19q-6 -8 -16 -12q26 -10 26 -39q0 -28 -23 -41q21 -14 21 -40q0 -27 -21 -40l13 -13q18 14 47 14q21 0 34 -9q12 9 29 9q27 0 45 -18q16 19 46 19 q50 0 49 -42q0 -21 -14.5 -35t-35.5 -14q-20 0 -36 13q-13 -12 -35 -12q-37 0 -55 24q-18 -24 -46 -24q-20 0 -33 16q-15 -17 -41 -17q-51 0 -51 40q0 32 27 48q-25 13 -25 43q0 27 24 40q-22 14 -22 38q0 26 26 39q-27 11 -27 33t20 39.5t42 17.5q20 0 34 -17q18 16 44 16 q25 0 37 -17q17 14 42 14t39 -15q16 15 42 15q22 0 36 -11q14 12 39 12q54 0 54 -43zM475 221q0 -16 -11.5 -31.5t-27.5 -20.5q19 -11 18 -35q-1 -49 -48 -49q-22 0 -38 13.5t-16 35.5q0 32 39 41q-19 14 -19 36q0 26 22 37q-41 10 -39 48q0 20 17 30.5t37 10.5q48 0 48 -41 q0 -26 -18 -40q36 -4 36 -35zM390 53q-1 -21 -14.5 -35t-35.5 -14q-24 0 -41 18q-14 -18 -39 -18q-26 0 -42 18q-14 -18 -38 -18q-22 0 -38 13.5t-16 35.5q1 42 54 42q25 0 39 -15q17 15 42 15t39 -15q16 15 42 15q48 0 48 -42zM166 134q0 -49 -48 -49q-22 0 -38.5 13.5 t-15.5 35.5q0 20 17 31t38 11q48 0 47 -42z" />
<glyph unicode="6" d="M400 620q-1 -21 -15 -35t-35 -14q-24 0 -41 18q-14 -18 -39 -18t-41 17q-14 -18 -38 -18q-23 0 -39.5 14t-16.5 36q0 20 18 33t39 13q25 0 37 -18q17 14 42 14t39 -15q16 15 42 15q48 0 48 -42zM474 222q0 -19 -13 -35t-32 -20q17 -11 17 -33q0 -21 -14 -35t-35 -14h-12 q7 -11 7 -25q0 -22 -17 -39t-39 -17t-37 18q-14 -18 -39 -18q-26 0 -41 18q-15 -19 -38 -19q-22 0 -39 15t-17 36q0 13 8 27q-22 -2 -41.5 14t-19.5 38q0 21 20 33q-44 9 -44 47q0 27 29 39q-28 13 -28 42q0 27 27 39q-27 11 -27 37q0 30 27 46q-25 14 -25 42q0 41 43 47 q-15 14 -14 34t17 31t37 11q49 0 49 -42q-1 -43 -42 -49q13 -12 13 -32q0 -28 -21 -41q7 -6 13 -13q18 14 47 14q21 0 34 -9q12 9 29 9q23 0 40 -14q17 16 41 16q20 0 35.5 -12.5t15.5 -32.5q0 -13 -7 -27q6 2 11 2q23 0 40 -17t17 -40q0 -22 -18 -37q43 0 43 -34zM392 247 q-46 7 -46 52q0 13 6 26q-6 -1 -12 -1q-19 0 -36 13q-12 -8 -30 -8q-36 0 -54 24q-18 -24 -46 -24q-20 0 -33 16q-6 -7 -14 -11q24 -10 24 -39q0 -30 -25 -43q24 -10 24 -38q0 -23 -17 -38q43 -3 43 -45q0 -15 -9 -29q35 3 53 -21q16 14 41 14t39 -14q21 24 54 23 q-12 13 -12 28q0 38 47 44q-17 14 -17 35q0 24 20 36z" />
<glyph unicode="7" d="M481 620q-1 -48 -42 -49q15 -11 15 -30q0 -18 -12.5 -34.5t-29.5 -21.5q6 -7 6 -16q0 -20 -22.5 -40t-42.5 -19q17 -12 17 -30q0 -19 -16 -32.5t-35 -14.5q13 -14 13 -36q0 -43 -35 -49q15 -11 15 -33q0 -29 -22 -42q21 -9 21 -32q0 -36 -31 -48q29 -9 29 -40 q-1 -49 -49 -49q-23 0 -38 13.5t-15 35.5q1 30 34 40q-33 11 -33 40q0 26 30 38q-29 13 -29 40q0 41 47 46q-27 18 -27 43q0 40 52 45q-16 13 -16 29q0 22 21 35t43 10q-18 14 -18 33q0 38 47 46q-11 13 -11 29q0 22 18 38t40 16l-13 11q-13 -21 -41 -21q-26 0 -42 18 q-14 -18 -39 -18t-41 17q-14 -18 -39 -18q-27 0 -44 19q-15 -18 -43 -18q-19 0 -33 10q-17 11 -17 29q0 22 19 38.5t41 16.5t35 -16q18 16 44 16q25 0 37 -17q17 14 42 14t39 -15q16 15 42 15q22 0 36 -11q14 12 39 12q54 0 54 -43z" />
<glyph unicode="8" d="M462 539q-1 -31 -25 -43q23 -11 23 -38q0 -49 -49 -49q-22 0 -38 13.5t-16 35.5q1 26 29 38q-27 13 -27 43q0 20 18 32q15 10 36 10q49 0 49 -42zM400 620q-1 -21 -15 -35t-35 -14q-24 0 -41 18q-14 -18 -39 -18t-41 17q-14 -18 -38 -18q-23 0 -39.5 14t-16.5 36 q0 20 18 33t39 13q25 0 37 -18q17 14 42 14t39 -15q16 15 42 15q48 0 48 -42zM396 377q0 -21 -14.5 -35t-35.5 -14q-20 0 -36 13q-13 -12 -35 -12q-37 0 -55 24q-18 -24 -45 -24q-45 0 -44 48q1 20 22 32q17 9 39 9t35 -9q12 9 29 9q27 0 45 -18q15 20 46 19q50 0 49 -42z M475 223q0 -17 -11.5 -32.5t-27.5 -21.5q19 -11 18 -35q-1 -49 -48 -49q-22 0 -38 13.5t-16 35.5q0 32 39 41q-20 14 -20 36q0 29 31 41q-30 14 -29 44q0 20 18 32q15 10 36 10q49 0 48 -42q0 -30 -23 -43q23 -8 23 -30zM174 539q-1 -29 -23 -42q21 -13 21 -39 q-1 -49 -49 -49q-22 0 -38 13.5t-16 35.5q1 29 24 41q-22 14 -22 40q0 20 18 32q15 10 36 10q49 0 49 -42zM166 134q-1 -49 -49 -49q-22 0 -38 14t-15 35q0 21 21 34q-37 10 -37 45q0 27 29 39q-29 14 -28 44q0 20 16.5 31t37.5 11q49 0 48 -42q0 -32 -25 -44q24 -10 24 -38 q0 -25 -19 -39q36 -7 35 -41zM390 53q-1 -21 -14.5 -35t-35.5 -14q-24 0 -41 18q-14 -18 -39 -18q-26 0 -42 18q-14 -18 -38 -18q-22 0 -38 13.5t-16 35.5q1 42 54 42q25 0 39 -15q17 15 42 15t39 -15q16 15 42 15q48 0 48 -42z" />
<glyph unicode="9" d="M400 620q-1 -21 -15 -35t-35 -14q-24 0 -41 18q-14 -18 -39 -18t-41 17q-14 -18 -38 -18q-23 0 -39.5 14t-16.5 36q0 20 18 33t39 13q25 0 37 -18q17 14 42 14t39 -15q16 15 42 15q48 0 48 -42zM479 455q0 -27 -25 -40q24 -8 24 -31q0 -31 -30 -48q27 -10 27 -41 q0 -29 -23 -42q23 -8 23 -30q0 -18 -14 -35t-32 -21q17 -11 16 -33q-1 -49 -48 -49q-22 0 -38 13.5t-16 35.5q0 37 46 42q-18 14 -18 35q0 29 31 41q-11 4 -18 13q-13 -18 -38 -18q-26 0 -42 17q-12 -17 -33 -17q-27 0 -46 21q-14 -21 -41 -21q-22 0 -38.5 14t-15.5 35 q0 20 18 32q15 10 36 10q25 0 38 -14q16 13 42 13q25 0 39 -14q16 15 43 15q26 0 39 -15q6 6 15 10q-26 13 -26 40q0 29 31 41q-30 13 -30 43q0 21 19 33q-45 8 -44 49q0 20 18 32q15 10 36 10q49 0 49 -42q0 -25 -17 -39q43 -3 43 -45zM180 377q-1 -49 -53 -49 q-51 0 -51 40q0 24 19 41q-44 8 -44 50q0 35 35 45q-15 13 -15 35q1 20 17 31t37 11q49 0 49 -42q-1 -38 -34 -48q14 -12 14 -34q0 -20 -13 -34q40 -5 39 -46zM390 53q-1 -21 -14.5 -35t-35.5 -14q-24 0 -41 18q-14 -18 -39 -18q-26 0 -42 18q-14 -18 -38 -18 q-22 0 -38 13.5t-16 35.5q1 42 54 42q25 0 39 -15q17 15 42 15t39 -15q16 15 42 15q48 0 48 -42z" />
<glyph unicode=":" d="M354 443q0 -24 -27 -31q23 -11 23 -35q0 -19 -14 -34.5t-33 -15.5q-22 0 -42 22q-14 -21 -41 -21q-22 0 -38.5 14t-15.5 35q0 25 27 37q-26 12 -26 44q1 20 22 32q17 9 39 9t35 -9q13 10 29 10q22 0 42 -17.5t20 -39.5zM316 174q29 -9 29 -40q-1 -21 -14.5 -35t-35.5 -14 q-24 0 -41 18q-15 -20 -36 -20t-39.5 16t-18.5 37q0 23 31 36q-29 14 -28 43q0 20 17 31t38 11q25 0 38 -15q18 15 47 15q45 0 45 -31q0 -40 -32 -52zM282 416q-17 6 -26 18q-8 -11 -18 -16q12 -4 20 -13q9 7 24 11zM277 174q-12 4 -20 11q-6 -9 -16 -13q8 -5 14 -11 q9 9 22 13z" />
<glyph unicode=";" d="M354 443q0 -24 -27 -31q23 -11 23 -35q0 -19 -14 -34.5t-33 -15.5q-22 0 -42 22q-14 -21 -41 -21q-22 0 -38.5 14t-15.5 35q0 25 27 37q-26 12 -26 44q1 20 22 32q17 9 39 9t35 -9q13 10 29 10q22 0 42 -17.5t20 -39.5zM346 134q0 -49 -48 -49q-23 0 -39 13.5t-15 35.5 q1 30 38 39q-15 3 -25 12q-13 -19 -40 -19q-22 0 -38.5 14t-15.5 35q0 20 17 31t38 11q25 0 38 -15q18 15 47 15q45 0 45 -31q0 -42 -36 -53q34 -7 34 -39zM291 53q-1 -49 -49 -49q-23 0 -38 13.5t-15 35.5q1 42 54 42q48 0 48 -42zM282 416q-17 6 -26 18q-8 -11 -18 -16 q12 -4 20 -13q9 7 24 11z" />
<glyph unicode="&#x3c;" d="M435 539q-1 -49 -43 -49q-21 0 -38 14t-22 35q-5 19 16 31q17 9 37 9q50 0 50 -40zM352 458q-1 -49 -49 -49q-22 0 -38 13.5t-16 35.5q1 20 19 32q15 10 36 10q48 0 48 -42zM272 389q0 -7 -2 -12q-16 -48 -59 -48q-21 0 -32.5 14t-11.5 34q1 20 22 32q17 9 39 9 q44 0 44 -29zM187 296q-1 -49 -48 -49q-23 0 -39 13.5t-15 35.5q0 20 18 32q15 10 36 10q49 0 48 -42zM346 134q-8 -45 -50 -45q-20 0 -36.5 13t-15.5 32q0 19 19 31t39 12q52 0 44 -43zM267 215q0 -49 -42 -49q-21 0 -38 14.5t-22 34.5t14 31q16 10 37 10q52 0 51 -41z M426 53q-1 -49 -49 -49q-23 0 -38 13.5t-15 35.5q1 42 54 42q48 0 48 -42z" />
<glyph unicode="=" d="M478 386q0 -22 -18 -40t-40 -18q-20 0 -35 17q-13 -17 -38 -17q-22 0 -37 13q-13 -12 -35 -12q-37 0 -55 24q-18 -24 -46 -24q-20 0 -33 16q-15 -17 -41 -17q-51 0 -51 40q0 23 18 40t41 17q24 0 38 -21q18 14 47 14q21 0 34 -9q12 9 29 9q27 0 45 -18q15 20 46 19 q27 0 40 -16q17 15 47 15q44 0 44 -32zM475 224q0 -22 -18 -40t-39 -18t-36 17q-13 -17 -38 -17q-26 0 -42 18q-14 -18 -39 -18t-42 17q-10 -17 -31 -17q-28 0 -47 22q-13 -22 -41 -22q-22 0 -38.5 13.5t-15.5 35.5q0 19 17 30t38 11q23 0 36 -12q17 12 41 12q26 0 40 -15 q18 16 44 16q25 0 38 -15q17 15 44 15q25 0 38 -15q17 14 47 14q44 0 44 -32z" />
<glyph unicode="&#x3e;" d="M469 296q0 -22 -15.5 -35.5t-37.5 -13.5q-48 0 -49 49q0 42 48 42q53 0 54 -42zM387 377q2 -48 -44 -48q-43 0 -59 48q-1 5 -1 12q0 29 44 29q21 0 39 -9q20 -12 21 -32zM304 458q1 -22 -14.5 -35.5t-38.5 -13.5q-48 0 -49 49q0 42 48 42q53 0 54 -42zM222 539 q-4 -20 -21.5 -34.5t-38.5 -14.5q-42 0 -42 49q-1 40 49 40q21 0 37 -10q21 -11 16 -30zM390 215q-5 -20 -22.5 -34.5t-38.5 -14.5q-41 0 -42 49q0 41 51 41q21 0 37 -10q20 -11 15 -31zM310 134q1 -19 -16 -32t-37 -13q-40 0 -49 45q-8 43 43 43q22 0 39 -10q20 -13 20 -33 zM230 53q1 -22 -14.5 -35.5t-38.5 -13.5q-49 0 -49 49q-1 42 48 42q21 0 37.5 -11t16.5 -31z" />
<glyph unicode="?" d="M480 539q-1 -38 -35 -48q15 -11 15 -33q-1 -49 -49 -49q-22 0 -38 13.5t-16 35.5q1 33 41 41q-21 15 -21 40q1 42 54 42q49 0 49 -42zM400 620q-1 -21 -15 -35t-35 -14q-24 0 -41 18q-14 -18 -39 -18t-41 17q-14 -18 -38 -18q-23 0 -39.5 14t-16.5 36q0 20 18 33t39 13 q25 0 37 -18q17 14 42 14t39 -15q16 15 42 15q48 0 48 -42zM387 377q0 -49 -50 -49q-22 0 -37.5 13.5t-15.5 35.5q1 20 17 31t37 11q49 0 49 -42zM156 539q-1 -49 -50 -49q-22 0 -37.5 13.5t-15.5 35.5q1 20 17 31t37 11q49 0 49 -42zM313 296q-1 -49 -43 -49 q-21 0 -38 14.5t-21 34.5q-5 19 15 31q16 10 37 10q51 0 50 -41zM309 53q-1 -49 -49 -49q-23 0 -38 13.5t-15 35.5q1 42 54 42q48 0 48 -42z" />
<glyph unicode="@" d="M400 620q-1 -21 -15 -35t-35 -14q-24 0 -41 18q-14 -18 -39 -18t-41 17q-14 -18 -38 -18q-23 0 -39.5 14t-16.5 36q0 20 18 33t39 13q25 0 37 -18q17 14 42 14t39 -15q16 15 42 15q48 0 48 -42zM479 455q0 -27 -25 -40q24 -8 24 -31q0 -18 -14 -34.5t-32 -20.5 q17 -11 16 -33q-1 -49 -48 -49q-23 0 -39 13.5t-15 35.5q0 37 45 42q-18 14 -18 35q0 29 32 41q-30 13 -30 43q0 21 19 33q-45 8 -44 49q0 20 18 32q15 10 36 10q49 0 49 -42q0 -25 -17 -39q43 -3 43 -45zM393 215q0 -21 -14.5 -35t-35.5 -14q-24 0 -41 18q-14 -18 -38 -18 q-22 0 -38.5 13.5t-15.5 35.5q1 29 33 40q-32 17 -32 45q0 27 35 35q-34 12 -34 42q1 41 44 41q45 0 59 -41q3 -8 3 -15q0 -25 -27 -31q22 -10 22 -38q0 -29 -23 -41l12 -10q17 15 43 15q49 0 48 -42zM183 539q0 -43 -42 -49q13 -12 13 -32q0 -28 -21 -41q20 -13 20 -39 q0 -31 -26 -44q24 -10 24 -39q0 -30 -25 -43q24 -10 24 -38q0 -23 -17 -38q43 -3 42 -42q-1 -49 -48 -49q-22 0 -38 13.5t-16 35.5q0 20 19 32q-18 3 -31 16t-13 31q0 27 29 39q-28 13 -28 42q0 27 27 39q-27 11 -27 37q0 30 27 46q-25 14 -25 42q0 41 43 47q-15 14 -14 34 t17 31t37 11q49 0 49 -42zM472 65q0 -23 -18 -42t-40 -19q-21 0 -34 17q-15 -17 -39 -17q-26 0 -42 18q-14 -18 -39 -18q-26 0 -42 18q-14 -18 -38 -18q-22 0 -38 13.5t-16 35.5q1 42 54 42q25 0 39 -15q17 15 42 15t39 -15q16 15 42 15t40 -15q18 16 48 16q42 0 42 -31z " />
<glyph unicode="A" d="M400 620q-1 -21 -15 -35t-35 -14q-24 0 -41 18q-14 -18 -39 -18t-41 17q-14 -18 -38 -18q-23 0 -39.5 14t-16.5 36q0 20 18 33t39 13q25 0 37 -18q17 14 42 14t39 -15q16 15 42 15q48 0 48 -42zM479 455q0 -27 -25 -40q24 -8 24 -31q0 -31 -30 -48q27 -10 27 -41 q0 -29 -23 -42q23 -8 23 -31q0 -32 -30 -48q27 -10 27 -42q0 -26 -20 -39q20 -8 20 -29q0 -4 -1 -11q-13 -49 -56 -49q-21 0 -33.5 14t-12.5 35q0 25 30 37q-29 13 -29 42q0 27 27 39q-26 13 -26 40q0 29 31 41q-11 4 -18 13q-13 -18 -38 -18q-26 0 -42 17q-12 -17 -33 -17 q-27 0 -46 21q-14 -21 -41 -21t-43 18q-6 -9 -15 -13q24 -10 24 -38q0 -30 -24 -42q22 -11 22 -39q0 -30 -24 -42q23 -12 23 -38q-2 -58 -44 -58q-23 0 -40.5 17.5t-17.5 40.5q0 26 29 38q-28 13 -28 41t29 40q-27 13 -27 40q0 28 29 40q-28 13 -28 42q0 27 27 39 q-27 11 -27 37q0 30 27 46q-25 14 -25 42q0 41 43 47q-15 14 -14 34t17 31t37 11q49 0 49 -42q0 -43 -42 -49q13 -12 13 -32q0 -28 -21 -41q20 -13 20 -39q0 -31 -26 -44q9 -4 15 -11q16 15 42 15q25 0 38 -14q16 13 42 13t39 -14q16 15 43 15q26 0 39 -15q6 6 15 10 q-26 13 -26 40q0 29 31 41q-30 13 -30 43q0 21 19 33q-45 8 -44 49q1 20 17 31t37 11q49 0 49 -42q0 -25 -17 -39q43 -3 43 -45z" />
<glyph unicode="B" d="M462 539q-1 -35 -30 -46q19 -11 19 -35q0 -49 -49 -49q-22 0 -38 13.5t-16 35.5q1 30 34 40q-23 14 -23 41q0 20 18 32q15 10 36 10q49 0 49 -42zM475 220q0 -29 -30 -46q28 -10 27 -40q-1 -49 -48 -49q-22 0 -38.5 13.5t-15.5 35.5q0 25 27 37q-25 13 -25 40q0 24 20 36 q-19 2 -33 16t-13 33q0 20 16.5 31t37.5 11q49 0 48 -42q0 -26 -18 -40q45 0 45 -36zM400 620q-1 -21 -15 -35t-35 -14q-24 0 -41 18q-14 -18 -39 -18t-41 17q-14 -18 -39 -18q-27 0 -44 19q-6 -8 -16 -12q26 -10 26 -39q0 -28 -23 -41q21 -14 21 -40q0 -27 -21 -40 q7 -6 13 -13q18 14 47 14q21 0 34 -9q12 9 29 9q27 0 45 -18q16 20 46 20q50 0 49 -43q0 -21 -14.5 -35t-35.5 -14q-20 0 -36 13q-13 -12 -35 -12q-37 0 -55 24q-18 -24 -46 -24q-20 0 -33 16q-6 -7 -14 -11q24 -10 24 -39q0 -30 -25 -43q24 -10 24 -38q0 -30 -24 -42 q22 -11 22 -39q0 -30 -24 -42l14 -11q16 15 42 15q25 0 39 -15q16 15 42 15q25 0 39 -15q16 15 42 15q48 0 48 -42q-1 -21 -14.5 -35t-35.5 -14q-24 0 -41 18q-14 -18 -39 -18q-26 0 -42 18q-14 -18 -39 -18q-23 0 -40 15q-11 -24 -35 -24q-22 0 -41.5 18.5t-19.5 40.5 q0 24 31 37q-28 13 -28 41t29 40q-27 13 -27 40q0 28 29 40q-28 13 -28 42q0 27 27 39q-27 11 -27 37q0 30 27 46q-25 14 -25 43q0 27 24 40q-22 14 -22 38q0 26 26 39q-27 11 -27 33t20 39.5t42 17.5q20 0 34 -17q18 16 44 16q25 0 37 -17q17 14 42 14t39 -15q16 15 42 15 q48 0 48 -42z" />
<glyph unicode="C" d="M462 539q-1 -49 -50 -49q-22 0 -37.5 13.5t-15.5 35.5q1 20 17 31t37 11q49 0 49 -42zM400 620q-1 -21 -15 -35t-35 -14q-24 0 -41 18q-14 -18 -39 -18t-41 17q-14 -18 -39 -18q-10 0 -19 2q13 -16 13 -36q0 -43 -42 -46q12 -13 12 -32q0 -28 -21 -41q20 -13 20 -39 q0 -31 -26 -44q24 -10 24 -39q0 -30 -25 -43q24 -10 24 -38q0 -23 -17 -38q43 -3 43 -47q0 -18 -10 -35q8 2 16 2q23 0 37 -16q16 15 42 15q25 0 39 -15q16 15 42 15q48 0 48 -42q-1 -21 -14.5 -35t-35.5 -14q-24 0 -41 18q-14 -18 -39 -18q-26 0 -42 18q-14 -18 -37 -18 q-21 0 -39 13.5t-18 33.5q0 12 9 24q-23 0 -41.5 18t-18.5 40q0 21 19 33q-44 9 -44 47q0 27 29 39q-28 13 -28 42q0 27 27 39q-27 11 -27 37q0 30 27 46q-25 14 -25 42q0 42 43 48q-15 13 -15 31q0 22 17.5 37.5t39.5 15.5q5 0 11 -1q-13 14 -13 29q0 20 19 34t40 14 q24 0 36 -18q17 14 42 14t39 -15q16 15 42 15q48 0 48 -42zM454 134q0 -49 -48 -49q-22 0 -38.5 13.5t-15.5 35.5q0 20 17 31t38 11q48 0 47 -42z" />
<glyph unicode="D" d="M479 456q0 -28 -25 -41q24 -8 24 -31q0 -31 -30 -48q27 -10 27 -41q0 -29 -23 -42q23 -8 23 -30q0 -17 -11.5 -32.5t-27.5 -21.5q19 -11 18 -35q-1 -49 -48 -49q-22 0 -38 13.5t-16 35.5q0 32 39 41q-20 14 -20 36q0 29 31 41q-29 13 -29 42q0 27 27 39q-26 13 -26 40 q0 29 31 41q-30 13 -30 43q0 23 22 35q-39 11 -38 47q1 20 17 31t37 11q49 0 49 -42q0 -26 -18 -40q35 -7 35 -43zM400 620q-1 -21 -15 -35t-35 -14q-24 0 -41 18q-14 -18 -39 -18t-41 17q-14 -18 -39 -18q-27 0 -44 19q-6 -8 -16 -12q26 -10 26 -39q0 -28 -23 -41 q21 -14 21 -40q0 -27 -21 -40q20 -13 20 -39q0 -31 -26 -44q24 -10 24 -39q0 -30 -25 -43q24 -10 24 -38q0 -30 -24 -42q22 -11 22 -39q0 -30 -24 -42q8 -5 14 -11q16 15 42 15q25 0 39 -15q16 15 42 15q25 0 39 -15q16 15 42 15q48 0 48 -42q-1 -21 -14.5 -35t-35.5 -14 q-24 0 -41 18q-14 -18 -39 -18q-26 0 -42 18q-14 -18 -39 -18q-23 0 -40 15q-11 -24 -35 -24q-22 0 -41.5 18.5t-19.5 40.5q0 24 31 37q-28 13 -28 41t29 40q-27 13 -27 40q0 28 29 40q-28 13 -28 42q0 27 27 39q-27 11 -27 37q0 30 27 46q-25 14 -25 43q0 27 24 40 q-22 14 -22 38q0 26 26 39q-27 11 -27 33t20 39.5t42 17.5q20 0 34 -17q18 16 44 16q25 0 37 -17q17 14 42 14t39 -15q16 15 42 15q48 0 48 -42z" />
<glyph unicode="E" d="M481 620q-1 -49 -45 -49q-25 0 -44 21q-13 -21 -41 -21q-26 0 -42 18q-14 -18 -39 -18t-41 17q-14 -18 -39 -18q-27 0 -44 19q-6 -8 -16 -12q26 -10 26 -39q0 -28 -23 -41q21 -14 21 -40q0 -27 -21 -40l13 -13q18 14 47 14q21 0 34 -9q12 9 29 9q27 0 45 -18q16 19 46 19 q50 0 49 -42q0 -21 -14.5 -35t-35.5 -14q-20 0 -36 13q-13 -12 -35 -12q-37 0 -55 24q-18 -24 -46 -24q-20 0 -33 16q-6 -7 -14 -11q24 -10 24 -39q0 -30 -25 -43q24 -10 24 -38q0 -30 -24 -42q22 -11 22 -39q0 -30 -24 -42l14 -11q16 15 42 15q25 0 39 -15q16 15 42 15 q25 0 39 -15q16 15 42 15t40 -15q18 16 48 16q42 0 42 -31q0 -23 -18 -42t-40 -19q-21 0 -34 17q-15 -17 -39 -17q-26 0 -42 18q-14 -18 -39 -18q-26 0 -42 18q-14 -18 -39 -18q-23 0 -40 15q-11 -24 -35 -24q-22 0 -41.5 18.5t-19.5 40.5q0 24 31 37q-28 13 -28 41t29 40 q-27 13 -27 40q0 28 29 40q-28 13 -28 42q0 27 27 39q-27 11 -27 37q0 30 27 46q-25 13 -25 43q0 27 24 40q-22 14 -22 38q0 26 26 39q-27 11 -27 33t20 39.5t42 17.5q20 0 34 -17q18 16 44 16q25 0 37 -17q17 14 42 14t39 -15q16 15 42 15q22 0 36 -11q14 12 39 12 q54 0 54 -43z" />
<glyph unicode="F" d="M481 620q-1 -49 -45 -49q-25 0 -44 21q-13 -21 -41 -21q-26 0 -42 18q-14 -18 -39 -18t-41 17q-14 -18 -39 -18q-27 0 -44 19q-6 -8 -16 -12q26 -10 26 -39q0 -28 -23 -41q21 -14 21 -40q0 -27 -21 -40q7 -6 13 -13q18 14 47 14q21 0 34 -9q12 9 29 9q27 0 45 -18 q16 19 46 19q50 0 49 -42q0 -21 -14.5 -35t-35.5 -14q-20 0 -36 13q-13 -12 -35 -12q-37 0 -55 24q-18 -24 -46 -24q-20 0 -33 16q-6 -7 -14 -11q24 -10 24 -39q0 -30 -25 -43q24 -10 24 -38q0 -30 -24 -42q22 -11 22 -39q0 -30 -24 -42q23 -12 23 -38q-2 -58 -44 -58 q-24 0 -41 17.5t-17 40.5q0 26 29 38q-28 13 -28 41t29 40q-27 13 -27 40q0 28 29 40q-28 13 -28 42q0 27 27 39q-27 11 -27 37q0 30 27 46q-25 14 -25 43q0 27 24 40q-22 14 -22 38q0 26 26 39q-27 11 -27 33t20 39.5t42 17.5q20 0 34 -17q18 16 44 16q25 0 37 -17 q17 14 42 14t39 -15q16 15 42 15q22 0 36 -11q14 12 39 12q54 0 54 -43z" />
<glyph unicode="G" d="M475 222q0 -35 -33 -50q21 -11 21 -37q0 -25 -16.5 -43t-40.5 -18q-6 0 -13 1q1 -4 1 -9q0 -21 -22.5 -40.5t-43.5 -19.5q-18 0 -30 14q-14 -16 -38 -16q-26 0 -42 18q-14 -18 -38 -18q-22 0 -38.5 14t-16.5 36q0 13 6 28q-6 -2 -13 -2q-21 0 -37.5 15.5t-16.5 36.5 q0 24 21 36q-37 10 -37 45q0 27 29 39q-28 13 -28 42q0 27 27 39q-27 11 -27 37q0 30 27 46q-25 14 -25 42q0 41 43 47q-18 14 -18 35q0 24 20 40t44 12q-4 12 -4 23q0 21 16.5 34.5t38.5 13.5q24 0 38 -16q16 15 42 15q25 0 39 -15q16 15 42 15q48 0 48 -42q-1 -21 -15 -35 t-35 -14q-24 0 -41 18q-14 -18 -39 -18q-23 0 -40 15q-14 -24 -44 -24h-10q3 -9 3 -20q0 -43 -40 -49q15 -13 15 -36q0 -27 -21 -40q20 -13 20 -39q0 -31 -26 -44q24 -10 24 -39q0 -30 -25 -43q24 -10 24 -38q0 -25 -19 -39q35 -7 35 -42q0 -14 -6 -28q6 2 14 2q30 0 46 -25 q17 13 42 13t39 -16q21 18 49 18q7 0 14 -1q-6 11 -6 23q0 38 38 53q-25 12 -25 39q0 29 31 41q-11 4 -18 13q-13 -18 -38 -18q-26 0 -42 17q-12 -17 -32 -17t-38.5 14.5t-22.5 34.5q-5 19 15 31q16 10 37 10q27 0 40 -14q16 15 43 15q26 0 39 -15q16 15 42 15q49 0 48 -42 q0 -30 -23 -43q23 -8 23 -31z" />
<glyph unicode="H" d="M481 620q0 -32 -23 -44q22 -11 22 -38q0 -30 -25 -42q23 -11 23 -39q0 -30 -24 -42q24 -8 24 -31q0 -31 -30 -48q27 -10 27 -41q0 -29 -23 -42q23 -8 23 -31q0 -32 -30 -48q27 -10 27 -42q0 -26 -20 -39q20 -8 20 -29q0 -4 -1 -11q-13 -49 -56 -49q-21 0 -33.5 14 t-12.5 35q0 25 30 37q-29 13 -29 42q0 27 27 39q-26 13 -26 40q0 29 31 41q-29 13 -29 42q0 27 27 39q-9 4 -15 12q-13 -17 -38 -17q-22 0 -37 13q-13 -12 -35 -12q-37 0 -55 24q-18 -24 -46 -24q-20 0 -33 16q-6 -7 -14 -11q24 -10 24 -39q0 -30 -25 -43q24 -10 24 -38 q0 -30 -24 -42q22 -11 22 -39q0 -30 -24 -42q23 -12 23 -38q-2 -58 -44 -58q-23 0 -40.5 17.5t-17.5 40.5q0 26 29 38q-28 13 -28 41t29 40q-27 13 -27 40q0 28 29 40q-28 13 -28 42q0 27 27 39q-27 11 -27 37q0 30 27 46q-25 14 -25 43q0 27 24 40q-22 14 -22 38 q0 26 26 39q-26 11 -26 35q0 22 18.5 37.5t40.5 15.5q45 0 45 -44q-1 -30 -27 -43q26 -10 26 -39q0 -28 -23 -41q21 -14 21 -40q0 -27 -21 -40q7 -6 13 -13q18 14 47 14q21 0 34 -9q12 9 29 9q27 0 45 -18q16 19 46 19q26 0 40 -16q7 7 18 11q-30 13 -30 42q0 28 29 40 q-27 13 -27 40q0 32 33 43q-27 13 -32 41q-4 21 12 32t37 11q54 0 54 -43z" />
<glyph unicode="I" d="M400 620q-1 -21 -15 -35t-35 -14q-24 0 -41 18q-6 -8 -15 -12q24 -11 24 -39q0 -30 -25 -42q24 -11 24 -38q0 -36 -32 -47q33 -16 33 -49q0 -24 -27 -31q22 -10 22 -38q0 -29 -23 -41q22 -11 22 -38q0 -28 -22 -41q21 -9 21 -32q0 -36 -31 -48q12 -4 20 -13q16 15 42 15 q48 0 48 -42q-1 -21 -14.5 -35t-35.5 -14q-24 0 -41 18q-14 -18 -39 -18q-26 0 -42 18q-14 -18 -38 -18q-22 0 -38 13.5t-16 35.5q0 20 18 32q15 10 36 10q25 0 39 -15q9 9 22 13q-33 11 -33 40q0 26 30 38q-28 13 -28 41q0 32 33 43q-32 17 -32 45q0 27 35 35 q-34 12 -34 45q0 26 27 36q-26 13 -26 40q0 28 29 40q-27 13 -27 41t29 40q-9 4 -15 11q-14 -18 -38 -18q-23 0 -39.5 14t-16.5 36q0 20 18 33t39 13q25 0 37 -18q17 14 42 14t39 -15q16 15 42 15q48 0 48 -42z" />
<glyph unicode="J" d="M481 620q-2 -49 -45 -49q-25 0 -44 21q-7 -12 -19 -17q26 -9 26 -40q0 -27 -22 -39q23 -7 23 -26q0 -33 -36 -52q32 -9 32 -43q0 -29 -24 -41q22 -11 22 -39q0 -30 -24 -42q23 -12 23 -38q0 -45 -43 -49q14 -11 14 -34q0 -22 -14 -39t-36 -17q-5 0 -12 1q8 -12 8 -25 q0 -20 -16 -34t-37 -14q-22 0 -39 18q-14 -18 -37 -18q-21 0 -39 13.5t-18 33.5q0 13 10 25q-23 -2 -42 15.5t-19 40.5q0 22 19 34q-45 8 -44 49q0 20 17 30.5t38 10.5q48 0 47 -41q0 -25 -17 -39q43 -3 43 -46q0 -19 -11 -36q9 2 18 2q22 0 36 -16q17 16 40 16q7 0 15 -2 q-13 17 -13 35q0 43 49 47q-19 15 -19 36q0 29 28 41q-27 13 -27 41t28 40q-27 13 -27 41q0 27 27 39q-26 11 -26 37q0 34 38 45q-36 17 -36 48q0 23 31 32q-11 4 -18 13q-14 -18 -39 -18q-21 0 -37.5 14t-16.5 35q0 20 17 31t38 11q25 0 39 -15q16 15 42 15q22 0 36 -11 q14 12 39 12q55 0 54 -43z" />
<glyph unicode="K" d="M481 620q0 -49 -44 -49q-21 0 -38 14.5t-21 34.5q-4 21 12 32t37 11q54 0 54 -43zM399 539q0 -49 -43 -49q-21 0 -38.5 14t-21.5 35q-4 19 16 30q16 10 36 10q51 0 51 -40zM316 458q0 -25 -17.5 -41t-42.5 -16q-45 0 -45 42q0 25 18 41t44 16q43 0 43 -42zM472 63 q0 -3 -1 -10q-12 -49 -49 -49q-22 0 -39 17t-17 39q0 13 7 25q-25 -1 -41 14t-16 40q0 14 6 28q-8 -1 -15 -1q-23 0 -37.5 15t-14.5 38q0 7 1 15q-26 -5 -49 16t-23 48q0 8 3 16q-30 -3 -48 30l-12 -10q24 -10 24 -39q0 -30 -25 -43q24 -10 24 -38q0 -30 -24 -42 q22 -11 22 -39q0 -30 -24 -42q23 -11 23 -38q-2 -58 -44 -58q-24 0 -41.5 17.5t-16.5 40.5q1 26 29 38q-28 13 -28 41t29 40q-27 13 -27 40q0 28 29 40q-28 13 -28 42q0 27 27 39q-27 11 -27 37q0 30 27 46q-25 14 -25 43q0 27 24 40q-22 14 -22 38q0 26 26 39 q-26 10 -26 35q0 23 18.5 38t40.5 15q45 0 45 -44q0 -30 -27 -43q26 -10 26 -39q0 -28 -23 -41q21 -14 21 -40q0 -27 -21 -40l12 -12q19 15 44 15q45 0 45 -39q0 -17 -13 -40q8 1 14 1q52 0 52 -59q0 -9 -2 -17q8 3 17 3q22 0 38.5 -16.5t16.5 -38.5q0 -12 -5 -22 q26 4 46 -14.5t20 -44.5q0 -14 -7 -26q23 1 42 -11t19 -33z" />
<glyph unicode="L" d="M472 65q0 -23 -18 -42t-40 -19q-21 0 -34 17q-15 -17 -39 -17q-26 0 -42 18q-14 -18 -39 -18q-26 0 -42 18q-14 -18 -39 -18q-23 0 -40 15q-11 -24 -35 -24q-22 0 -41.5 18.5t-19.5 40.5q0 24 31 37q-28 13 -28 41t29 40q-27 13 -27 40q0 28 29 40q-28 13 -28 42 q0 27 27 39q-27 11 -27 37q0 30 27 46q-25 13 -25 43q0 27 24 40q-22 14 -22 38q0 26 26 39q-26 11 -26 35q0 22 18.5 37.5t40.5 15.5q45 0 45 -44q-1 -31 -27 -43q26 -10 26 -39q0 -28 -23 -41q21 -14 21 -40q0 -27 -21 -40q20 -13 20 -39q0 -31 -26 -44q24 -10 24 -39 q0 -30 -25 -43q24 -10 24 -38q0 -30 -24 -42q22 -11 22 -39q0 -30 -24 -42q8 -5 14 -11q16 15 42 15q25 0 39 -15q16 15 42 15q25 0 39 -15q16 15 42 15t40 -15q18 16 48 16q42 0 42 -31z" />
<glyph unicode="M" d="M481 620q0 -36 -28 -46q18 -12 18 -38q0 -23 -13 -42q20 -11 20 -36q0 -31 -24 -44q23 -8 23 -31q0 -30 -31 -47q29 -9 29 -42q0 -28 -23 -41q23 -8 23 -31q0 -32 -30 -48q27 -10 27 -42q0 -26 -20 -39q20 -8 20 -29q0 -4 -1 -11q-13 -49 -56 -49q-21 0 -33.5 14 t-12.5 35q0 25 30 37q-29 13 -29 42q0 27 27 39q-26 13 -26 40q0 29 31 41q-29 13 -29 42q0 25 24 38q-16 5 -25 20q-13 -24 -43 -24q-22 0 -38 13.5t-16 35.5q1 32 38 41q-20 13 -20 34q0 41 52 47q-25 13 -31 40q-5 20 16 31q17 9 38 9q14 0 24 -5q7 4 15 6q-24 14 -29 40 q-4 21 12 32t37 11q54 0 54 -43zM313 296q-1 -49 -43 -49q-21 0 -38 14.5t-21 34.5q-5 19 15 31q16 10 37 10q51 0 50 -41zM263 389q0 -7 -2 -12q-17 -48 -60 -48q-34 0 -42 35q-6 -23 -29 -31q21 -12 21 -38q0 -30 -25 -43q24 -10 24 -38q0 -30 -24 -42q22 -11 22 -39 q0 -30 -24 -42q23 -12 23 -38q-2 -58 -44 -58q-23 0 -40.5 17.5t-17.5 40.5q0 26 29 38q-28 13 -28 41t29 40q-27 13 -27 40q0 28 29 40q-28 13 -28 42q0 27 27 40q-27 11 -27 37q0 28 28 45q-26 13 -26 43q0 25 21 39q-10 17 -10 36q0 28 23 40q-32 9 -32 36 q0 23 18.5 38.5t40.5 15.5q45 0 45 -44q-1 -28 -23 -40l9 -4q14 6 28 6q20 0 34.5 -13t14.5 -33q0 -22 -19 -37q35 -7 35 -43q0 -23 -19 -38q46 1 46 -29zM402 415q-12 6 -20 18q-11 -14 -26 -19q11 -6 17 -16q10 11 29 17zM154 492h-2l-2 -2zM180 409q-23 2 -36 18 q-4 -5 -8 -9q20 -9 24 -29q6 12 20 20z" />
<glyph unicode="N" d="M481 620q0 -32 -23 -44q22 -11 22 -38q0 -30 -25 -42q23 -11 23 -39q0 -30 -24 -42q24 -8 24 -31q0 -31 -30 -48q27 -10 27 -41q0 -29 -23 -42q23 -8 23 -31q0 -35 -34 -51q22 -11 22 -38q0 -25 -18 -39q27 -7 27 -30q0 -4 -1 -11q-13 -49 -56 -49q-21 0 -33.5 14 t-12.5 35q0 23 25 35q-33 12 -33 44q0 30 32 41q-6 4 -11 10q-14 -18 -36 -18t-39 15.5t-17 37.5q0 15 8 29q-42 9 -42 53q0 17 9 31q-45 11 -45 47q0 12 9 23q-19 5 -35.5 21t-16.5 35q0 10 6 20q-23 0 -41 20l-4 -3q16 -13 16 -37q0 -27 -21 -40q20 -13 20 -39 q0 -31 -26 -44q24 -10 24 -39q0 -30 -25 -43q24 -10 24 -38q0 -30 -24 -42q22 -11 22 -39q0 -30 -24 -42q23 -12 23 -38q-2 -58 -44 -58q-24 0 -41 17.5t-17 40.5q0 26 29 38q-28 13 -28 41t29 40q-27 13 -27 40q0 28 29 40q-28 13 -28 42q0 27 27 39q-27 11 -27 37 q0 30 27 46q-25 14 -25 43q0 31 29 42q-18 15 -18 36q0 25 23 37q-32 9 -32 37q0 22 18.5 37.5t40.5 15.5q45 0 45 -44q-1 -28 -23 -40q7 -3 14 -7q17 10 34 10q20 0 33 -13.5t13 -34.5q0 -17 -10 -36q5 1 11 1q22 0 38 -15.5t16 -37.5q0 -15 -9 -29q18 -2 36 -19t18 -35 q0 -10 -6 -18q37 -14 37 -51q0 -15 -9 -28q23 -6 35 -25q7 6 17 10q-29 13 -29 42q0 27 27 39q-26 13 -26 40q0 29 31 41q-30 13 -30 42q0 28 29 40q-27 13 -27 40q0 32 33 43q-27 13 -32 41q-4 21 12 32t37 11q54 0 54 -43z" />
<glyph unicode="O" d="M479 455q0 -27 -25 -40q24 -8 24 -31q0 -31 -30 -48q27 -10 27 -41q0 -29 -23 -42q23 -8 23 -30q0 -18 -14 -35t-32 -21q16 -11 16 -34q0 -22 -14.5 -39.5t-35.5 -17.5q-6 0 -13 2q9 -11 9 -26q0 -20 -16 -34.5t-37 -14.5q-22 0 -39 19q-14 -18 -39 -18q-26 0 -42 18 q-14 -18 -37 -18q-21 0 -39 13.5t-18 33.5q0 12 9 24q-23 0 -41.5 18t-18.5 40q0 21 19 33q-44 9 -44 47q0 27 29 39q-28 13 -28 42q0 27 27 39q-27 11 -27 37q0 30 27 46q-25 14 -25 42q0 41 42 47q-14 14 -14 30q0 23 20 40.5t43 19.5q-7 12 -7 23q0 21 18 34.5t40 13.5 q24 0 36 -18q17 14 42 14t39 -15q17 16 40 16q20 0 35.5 -11.5t15.5 -31.5q0 -13 -9 -28q24 2 43 -15t19 -41q0 -21 -18 -36q43 -3 43 -45zM405 414q-30 13 -30 43q0 21 19 33q-45 8 -45 52q0 15 8 29q-29 -3 -48 18q-14 -18 -39 -18t-41 17q-13 -18 -36 -18q-6 0 -12 1 q3 -10 3 -21q0 -51 -43 -60q13 -12 13 -32q0 -28 -21 -41q20 -13 20 -39q0 -31 -26 -44q24 -10 24 -39q0 -30 -25 -43q24 -10 24 -38q0 -23 -17 -38q43 -3 43 -47q0 -18 -10 -35q8 2 16 2q23 0 37 -16q16 15 42 15q25 0 39 -15q17 16 39 16q9 0 19 -2q-15 18 -15 38 q0 40 46 44q-18 14 -18 35q0 29 31 41q-29 13 -29 42q0 27 27 39q-26 13 -26 40q0 29 31 41z" />
<glyph unicode="P" d="M479 457q0 -41 -41 -48q13 -9 13 -25q0 -23 -19.5 -40.5t-42.5 -15.5q6 -15 6 -29q0 -22 -14 -37.5t-36 -15.5q-24 0 -41 18q-12 -17 -33 -17q-27 0 -46 21q-14 -21 -41 -21t-43 18q-6 -9 -15 -13q24 -10 24 -38q0 -30 -24 -42q22 -11 22 -39q0 -30 -24 -42 q23 -12 23 -38q-2 -58 -44 -58q-24 0 -41 17.5t-17 40.5q0 26 29 38q-28 13 -28 41t29 40q-27 13 -27 40q0 28 29 40q-28 13 -28 42q0 27 27 39q-27 11 -27 37q0 30 27 46q-25 14 -25 43q0 27 24 40q-22 14 -22 38q0 26 26 39q-27 11 -27 33t20 39.5t42 17.5q20 0 34 -17 q18 16 44 16q25 0 37 -17q17 14 42 14t39 -15q18 16 42 16q48 0 48 -44q0 -16 -9 -34q24 2 43.5 -11.5t19.5 -37.5q0 -20 -18 -36q43 -3 43 -43zM397 418q-22 14 -22 38q0 22 19 34q-18 4 -31.5 18.5t-13.5 32.5q0 10 5 20q-28 0 -46 26q-14 -16 -38 -16q-25 0 -41 17 q-14 -18 -39 -18q-27 0 -44 19q-6 -8 -16 -12q26 -10 26 -39q0 -28 -23 -41q21 -14 21 -40q0 -27 -21 -40q20 -13 20 -39q0 -31 -26 -44q9 -4 15 -11q16 15 42 15q25 0 38 -14q16 13 42 13q24 0 37 -13q20 28 52 30q-7 10 -7 21q0 38 51 43z" />
<glyph unicode="Q" d="M400 620q-1 -21 -15 -35t-35 -14q-24 0 -41 18q-14 -18 -39 -18t-41 17q-14 -18 -38 -18q-23 0 -39.5 14t-16.5 36q0 20 18 33t39 13q25 0 37 -18q17 14 42 14t39 -15q16 15 42 15q48 0 48 -42zM480 539q-1 -30 -25 -43q23 -11 23 -39q0 -30 -24 -42q24 -8 24 -31 q0 -31 -30 -48q27 -10 27 -41q0 -29 -23 -42q23 -8 23 -30q0 -18 -14 -35t-32 -21q16 -11 16 -34t-16 -37q43 0 43 -32q0 -22 -18.5 -41.5t-39.5 -19.5q-20 0 -34 18q-15 -17 -39 -17q-26 0 -42 18q-14 -18 -39 -18q-26 0 -42 18q-14 -18 -38 -18q-22 0 -38 13.5t-16 35.5 q0 20 18 32q15 10 36 10q25 0 39 -15q16 15 42 15q25 0 39 -15l6 5q-18 3 -31.5 17t-13.5 31q0 15 12 27q-9 -3 -19 -3q-22 0 -38 13.5t-15 35.5q0 20 16.5 31t37.5 11q48 0 48 -42q0 -21 -12 -34q12 4 26 4q25 0 38 -15q13 13 34 15q-18 14 -18 35q0 29 31 41 q-29 13 -29 42q0 27 27 39q-26 13 -26 40q0 29 31 41q-30 13 -30 42q0 28 29 40q-28 13 -27 43q1 20 17 31t37 11q49 0 49 -42zM156 539q0 -29 -23 -42q21 -14 21 -40q0 -27 -21 -40q20 -13 20 -39q0 -31 -26 -44q24 -10 24 -39q0 -30 -25 -43q24 -10 24 -38q0 -30 -24 -42 q23 -12 22 -38q-1 -49 -48 -49q-22 0 -38 13.5t-16 35.5q0 26 29 38q-27 13 -27 40q0 28 29 40q-28 13 -28 42q0 27 27 39q-27 11 -27 37q0 30 27 46q-25 14 -25 43q0 27 24 40q-23 15 -22 40q1 20 17 31t37 11q49 0 49 -42zM389 85q-22 3 -34 18q-3 -4 -8 -8q23 -1 35 -15z " />
<glyph unicode="R" d="M479 457q0 -41 -41 -48q12 -9 12 -25q0 -22 -18.5 -43t-40.5 -21q-8 0 -15 3q9 -11 9 -27q0 -27 -19 -40q37 -3 37 -30q0 -24 -23 -50q23 3 40 -9.5t17 -35.5q0 -16 -10 -31q45 -2 45 -36q0 -4 -1 -11q-13 -49 -55 -49q-47 0 -47 49q0 17 11 29q-19 3 -33 18t-14 33 q0 14 10 24q-19 1 -31 17t-12 36q0 27 24 38q-14 3 -24 11q-12 -12 -29 -12q-27 0 -46 21q-14 -21 -41 -21t-43 18q-6 -9 -15 -13q24 -10 24 -38q0 -30 -24 -42q22 -11 22 -39q0 -30 -24 -42q23 -12 23 -38q-2 -58 -44 -58q-24 0 -41 17.5t-17 40.5q0 26 29 38 q-28 13 -28 41t29 40q-27 13 -27 40q0 28 29 40q-28 13 -28 42q0 27 27 39q-27 11 -27 37q0 30 27 46q-25 14 -25 43q0 27 24 40q-22 14 -22 38q0 26 26 39q-27 11 -27 33t20 39.5t42 17.5q20 0 34 -17q18 16 44 16q25 0 37 -17q17 14 42 14t39 -15q17 16 40 16 q20 0 35.5 -11.5t15.5 -31.5q0 -13 -9 -28q24 2 43 -15t19 -41q0 -21 -18 -36q43 -3 43 -43zM397 418q-22 14 -22 38q0 22 19 34q-45 8 -45 52q0 15 8 29q-29 -3 -48 18q-14 -18 -39 -18t-41 17q-14 -18 -39 -18q-27 0 -44 19q-6 -8 -16 -12q26 -10 26 -39q0 -28 -23 -41 q21 -14 21 -40q0 -27 -21 -40q20 -13 20 -39q0 -31 -26 -44q9 -4 15 -11q16 15 42 15q25 0 38 -14q16 13 42 13q21 0 35 -10q16 12 38 12q13 0 25 -5q-14 15 -15 43q-1 37 50 41z" />
<glyph unicode="S" d="M474 218q0 -38 -38 -50q18 -11 18 -34q0 -22 -15 -40t-38 -18q-6 0 -12 2q2 -9 2 -17q0 -23 -15.5 -40.5t-38.5 -17.5q-22 0 -38 19q-14 -18 -39 -18q-26 0 -42 18q-14 -18 -37 -18q-21 0 -39 13.5t-18 33.5q0 13 10 25q-5 -1 -12 -1q-22 0 -40 18t-18 40q0 23 21 35 q-38 10 -37 47q0 19 17 30t38 11q48 0 47 -41q0 -26 -19 -40q36 -8 36 -46q0 -21 -11 -38q11 4 24 4q25 0 39 -15q16 15 42 15q25 0 39 -14q24 27 58 22q-6 15 -6 27q0 38 42 45q-23 18 -23 51q0 12 5 22q-24 -3 -50 11t-25 38q-11 -14 -28 -14q-21 0 -43 18t-28 38 q-13 -8 -29 -8q-26 0 -46 15q-24 16 -24 40q0 11 7 23q-25 -2 -42 12t-17 38q0 40 43 46q-15 14 -15 31q0 24 21.5 40.5t45.5 12.5q-12 15 -12 29q0 20 19 34t40 14q24 0 36 -18q17 14 42 14t39 -15q17 16 39 16q20 0 36 -11.5t16 -31.5q0 -14 -10 -30q7 2 15 2 q22 0 39 -15.5t17 -37.5q-1 -49 -49 -49q-22 0 -38 13.5t-16 35.5q0 21 9 34q-8 -2 -17 -2q-26 0 -42 18q-14 -18 -39 -18t-41 17q-14 -18 -39 -18q-8 0 -15 1q9 -13 9 -30q0 -45 -43 -51q13 -12 13 -32q0 -15 -7 -27q29 3 55.5 -14t21.5 -45q10 2 23 2q24 0 42 -10 q21 -13 21 -36q14 20 40 20q24 0 43.5 -15t19.5 -39q0 -13 -8 -28q8 2 15 2q23 0 38.5 -13.5t15.5 -36.5z" />
<glyph unicode="T" d="M481 620q-1 -49 -45 -49q-25 0 -44 21q-13 -21 -41 -21q-26 0 -42 18q-6 -8 -15 -12q24 -11 24 -39q0 -30 -25 -42q24 -11 24 -38q0 -36 -32 -47q33 -16 33 -49q0 -24 -27 -31q22 -10 22 -38q0 -29 -23 -41q22 -11 22 -38q0 -28 -22 -41q21 -9 21 -32q0 -36 -31 -48 q29 -9 29 -40q-1 -49 -49 -49q-23 0 -38 13.5t-15 35.5q1 30 34 40q-33 11 -33 40q0 26 30 38q-28 13 -28 41q0 32 33 43q-32 17 -32 45q0 27 35 35q-35 12 -35 45q0 26 28 36q-26 13 -26 40q0 28 29 40q-27 13 -27 41t29 40q-9 4 -15 11q-14 -18 -39 -18q-27 0 -44 19 q-15 -18 -43 -18q-19 0 -33 10q-17 11 -17 29q0 23 18.5 39t41.5 16q22 0 35 -16q18 16 44 16q25 0 37 -17q17 14 42 14t39 -15q16 15 42 15q22 0 36 -11q14 12 39 12q54 0 54 -43z" />
<glyph unicode="U" d="M481 620q0 -32 -23 -44q22 -11 22 -38q0 -30 -25 -42q23 -11 23 -39q0 -30 -24 -42q24 -8 24 -31q0 -31 -30 -48q27 -10 27 -41q0 -29 -23 -42q23 -8 23 -30q0 -17 -11.5 -32.5t-27.5 -21.5q18 -12 18 -35q0 -22 -15 -40t-38 -18q-8 0 -16 3q6 -12 6 -25q0 -22 -15 -36.5 t-37 -14.5t-39 19q-15 -18 -40 -18q-26 0 -41 18q-15 -18 -38 -18q-22 0 -39 14t-17 35q0 10 5 20q-24 -3 -45 16.5t-21 43.5q0 23 21 35q-37 10 -37 45q0 27 29 39q-28 13 -28 42q0 27 27 39q-27 11 -27 37q0 30 27 46q-25 14 -25 43q0 27 24 40q-22 14 -22 38q0 26 26 39 q-26 11 -26 35q0 22 18.5 37.5t40.5 15.5q45 0 45 -44q-1 -30 -27 -43q26 -10 26 -39q0 -28 -23 -41q21 -14 21 -40q0 -27 -21 -40q20 -13 20 -39q0 -31 -26 -44q24 -10 24 -39q0 -30 -25 -43q24 -10 24 -38q0 -25 -19 -39q36 -8 36 -45q0 -16 -7 -32q8 3 15 3q29 0 45 -20 q16 14 41 14q24 0 38 -13q19 22 47 22q7 0 13 -1q-7 14 -7 27q0 36 39 45q-20 14 -20 36q0 29 31 41q-29 13 -29 42q0 27 27 39q-26 13 -26 40q0 29 31 41q-30 13 -30 42q0 28 29 40q-27 13 -27 40q0 32 33 43q-27 13 -32 41q-4 21 12 32t37 11q54 0 54 -43z" />
<glyph unicode="V" d="M481 620q0 -32 -23 -44q22 -11 22 -38q0 -30 -25 -42q23 -11 23 -39q0 -30 -24 -42q24 -8 24 -31q0 -18 -14 -34.5t-32 -20.5q17 -11 17 -33q0 -36 -32 -47q13 -9 13 -25q0 -25 -22.5 -47t-47.5 -22q5 -11 5 -23q0 -20 -15 -33.5t-36 -13.5h-11q6 -12 6 -32 q0 -49 -45 -49q-22 0 -39 13q-20 14 -20 34q0 17 15 35q-5 -1 -11 -1q-21 0 -38.5 13t-17.5 33q0 12 7 23q-22 1 -40.5 19.5t-18.5 40.5q0 21 20 33q-18 3 -31.5 16.5t-13.5 31.5q0 21 18 33q-45 4 -45 43q0 29 27 45q-25 14 -25 43q0 27 24 40q-22 14 -22 38q0 26 26 39 q-26 11 -26 35q0 22 18.5 37.5t40.5 15.5q45 0 45 -44q-1 -30 -27 -43q26 -10 26 -39q0 -28 -23 -41q21 -14 21 -40q0 -27 -21 -40q20 -13 20 -39q0 -25 -19 -40q19 0 32 -13t13 -32q0 -22 -19 -37q45 -2 45 -48q0 -16 -8 -33q6 2 12 2q20 0 34 -12t14 -31q0 -13 -8 -28 q10 5 19 5q-7 11 -7 22q0 20 19 32q16 11 37 11q5 0 11 -1q-5 12 -5 24q0 44 47 56q-24 13 -24 37q0 40 45 46q-18 14 -18 35q0 29 32 41q-30 13 -30 42q0 28 29 40q-27 13 -27 40q0 32 33 43q-27 13 -32 41q-4 21 12 32t37 11q54 0 54 -43z" />
<glyph unicode="W" d="M481 620q0 -32 -23 -44q22 -11 22 -38q0 -30 -25 -42q23 -11 23 -39q0 -30 -24 -42q24 -8 24 -31q0 -31 -30 -48q27 -10 27 -41q0 -29 -23 -42q23 -8 23 -30q0 -17 -11.5 -32.5t-27.5 -21.5q19 -12 19 -35q0 -22 -15.5 -36t-37.5 -13q11 -13 6 -32q-13 -49 -53 -49 q-20 0 -35.5 14t-15.5 34q0 15 10 29q-20 2 -36.5 17.5t-16.5 35.5t20 32q-13 2 -22 9q-10 -8 -21 -9q11 -9 11 -25q0 -21 -17 -39.5t-38 -18.5q7 -12 7 -30q0 -58 -42 -58q-22 0 -41.5 17t-19.5 39q0 18 14 34q-19 1 -33.5 15t-14.5 33q0 22 21 35q-37 10 -37 45 q0 27 29 39q-28 13 -28 42q0 27 27 39q-27 11 -27 37q0 30 27 46q-25 14 -25 43q0 27 24 40q-22 14 -22 38q0 26 26 39q-26 11 -26 35q0 22 18.5 37.5t40.5 15.5q45 0 45 -44q-1 -30 -27 -43q26 -10 26 -39q0 -28 -23 -41q21 -14 21 -40q0 -27 -21 -40q20 -13 20 -39 q0 -31 -26 -44q24 -10 24 -39q0 -30 -25 -43q24 -10 24 -38q0 -25 -19 -39q17 -3 26 -14q18 15 44 16q-28 19 -28 41q0 18 17 29q14 9 33 9q12 0 23 -3q-35 16 -35 47q0 27 35 35q-35 12 -35 45q0 26 28 36q-27 13 -26 42q1 20 19 32q15 10 36 10q48 0 48 -42q0 -36 -31 -47 q33 -16 33 -49q0 -24 -27 -31q22 -10 22 -38q0 -22 -15 -36q41 -4 41 -45q0 -21 -17 -36q26 -2 37 -20q11 14 32 19q-20 14 -20 36q0 29 31 41q-29 13 -29 42q0 27 27 39q-26 13 -26 40q0 29 31 41q-30 13 -30 42q0 28 29 40q-27 13 -27 40q0 32 33 43q-27 13 -32 41 q-4 21 12 32t37 11q54 0 54 -43zM364 103l-4 5l-3 -5h7z" />
<glyph unicode="X" d="M481 620q0 -49 -44 -49q-21 0 -38 14.5t-21 34.5q-4 21 12 32t37 11q54 0 54 -43zM253 458q-1 -49 -46 -49q-21 0 -38 12q-20 14 -20 33q0 12 8 24q-22 4 -41 23t-19 40q0 19 19 31q-5 -1 -12 -1q-51 0 -51 39q0 23 18 38.5t41 15.5q45 0 45 -44q-1 -26 -21 -40q6 1 12 1 q24 0 39.5 -17.5t15.5 -42.5q0 -10 -2 -21q21 2 36.5 -9t15.5 -33zM472 64q0 -4 -1 -11q-12 -49 -56 -49q-21 0 -33.5 14t-12.5 35q0 20 19 32q-23 -1 -38.5 12t-15.5 36q0 16 10 33q-21 0 -37.5 14.5t-16.5 34.5q0 19 18 32q-25 -2 -43 16q-13 -16 -36 -16q-22 0 -38.5 14 t-15.5 35q0 21 18 32t39 10q-21 15 -21 35q0 22 18.5 38.5t40.5 16.5q8 0 16 -2q-11 15 -11 28q0 24 25 36q21 11 45 9q-13 15 -13 40q0 20 18 32q15 10 36 10q49 0 49 -42q0 -24 -16 -41t-40 -16q3 -5 3 -12q0 -22 -20.5 -41.5t-42.5 -19.5q-8 0 -14 2q10 -12 10 -32 q0 -21 -11 -34q20 -2 33 -17t13 -35q0 -22 -17 -37q5 1 12 1q19 0 34 -11.5t15 -30.5q0 -13 -9 -28q22 -1 37 -17t15 -38t-18 -37q20 3 36.5 -4.5t16.5 -26.5zM231 215q0 -50 -45 -49q3 -6 3 -13q0 -22 -18 -43.5t-40 -23.5q16 -11 16 -33q-1 -58 -44 -58q-24 0 -41 17.5 t-17 40.5q1 42 53 42q-17 15 -17 34q0 22 21 38t45 17q-20 19 -20 36q0 18 19 28q16 8 35 8q51 0 50 -41z" />
<glyph unicode="Y" d="M481 620q0 -49 -44 -49q-4 0 -10 1q18 -11 18 -32q0 -20 -13.5 -37t-32.5 -21q9 -11 9 -25q0 -20 -16 -34t-37 -14q-5 0 -11 1q16 -11 16 -33q0 -24 -16.5 -38t-40.5 -11q10 -15 10 -33q0 -30 -24 -43q23 -11 23 -38q0 -28 -22 -41q21 -9 21 -32q0 -36 -31 -48 q29 -9 29 -40q-1 -49 -49 -49q-23 0 -38 13.5t-15 35.5q1 30 34 40q-33 11 -33 40q0 26 30 38q-28 13 -28 42t29 40q-28 15 -28 50q0 13 3 26q-20 0 -34 17.5t-14 38.5q0 14 7 24q-21 1 -35.5 15.5t-14.5 34.5q0 14 9 28q-20 1 -36.5 16t-16.5 35q0 21 19 33q-45 4 -45 39 q0 23 18.5 38.5t40.5 15.5q45 0 45 -44q-1 -25 -19 -39q46 -1 46 -44q0 -16 -11 -31q22 0 38 -13.5t16 -35.5q0 -14 -9 -28q37 -2 50 -26q17 17 41 17q7 0 16 -2q-22 15 -22 36q0 19 15 32t35 14q-13 17 -13 35q0 21 16 33.5t38 12.5q6 0 12 -1q-23 15 -28 40q-4 21 12 32 t37 11q54 0 54 -43zM261 356v2l-1 -1z" />
<glyph unicode="Z" d="M481 620q-1 -51 -45 -57q9 -10 9 -25q0 -19 -14.5 -36t-33.5 -20q3 -5 3 -12q0 -20 -21 -41.5t-41 -25.5q6 -7 6 -17q0 -21 -18.5 -41.5t-38.5 -20.5q2 -6 2 -13q0 -22 -16.5 -43t-38.5 -20q8 -10 8 -25q0 -21 -14 -39t-35 -18q-5 0 -9 2q4 -9 4 -19q0 -21 -17 -41.5 t-39 -22.5l6 -5q16 15 42 15q25 0 39 -15q16 15 42 15q25 0 39 -15q16 15 42 15t40 -15q18 16 48 16q42 0 42 -31q0 -23 -18 -42t-40 -19q-21 0 -34 17q-15 -17 -39 -17q-26 0 -42 18q-14 -18 -39 -18q-26 0 -42 18q-14 -18 -39 -18q-23 0 -40 15q-11 -24 -36 -24 q-23 0 -40.5 17.5t-17.5 40.5q0 20 17 31t37 11q-18 15 -18 34q0 25 24 41t50 14q-18 18 -18 36q0 22 22 34q19 11 42 11q-17 17 -17 34q0 21 22 34q19 11 42 12q-10 15 -10 28q0 23 21 35q18 11 42 10q-9 16 -7 40q5 39 60 41q-13 16 -13 36q0 24 17 36q-30 -4 -49 18 q-14 -18 -39 -18t-41 17q-14 -18 -39 -18q-27 0 -44 19q-15 -18 -43 -18q-19 0 -33 10q-17 11 -17 29q0 22 19 38.5t41 16.5t35 -16q18 16 44 16q25 0 37 -17q17 14 42 14t39 -15q16 15 42 15q22 0 37 -12q14 14 39 14q54 0 53 -44zM394 581l-4 7l-8 -8q6 1 12 1z" />
<glyph unicode="[" d="M411 620q0 43 -54 43q-26 0 -38 -15q-12 17 -37 17q-27 0 -44 -16q-14 17 -34 17q-22 0 -42 -17.5t-20 -39.5q0 -23 27 -33q-26 -14 -26 -39t22 -38q-24 -14 -24 -40q0 -30 25 -43q-27 -17 -27 -46q0 -27 27 -37q-27 -12 -27 -39q0 -29 28 -42q-29 -12 -29 -40 q0 -27 27 -40q-29 -12 -29 -40t28 -41q-31 -13 -31 -37q0 -22 19.5 -40.5t41.5 -18.5q24 0 35 24q16 -15 40 -15q25 0 41 17q14 -17 34 -17q11 0 21.5 5t18.5 13.5t13 19.5t5 23q0 31 -42 31q-31 0 -48 -16q-17 15 -42 15q-26 0 -42 -15l-14 11q24 12 24 42q0 29 -22 39 q24 12 24 42q0 27 -24 38q25 13 25 43q0 28 -24 39q29 7 32 36t-26 47q21 13 21 40q0 26 -21 40q23 14 23 41q0 28 -26 39q10 4 16 12q16 -19 44 -19q25 0 42 22q19 -21 44 -21q44 0 45 49z" />
<glyph unicode="\" d="M490 53q0 -23 -17 -40.5t-41 -17.5q-44 0 -44 58q0 19 8 32q-47 0 -47 45q0 25 21 41q-9 -4 -18 -4q-22 0 -36 18.5t-14 40.5q0 12 7 21q-23 -2 -37.5 12.5t-14.5 37.5q0 17 9 31q-46 4 -46 58q0 13 4 24q-23 0 -43.5 22.5t-20.5 45.5q0 7 3 13q-6 -1 -11 -1 q-43 0 -43 49q0 13 5 24q-25 -1 -42 15.5t-17 41.5q-1 43 45 43q23 0 40.5 -13.5t17.5 -35.5q0 -13 -6 -26q22 0 40 -10q20 -13 20 -34q0 -18 -17 -35q26 0 49.5 -15t23.5 -40q0 -10 -5 -21q22 -2 41.5 -19.5t19.5 -39.5q0 -16 -13 -29q50 -7 50 -44q0 -19 -19 -36 q24 0 43 -12q23 -13 23 -35t-26 -41q9 4 18 4q21 0 37.5 -14t16.5 -34q0 -16 -13 -30q19 -3 34 -17t15 -33z" />
<glyph unicode="]" d="M133 40q0 -43 54 -43q26 0 38 15q12 -17 37 -17q27 0 44 16q14 -17 34 -17q22 0 42 17.5t20 39.5q0 23 -27 33q26 14 26 39t-22 38q24 14 24 40q0 30 -25 43q27 17 27 46q0 27 -27 37q27 12 27 39q0 29 -28 42q29 12 29 40q0 27 -27 40q29 12 29 40t-28 41q31 13 31 37 q0 22 -19.5 40.5t-41.5 18.5q-24 0 -35 -24q-16 15 -40 15q-25 0 -41 -17q-14 17 -34 17q-11 0 -21.5 -5t-18.5 -13.5t-13 -19.5t-5 -23q0 -31 42 -31q31 0 48 16q17 -15 42 -15q26 0 42 15l14 -11q-24 -12 -24 -42q0 -29 22 -39q-24 -12 -24 -42q0 -27 24 -38 q-25 -13 -25 -43q0 -28 24 -39q-29 -7 -32 -36t26 -47q-21 -13 -21 -40q0 -26 21 -40q-23 -14 -23 -41q0 -28 26 -39q-10 -4 -16 -12q-16 19 -44 19q-25 0 -42 -22q-19 21 -44 21q-44 0 -45 -49z" />
<glyph unicode="^" d="M289 666q-42 -2 -42 -54q0 -48 42 -48q49 1 49 49q0 22 -13.5 37.5t-35.5 15.5zM208 584q-20 -2 -32 -21q-9 -18 -9 -39q0 -44 29 -44q9 0 12 1q48 16 48 59q0 45 -48 44zM127 501q-42 -2 -42 -54q0 -48 42 -48q49 1 49 49q0 23 -13.5 38.5t-35.5 14.5zM46 419 q-20 5 -30 -16q-10 -16 -10 -37q0 -50 40 -49q49 0 49 42q0 21 -14.5 38.5t-34.5 21.5zM370 587q-20 5 -31 -15q-10 -16 -10 -37q0 -51 41 -51q49 1 49 42q0 21 -14.5 38.5t-34.5 22.5zM451 507q-19 0 -33 -20q-10 -16 -10 -39q0 -50 43 -43q45 9 45 49q0 20 -13 37t-32 16z M532 427q-20 0 -31 -16.5t-11 -37.5q0 -50 42 -48q49 0 49 49q0 23 -13.5 38.5t-35.5 14.5z" />
<glyph unicode="_" d="M501 -33q0 31 -42 31q-31 0 -48 -16q-14 15 -40 15t-42 -15q-14 15 -39 15q-26 0 -42 -15q-14 15 -39 15q-26 0 -42 -15q-13 16 -39 16q-20 0 -36 -11q-18 -12 -18 -32q0 -23 17.5 -40.5t40.5 -17.5q25 0 36 24q16 -15 40 -15q25 0 39 18q16 -18 42 -18q25 0 39 18 q16 -18 42 -18q24 0 39 17q14 -17 34 -17q11 0 21.5 5t18.5 13.5t13 19.5t5 23z" />
<glyph unicode="`" horiz-adv-x="229" d="M198 580q0 -16 -13 -29.5t-28 -13.5q-16 0 -30.5 13t-17.5 28q-11 -12 -29 -10q-17 2 -30 13t-13 27t12 28.5t28 14.5q40 3 44 -39q13 11 32 10q17 -2 31.5 -13.5t13.5 -28.5z" />
<glyph unicode="a" d="M400 620q-1 -21 -15 -35t-35 -14q-24 0 -41 18q-14 -18 -39 -18t-41 17q-14 -18 -38 -18q-23 0 -39.5 14t-16.5 36q0 20 18 33t39 13q25 0 37 -18q17 14 42 14t39 -15q16 15 42 15q48 0 48 -42zM479 455q0 -27 -25 -40q24 -8 24 -31q0 -31 -30 -48q27 -10 27 -41 q0 -29 -23 -42q23 -8 23 -31q0 -32 -30 -48q27 -10 27 -42q0 -26 -20 -39q20 -8 20 -29q0 -4 -1 -11q-13 -49 -56 -49q-21 0 -33.5 14t-12.5 35q0 25 30 37q-29 13 -29 42q0 27 27 39q-26 13 -26 40q0 29 31 41q-11 4 -18 13q-13 -18 -38 -18q-26 0 -42 17q-12 -17 -33 -17 q-27 0 -46 21q-14 -21 -41 -21t-43 18q-6 -9 -15 -13q24 -10 24 -38q0 -30 -24 -42q22 -11 22 -39q0 -30 -24 -42q23 -12 23 -38q-2 -58 -44 -58q-23 0 -40.5 17.5t-17.5 40.5q0 26 29 38q-28 13 -28 41t29 40q-27 13 -27 40q0 28 29 40q-28 13 -28 42q0 27 27 39 q-27 11 -27 37q0 30 27 46q-25 14 -25 42q0 41 43 47q-15 14 -14 34t17 31t37 11q49 0 49 -42q0 -43 -42 -49q13 -12 13 -32q0 -28 -21 -41q20 -13 20 -39q0 -31 -26 -44q9 -4 15 -11q16 15 42 15q25 0 38 -14q16 13 42 13t39 -14q16 15 43 15q26 0 39 -15q6 6 15 10 q-26 13 -26 40q0 29 31 41q-30 13 -30 43q0 21 19 33q-45 8 -44 49q1 20 17 31t37 11q49 0 49 -42q0 -25 -17 -39q43 -3 43 -45z" />
<glyph unicode="b" d="M462 539q-1 -35 -30 -46q19 -11 19 -35q0 -49 -49 -49q-22 0 -38 13.5t-16 35.5q1 30 34 40q-23 14 -23 41q0 20 18 32q15 10 36 10q49 0 49 -42zM475 220q0 -29 -30 -46q28 -10 27 -40q-1 -49 -48 -49q-22 0 -38.5 13.5t-15.5 35.5q0 25 27 37q-25 13 -25 40q0 24 20 36 q-19 2 -33 16t-13 33q0 20 16.5 31t37.5 11q49 0 48 -42q0 -26 -18 -40q45 0 45 -36zM400 620q-1 -21 -15 -35t-35 -14q-24 0 -41 18q-14 -18 -39 -18t-41 17q-14 -18 -39 -18q-27 0 -44 19q-6 -8 -16 -12q26 -10 26 -39q0 -28 -23 -41q21 -14 21 -40q0 -27 -21 -40 q7 -6 13 -13q18 14 47 14q21 0 34 -9q12 9 29 9q27 0 45 -18q16 20 46 20q50 0 49 -43q0 -21 -14.5 -35t-35.5 -14q-20 0 -36 13q-13 -12 -35 -12q-37 0 -55 24q-18 -24 -46 -24q-20 0 -33 16q-6 -7 -14 -11q24 -10 24 -39q0 -30 -25 -43q24 -10 24 -38q0 -30 -24 -42 q22 -11 22 -39q0 -30 -24 -42l14 -11q16 15 42 15q25 0 39 -15q16 15 42 15q25 0 39 -15q16 15 42 15q48 0 48 -42q-1 -21 -14.5 -35t-35.5 -14q-24 0 -41 18q-14 -18 -39 -18q-26 0 -42 18q-14 -18 -39 -18q-23 0 -40 15q-11 -24 -35 -24q-22 0 -41.5 18.5t-19.5 40.5 q0 24 31 37q-28 13 -28 41t29 40q-27 13 -27 40q0 28 29 40q-28 13 -28 42q0 27 27 39q-27 11 -27 37q0 30 27 46q-25 14 -25 43q0 27 24 40q-22 14 -22 38q0 26 26 39q-27 11 -27 33t20 39.5t42 17.5q20 0 34 -17q18 16 44 16q25 0 37 -17q17 14 42 14t39 -15q16 15 42 15 q48 0 48 -42z" />
<glyph unicode="c" d="M462 539q-1 -49 -50 -49q-22 0 -37.5 13.5t-15.5 35.5q1 20 17 31t37 11q49 0 49 -42zM400 620q-1 -21 -15 -35t-35 -14q-24 0 -41 18q-14 -18 -39 -18t-41 17q-14 -18 -39 -18q-10 0 -19 2q13 -16 13 -36q0 -43 -42 -46q12 -13 12 -32q0 -28 -21 -41q20 -13 20 -39 q0 -31 -26 -44q24 -10 24 -39q0 -30 -25 -43q24 -10 24 -38q0 -23 -17 -38q43 -3 43 -47q0 -18 -10 -35q8 2 16 2q23 0 37 -16q16 15 42 15q25 0 39 -15q16 15 42 15q48 0 48 -42q-1 -21 -14.5 -35t-35.5 -14q-24 0 -41 18q-14 -18 -39 -18q-26 0 -42 18q-14 -18 -37 -18 q-21 0 -39 13.5t-18 33.5q0 12 9 24q-23 0 -41.5 18t-18.5 40q0 21 19 33q-44 9 -44 47q0 27 29 39q-28 13 -28 42q0 27 27 39q-27 11 -27 37q0 30 27 46q-25 14 -25 42q0 42 43 48q-15 13 -15 31q0 22 17.5 37.5t39.5 15.5q5 0 11 -1q-13 14 -13 29q0 20 19 34t40 14 q24 0 36 -18q17 14 42 14t39 -15q16 15 42 15q48 0 48 -42zM454 134q0 -49 -48 -49q-22 0 -38.5 13.5t-15.5 35.5q0 20 17 31t38 11q48 0 47 -42z" />
<glyph unicode="d" d="M479 456q0 -28 -25 -41q24 -8 24 -31q0 -31 -30 -48q27 -10 27 -41q0 -29 -23 -42q23 -8 23 -30q0 -17 -11.5 -32.5t-27.5 -21.5q19 -11 18 -35q-1 -49 -48 -49q-22 0 -38 13.5t-16 35.5q0 32 39 41q-20 14 -20 36q0 29 31 41q-29 13 -29 42q0 27 27 39q-26 13 -26 40 q0 29 31 41q-30 13 -30 43q0 23 22 35q-39 11 -38 47q1 20 17 31t37 11q49 0 49 -42q0 -26 -18 -40q35 -7 35 -43zM400 620q-1 -21 -15 -35t-35 -14q-24 0 -41 18q-14 -18 -39 -18t-41 17q-14 -18 -39 -18q-27 0 -44 19q-6 -8 -16 -12q26 -10 26 -39q0 -28 -23 -41 q21 -14 21 -40q0 -27 -21 -40q20 -13 20 -39q0 -31 -26 -44q24 -10 24 -39q0 -30 -25 -43q24 -10 24 -38q0 -30 -24 -42q22 -11 22 -39q0 -30 -24 -42q8 -5 14 -11q16 15 42 15q25 0 39 -15q16 15 42 15q25 0 39 -15q16 15 42 15q48 0 48 -42q-1 -21 -14.5 -35t-35.5 -14 q-24 0 -41 18q-14 -18 -39 -18q-26 0 -42 18q-14 -18 -39 -18q-23 0 -40 15q-11 -24 -35 -24q-22 0 -41.5 18.5t-19.5 40.5q0 24 31 37q-28 13 -28 41t29 40q-27 13 -27 40q0 28 29 40q-28 13 -28 42q0 27 27 39q-27 11 -27 37q0 30 27 46q-25 14 -25 43q0 27 24 40 q-22 14 -22 38q0 26 26 39q-27 11 -27 33t20 39.5t42 17.5q20 0 34 -17q18 16 44 16q25 0 37 -17q17 14 42 14t39 -15q16 15 42 15q48 0 48 -42z" />
<glyph unicode="e" d="M481 620q-1 -49 -45 -49q-25 0 -44 21q-13 -21 -41 -21q-26 0 -42 18q-14 -18 -39 -18t-41 17q-14 -18 -39 -18q-27 0 -44 19q-6 -8 -16 -12q26 -10 26 -39q0 -28 -23 -41q21 -14 21 -40q0 -27 -21 -40l13 -13q18 14 47 14q21 0 34 -9q12 9 29 9q27 0 45 -18q16 19 46 19 q50 0 49 -42q0 -21 -14.5 -35t-35.5 -14q-20 0 -36 13q-13 -12 -35 -12q-37 0 -55 24q-18 -24 -46 -24q-20 0 -33 16q-6 -7 -14 -11q24 -10 24 -39q0 -30 -25 -43q24 -10 24 -38q0 -30 -24 -42q22 -11 22 -39q0 -30 -24 -42l14 -11q16 15 42 15q25 0 39 -15q16 15 42 15 q25 0 39 -15q16 15 42 15t40 -15q18 16 48 16q42 0 42 -31q0 -23 -18 -42t-40 -19q-21 0 -34 17q-15 -17 -39 -17q-26 0 -42 18q-14 -18 -39 -18q-26 0 -42 18q-14 -18 -39 -18q-23 0 -40 15q-11 -24 -35 -24q-22 0 -41.5 18.5t-19.5 40.5q0 24 31 37q-28 13 -28 41t29 40 q-27 13 -27 40q0 28 29 40q-28 13 -28 42q0 27 27 39q-27 11 -27 37q0 30 27 46q-25 13 -25 43q0 27 24 40q-22 14 -22 38q0 26 26 39q-27 11 -27 33t20 39.5t42 17.5q20 0 34 -17q18 16 44 16q25 0 37 -17q17 14 42 14t39 -15q16 15 42 15q22 0 36 -11q14 12 39 12 q54 0 54 -43z" />
<glyph unicode="f" d="M481 620q-1 -49 -45 -49q-25 0 -44 21q-13 -21 -41 -21q-26 0 -42 18q-14 -18 -39 -18t-41 17q-14 -18 -39 -18q-27 0 -44 19q-6 -8 -16 -12q26 -10 26 -39q0 -28 -23 -41q21 -14 21 -40q0 -27 -21 -40q7 -6 13 -13q18 14 47 14q21 0 34 -9q12 9 29 9q27 0 45 -18 q16 19 46 19q50 0 49 -42q0 -21 -14.5 -35t-35.5 -14q-20 0 -36 13q-13 -12 -35 -12q-37 0 -55 24q-18 -24 -46 -24q-20 0 -33 16q-6 -7 -14 -11q24 -10 24 -39q0 -30 -25 -43q24 -10 24 -38q0 -30 -24 -42q22 -11 22 -39q0 -30 -24 -42q23 -12 23 -38q-2 -58 -44 -58 q-24 0 -41 17.5t-17 40.5q0 26 29 38q-28 13 -28 41t29 40q-27 13 -27 40q0 28 29 40q-28 13 -28 42q0 27 27 39q-27 11 -27 37q0 30 27 46q-25 14 -25 43q0 27 24 40q-22 14 -22 38q0 26 26 39q-27 11 -27 33t20 39.5t42 17.5q20 0 34 -17q18 16 44 16q25 0 37 -17 q17 14 42 14t39 -15q16 15 42 15q22 0 36 -11q14 12 39 12q54 0 54 -43z" />
<glyph unicode="g" d="M475 222q0 -35 -33 -50q21 -11 21 -37q0 -25 -16.5 -43t-40.5 -18q-6 0 -13 1q1 -4 1 -9q0 -21 -22.5 -40.5t-43.5 -19.5q-18 0 -30 14q-14 -16 -38 -16q-26 0 -42 18q-14 -18 -38 -18q-22 0 -38.5 14t-16.5 36q0 13 6 28q-6 -2 -13 -2q-21 0 -37.5 15.5t-16.5 36.5 q0 24 21 36q-37 10 -37 45q0 27 29 39q-28 13 -28 42q0 27 27 39q-27 11 -27 37q0 30 27 46q-25 14 -25 42q0 41 43 47q-18 14 -18 35q0 24 20 40t44 12q-4 12 -4 23q0 21 16.5 34.5t38.5 13.5q24 0 38 -16q16 15 42 15q25 0 39 -15q16 15 42 15q48 0 48 -42q-1 -21 -15 -35 t-35 -14q-24 0 -41 18q-14 -18 -39 -18q-23 0 -40 15q-14 -24 -44 -24h-10q3 -9 3 -20q0 -43 -40 -49q15 -13 15 -36q0 -27 -21 -40q20 -13 20 -39q0 -31 -26 -44q24 -10 24 -39q0 -30 -25 -43q24 -10 24 -38q0 -25 -19 -39q35 -7 35 -42q0 -14 -6 -28q6 2 14 2q30 0 46 -25 q17 13 42 13t39 -16q21 18 49 18q7 0 14 -1q-6 11 -6 23q0 38 38 53q-25 12 -25 39q0 29 31 41q-11 4 -18 13q-13 -18 -38 -18q-26 0 -42 17q-12 -17 -32 -17t-38.5 14.5t-22.5 34.5q-5 19 15 31q16 10 37 10q27 0 40 -14q16 15 43 15q26 0 39 -15q16 15 42 15q49 0 48 -42 q0 -30 -23 -43q23 -8 23 -31z" />
<glyph unicode="h" d="M481 620q0 -32 -23 -44q22 -11 22 -38q0 -30 -25 -42q23 -11 23 -39q0 -30 -24 -42q24 -8 24 -31q0 -31 -30 -48q27 -10 27 -41q0 -29 -23 -42q23 -8 23 -31q0 -32 -30 -48q27 -10 27 -42q0 -26 -20 -39q20 -8 20 -29q0 -4 -1 -11q-13 -49 -56 -49q-21 0 -33.5 14 t-12.5 35q0 25 30 37q-29 13 -29 42q0 27 27 39q-26 13 -26 40q0 29 31 41q-29 13 -29 42q0 27 27 39q-9 4 -15 12q-13 -17 -38 -17q-22 0 -37 13q-13 -12 -35 -12q-37 0 -55 24q-18 -24 -46 -24q-20 0 -33 16q-6 -7 -14 -11q24 -10 24 -39q0 -30 -25 -43q24 -10 24 -38 q0 -30 -24 -42q22 -11 22 -39q0 -30 -24 -42q23 -12 23 -38q-2 -58 -44 -58q-23 0 -40.5 17.5t-17.5 40.5q0 26 29 38q-28 13 -28 41t29 40q-27 13 -27 40q0 28 29 40q-28 13 -28 42q0 27 27 39q-27 11 -27 37q0 30 27 46q-25 14 -25 43q0 27 24 40q-22 14 -22 38 q0 26 26 39q-26 11 -26 35q0 22 18.5 37.5t40.5 15.5q45 0 45 -44q-1 -30 -27 -43q26 -10 26 -39q0 -28 -23 -41q21 -14 21 -40q0 -27 -21 -40q7 -6 13 -13q18 14 47 14q21 0 34 -9q12 9 29 9q27 0 45 -18q16 19 46 19q26 0 40 -16q7 7 18 11q-30 13 -30 42q0 28 29 40 q-27 13 -27 40q0 32 33 43q-27 13 -32 41q-4 21 12 32t37 11q54 0 54 -43z" />
<glyph unicode="i" d="M400 620q-1 -21 -15 -35t-35 -14q-24 0 -41 18q-6 -8 -15 -12q24 -11 24 -39q0 -30 -25 -42q24 -11 24 -38q0 -36 -32 -47q33 -16 33 -49q0 -24 -27 -31q22 -10 22 -38q0 -29 -23 -41q22 -11 22 -38q0 -28 -22 -41q21 -9 21 -32q0 -36 -31 -48q12 -4 20 -13q16 15 42 15 q48 0 48 -42q-1 -21 -14.5 -35t-35.5 -14q-24 0 -41 18q-14 -18 -39 -18q-26 0 -42 18q-14 -18 -38 -18q-22 0 -38 13.5t-16 35.5q0 20 18 32q15 10 36 10q25 0 39 -15q9 9 22 13q-33 11 -33 40q0 26 30 38q-28 13 -28 41q0 32 33 43q-32 17 -32 45q0 27 35 35 q-34 12 -34 45q0 26 27 36q-26 13 -26 40q0 28 29 40q-27 13 -27 41t29 40q-9 4 -15 11q-14 -18 -38 -18q-23 0 -39.5 14t-16.5 36q0 20 18 33t39 13q25 0 37 -18q17 14 42 14t39 -15q16 15 42 15q48 0 48 -42z" />
<glyph unicode="j" d="M481 620q-2 -49 -45 -49q-25 0 -44 21q-7 -12 -19 -17q26 -9 26 -40q0 -27 -22 -39q23 -7 23 -26q0 -33 -36 -52q32 -9 32 -43q0 -29 -24 -41q22 -11 22 -39q0 -30 -24 -42q23 -12 23 -38q0 -45 -43 -49q14 -11 14 -34q0 -22 -14 -39t-36 -17q-5 0 -12 1q8 -12 8 -25 q0 -20 -16 -34t-37 -14q-22 0 -39 18q-14 -18 -37 -18q-21 0 -39 13.5t-18 33.5q0 13 10 25q-23 -2 -42 15.5t-19 40.5q0 22 19 34q-45 8 -44 49q0 20 17 30.5t38 10.5q48 0 47 -41q0 -25 -17 -39q43 -3 43 -46q0 -19 -11 -36q9 2 18 2q22 0 36 -16q17 16 40 16q7 0 15 -2 q-13 17 -13 35q0 43 49 47q-19 15 -19 36q0 29 28 41q-27 13 -27 41t28 40q-27 13 -27 41q0 27 27 39q-26 11 -26 37q0 34 38 45q-36 17 -36 48q0 23 31 32q-11 4 -18 13q-14 -18 -39 -18q-21 0 -37.5 14t-16.5 35q0 20 17 31t38 11q25 0 39 -15q16 15 42 15q22 0 36 -11 q14 12 39 12q55 0 54 -43z" />
<glyph unicode="k" d="M481 620q0 -49 -44 -49q-21 0 -38 14.5t-21 34.5q-4 21 12 32t37 11q54 0 54 -43zM399 539q0 -49 -43 -49q-21 0 -38.5 14t-21.5 35q-4 19 16 30q16 10 36 10q51 0 51 -40zM316 458q0 -25 -17.5 -41t-42.5 -16q-45 0 -45 42q0 25 18 41t44 16q43 0 43 -42zM472 63 q0 -3 -1 -10q-12 -49 -49 -49q-22 0 -39 17t-17 39q0 13 7 25q-25 -1 -41 14t-16 40q0 14 6 28q-8 -1 -15 -1q-23 0 -37.5 15t-14.5 38q0 7 1 15q-26 -5 -49 16t-23 48q0 8 3 16q-30 -3 -48 30l-12 -10q24 -10 24 -39q0 -30 -25 -43q24 -10 24 -38q0 -30 -24 -42 q22 -11 22 -39q0 -30 -24 -42q23 -11 23 -38q-2 -58 -44 -58q-24 0 -41.5 17.5t-16.5 40.5q1 26 29 38q-28 13 -28 41t29 40q-27 13 -27 40q0 28 29 40q-28 13 -28 42q0 27 27 39q-27 11 -27 37q0 30 27 46q-25 14 -25 43q0 27 24 40q-22 14 -22 38q0 26 26 39 q-26 10 -26 35q0 23 18.5 38t40.5 15q45 0 45 -44q0 -30 -27 -43q26 -10 26 -39q0 -28 -23 -41q21 -14 21 -40q0 -27 -21 -40l12 -12q19 15 44 15q45 0 45 -39q0 -17 -13 -40q8 1 14 1q52 0 52 -59q0 -9 -2 -17q8 3 17 3q22 0 38.5 -16.5t16.5 -38.5q0 -12 -5 -22 q26 4 46 -14.5t20 -44.5q0 -14 -7 -26q23 1 42 -11t19 -33z" />
<glyph unicode="l" d="M472 65q0 -23 -18 -42t-40 -19q-21 0 -34 17q-15 -17 -39 -17q-26 0 -42 18q-14 -18 -39 -18q-26 0 -42 18q-14 -18 -39 -18q-23 0 -40 15q-11 -24 -35 -24q-22 0 -41.5 18.5t-19.5 40.5q0 24 31 37q-28 13 -28 41t29 40q-27 13 -27 40q0 28 29 40q-28 13 -28 42 q0 27 27 39q-27 11 -27 37q0 30 27 46q-25 13 -25 43q0 27 24 40q-22 14 -22 38q0 26 26 39q-26 11 -26 35q0 22 18.5 37.5t40.5 15.5q45 0 45 -44q-1 -31 -27 -43q26 -10 26 -39q0 -28 -23 -41q21 -14 21 -40q0 -27 -21 -40q20 -13 20 -39q0 -31 -26 -44q24 -10 24 -39 q0 -30 -25 -43q24 -10 24 -38q0 -30 -24 -42q22 -11 22 -39q0 -30 -24 -42q8 -5 14 -11q16 15 42 15q25 0 39 -15q16 15 42 15q25 0 39 -15q16 15 42 15t40 -15q18 16 48 16q42 0 42 -31z" />
<glyph unicode="m" d="M481 620q0 -36 -28 -46q18 -12 18 -38q0 -23 -13 -42q20 -11 20 -36q0 -31 -24 -44q23 -8 23 -31q0 -30 -31 -47q29 -9 29 -42q0 -28 -23 -41q23 -8 23 -31q0 -32 -30 -48q27 -10 27 -42q0 -26 -20 -39q20 -8 20 -29q0 -4 -1 -11q-13 -49 -56 -49q-21 0 -33.5 14 t-12.5 35q0 25 30 37q-29 13 -29 42q0 27 27 39q-26 13 -26 40q0 29 31 41q-29 13 -29 42q0 25 24 38q-16 5 -25 20q-13 -24 -43 -24q-22 0 -38 13.5t-16 35.5q1 32 38 41q-20 13 -20 34q0 41 52 47q-25 13 -31 40q-5 20 16 31q17 9 38 9q14 0 24 -5q7 4 15 6q-24 14 -29 40 q-4 21 12 32t37 11q54 0 54 -43zM313 296q-1 -49 -43 -49q-21 0 -38 14.5t-21 34.5q-5 19 15 31q16 10 37 10q51 0 50 -41zM263 389q0 -7 -2 -12q-17 -48 -60 -48q-34 0 -42 35q-6 -23 -29 -31q21 -12 21 -38q0 -30 -25 -43q24 -10 24 -38q0 -30 -24 -42q22 -11 22 -39 q0 -30 -24 -42q23 -12 23 -38q-2 -58 -44 -58q-23 0 -40.5 17.5t-17.5 40.5q0 26 29 38q-28 13 -28 41t29 40q-27 13 -27 40q0 28 29 40q-28 13 -28 42q0 27 27 40q-27 11 -27 37q0 28 28 45q-26 13 -26 43q0 25 21 39q-10 17 -10 36q0 28 23 40q-32 9 -32 36 q0 23 18.5 38.5t40.5 15.5q45 0 45 -44q-1 -28 -23 -40l9 -4q14 6 28 6q20 0 34.5 -13t14.5 -33q0 -22 -19 -37q35 -7 35 -43q0 -23 -19 -38q46 1 46 -29zM402 415q-12 6 -20 18q-11 -14 -26 -19q11 -6 17 -16q10 11 29 17zM154 492h-2l-2 -2zM180 409q-23 2 -36 18 q-4 -5 -8 -9q20 -9 24 -29q6 12 20 20z" />
<glyph unicode="n" d="M481 620q0 -32 -23 -44q22 -11 22 -38q0 -30 -25 -42q23 -11 23 -39q0 -30 -24 -42q24 -8 24 -31q0 -31 -30 -48q27 -10 27 -41q0 -29 -23 -42q23 -8 23 -31q0 -35 -34 -51q22 -11 22 -38q0 -25 -18 -39q27 -7 27 -30q0 -4 -1 -11q-13 -49 -56 -49q-21 0 -33.5 14 t-12.5 35q0 23 25 35q-33 12 -33 44q0 30 32 41q-6 4 -11 10q-14 -18 -36 -18t-39 15.5t-17 37.5q0 15 8 29q-42 9 -42 53q0 17 9 31q-45 11 -45 47q0 12 9 23q-19 5 -35.5 21t-16.5 35q0 10 6 20q-23 0 -41 20l-4 -3q16 -13 16 -37q0 -27 -21 -40q20 -13 20 -39 q0 -31 -26 -44q24 -10 24 -39q0 -30 -25 -43q24 -10 24 -38q0 -30 -24 -42q22 -11 22 -39q0 -30 -24 -42q23 -12 23 -38q-2 -58 -44 -58q-24 0 -41 17.5t-17 40.5q0 26 29 38q-28 13 -28 41t29 40q-27 13 -27 40q0 28 29 40q-28 13 -28 42q0 27 27 39q-27 11 -27 37 q0 30 27 46q-25 14 -25 43q0 31 29 42q-18 15 -18 36q0 25 23 37q-32 9 -32 37q0 22 18.5 37.5t40.5 15.5q45 0 45 -44q-1 -28 -23 -40q7 -3 14 -7q17 10 34 10q20 0 33 -13.5t13 -34.5q0 -17 -10 -36q5 1 11 1q22 0 38 -15.5t16 -37.5q0 -15 -9 -29q18 -2 36 -19t18 -35 q0 -10 -6 -18q37 -14 37 -51q0 -15 -9 -28q23 -6 35 -25q7 6 17 10q-29 13 -29 42q0 27 27 39q-26 13 -26 40q0 29 31 41q-30 13 -30 42q0 28 29 40q-27 13 -27 40q0 32 33 43q-27 13 -32 41q-4 21 12 32t37 11q54 0 54 -43z" />
<glyph unicode="o" d="M479 455q0 -27 -25 -40q24 -8 24 -31q0 -31 -30 -48q27 -10 27 -41q0 -29 -23 -42q23 -8 23 -30q0 -18 -14 -35t-32 -21q16 -11 16 -34q0 -22 -14.5 -39.5t-35.5 -17.5q-6 0 -13 2q9 -11 9 -26q0 -20 -16 -34.5t-37 -14.5q-22 0 -39 19q-14 -18 -39 -18q-26 0 -42 18 q-14 -18 -37 -18q-21 0 -39 13.5t-18 33.5q0 12 9 24q-23 0 -41.5 18t-18.5 40q0 21 19 33q-44 9 -44 47q0 27 29 39q-28 13 -28 42q0 27 27 39q-27 11 -27 37q0 30 27 46q-25 14 -25 42q0 41 42 47q-14 14 -14 30q0 23 20 40.5t43 19.5q-7 12 -7 23q0 21 18 34.5t40 13.5 q24 0 36 -18q17 14 42 14t39 -15q17 16 40 16q20 0 35.5 -11.5t15.5 -31.5q0 -13 -9 -28q24 2 43 -15t19 -41q0 -21 -18 -36q43 -3 43 -45zM405 414q-30 13 -30 43q0 21 19 33q-45 8 -45 52q0 15 8 29q-29 -3 -48 18q-14 -18 -39 -18t-41 17q-13 -18 -36 -18q-6 0 -12 1 q3 -10 3 -21q0 -51 -43 -60q13 -12 13 -32q0 -28 -21 -41q20 -13 20 -39q0 -31 -26 -44q24 -10 24 -39q0 -30 -25 -43q24 -10 24 -38q0 -23 -17 -38q43 -3 43 -47q0 -18 -10 -35q8 2 16 2q23 0 37 -16q16 15 42 15q25 0 39 -15q17 16 39 16q9 0 19 -2q-15 18 -15 38 q0 40 46 44q-18 14 -18 35q0 29 31 41q-29 13 -29 42q0 27 27 39q-26 13 -26 40q0 29 31 41z" />
<glyph unicode="p" d="M479 457q0 -41 -41 -48q13 -9 13 -25q0 -23 -19.5 -40.5t-42.5 -15.5q6 -15 6 -29q0 -22 -14 -37.5t-36 -15.5q-24 0 -41 18q-12 -17 -33 -17q-27 0 -46 21q-14 -21 -41 -21t-43 18q-6 -9 -15 -13q24 -10 24 -38q0 -30 -24 -42q22 -11 22 -39q0 -30 -24 -42 q23 -12 23 -38q-2 -58 -44 -58q-24 0 -41 17.5t-17 40.5q0 26 29 38q-28 13 -28 41t29 40q-27 13 -27 40q0 28 29 40q-28 13 -28 42q0 27 27 39q-27 11 -27 37q0 30 27 46q-25 14 -25 43q0 27 24 40q-22 14 -22 38q0 26 26 39q-27 11 -27 33t20 39.5t42 17.5q20 0 34 -17 q18 16 44 16q25 0 37 -17q17 14 42 14t39 -15q18 16 42 16q48 0 48 -44q0 -16 -9 -34q24 2 43.5 -11.5t19.5 -37.5q0 -20 -18 -36q43 -3 43 -43zM397 418q-22 14 -22 38q0 22 19 34q-18 4 -31.5 18.5t-13.5 32.5q0 10 5 20q-28 0 -46 26q-14 -16 -38 -16q-25 0 -41 17 q-14 -18 -39 -18q-27 0 -44 19q-6 -8 -16 -12q26 -10 26 -39q0 -28 -23 -41q21 -14 21 -40q0 -27 -21 -40q20 -13 20 -39q0 -31 -26 -44q9 -4 15 -11q16 15 42 15q25 0 38 -14q16 13 42 13q24 0 37 -13q20 28 52 30q-7 10 -7 21q0 38 51 43z" />
<glyph unicode="q" d="M400 620q-1 -21 -15 -35t-35 -14q-24 0 -41 18q-14 -18 -39 -18t-41 17q-14 -18 -38 -18q-23 0 -39.5 14t-16.5 36q0 20 18 33t39 13q25 0 37 -18q17 14 42 14t39 -15q16 15 42 15q48 0 48 -42zM480 539q-1 -30 -25 -43q23 -11 23 -39q0 -30 -24 -42q24 -8 24 -31 q0 -31 -30 -48q27 -10 27 -41q0 -29 -23 -42q23 -8 23 -30q0 -18 -14 -35t-32 -21q16 -11 16 -34t-16 -37q43 0 43 -32q0 -22 -18.5 -41.5t-39.5 -19.5q-20 0 -34 18q-15 -17 -39 -17q-26 0 -42 18q-14 -18 -39 -18q-26 0 -42 18q-14 -18 -38 -18q-22 0 -38 13.5t-16 35.5 q0 20 18 32q15 10 36 10q25 0 39 -15q16 15 42 15q25 0 39 -15l6 5q-18 3 -31.5 17t-13.5 31q0 15 12 27q-9 -3 -19 -3q-22 0 -38 13.5t-15 35.5q0 20 16.5 31t37.5 11q48 0 48 -42q0 -21 -12 -34q12 4 26 4q25 0 38 -15q13 13 34 15q-18 14 -18 35q0 29 31 41 q-29 13 -29 42q0 27 27 39q-26 13 -26 40q0 29 31 41q-30 13 -30 42q0 28 29 40q-28 13 -27 43q1 20 17 31t37 11q49 0 49 -42zM156 539q0 -29 -23 -42q21 -14 21 -40q0 -27 -21 -40q20 -13 20 -39q0 -31 -26 -44q24 -10 24 -39q0 -30 -25 -43q24 -10 24 -38q0 -30 -24 -42 q23 -12 22 -38q-1 -49 -48 -49q-23 0 -38.5 13.5t-15.5 35.5q0 26 29 38q-27 13 -27 40q0 28 29 40q-28 13 -28 42q0 27 27 39q-27 11 -27 37q0 30 27 46q-25 14 -25 43q0 27 24 40q-23 15 -22 40q1 20 17 31t37 11q49 0 49 -42zM389 85q-22 3 -34 18q-3 -4 -8 -8 q23 -1 35 -15z" />
<glyph unicode="r" d="M479 457q0 -41 -41 -48q12 -9 12 -25q0 -22 -18.5 -43t-40.5 -21q-8 0 -15 3q9 -11 9 -27q0 -27 -19 -40q37 -3 37 -30q0 -24 -23 -50q23 3 40 -9.5t17 -35.5q0 -16 -10 -31q45 -2 45 -36q0 -4 -1 -11q-13 -49 -55 -49q-47 0 -47 49q0 17 11 29q-19 3 -33 18t-14 33 q0 14 10 24q-19 1 -31 17t-12 36q0 27 24 38q-14 3 -24 11q-12 -12 -29 -12q-27 0 -46 21q-14 -21 -41 -21t-43 18q-6 -9 -15 -13q24 -10 24 -38q0 -30 -24 -42q22 -11 22 -39q0 -30 -24 -42q23 -12 23 -38q-2 -58 -44 -58q-24 0 -41 17.5t-17 40.5q0 26 29 38 q-28 13 -28 41t29 40q-27 13 -27 40q0 28 29 40q-28 13 -28 42q0 27 27 39q-27 11 -27 37q0 30 27 46q-25 14 -25 43q0 27 24 40q-22 14 -22 38q0 26 26 39q-27 11 -27 33t20 39.5t42 17.5q20 0 34 -17q18 16 44 16q25 0 37 -17q17 14 42 14t39 -15q17 16 40 16 q20 0 35.5 -11.5t15.5 -31.5q0 -13 -9 -28q24 2 43 -15t19 -41q0 -21 -18 -36q43 -3 43 -43zM397 418q-22 14 -22 38q0 22 19 34q-45 8 -45 52q0 15 8 29q-29 -3 -48 18q-14 -18 -39 -18t-41 17q-14 -18 -39 -18q-27 0 -44 19q-6 -8 -16 -12q26 -10 26 -39q0 -28 -23 -41 q21 -14 21 -40q0 -27 -21 -40q20 -13 20 -39q0 -31 -26 -44q9 -4 15 -11q16 15 42 15q25 0 38 -14q16 13 42 13q21 0 35 -10q16 12 38 12q13 0 25 -5q-14 15 -15 43q-1 37 50 41z" />
<glyph unicode="s" d="M474 218q0 -38 -38 -50q18 -11 18 -34q0 -22 -15 -40t-38 -18q-6 0 -12 2q2 -9 2 -17q0 -23 -15.5 -40.5t-38.5 -17.5q-22 0 -38 19q-14 -18 -39 -18q-26 0 -42 18q-14 -18 -37 -18q-21 0 -39 13.5t-18 33.5q0 13 10 25q-5 -1 -12 -1q-22 0 -40 18t-18 40q0 23 21 35 q-38 10 -37 47q0 19 17 30t38 11q48 0 47 -41q0 -26 -19 -40q36 -8 36 -46q0 -21 -11 -38q11 4 24 4q25 0 39 -15q16 15 42 15q25 0 39 -14q24 27 58 22q-6 15 -6 27q0 38 42 45q-23 18 -23 51q0 12 5 22q-24 -3 -50 11t-25 38q-11 -14 -28 -14q-21 0 -43 18t-28 38 q-13 -8 -29 -8q-26 0 -46 15q-24 16 -24 40q0 11 7 23q-25 -2 -42 12t-17 38q0 40 43 46q-15 14 -15 31q0 24 21.5 40.5t45.5 12.5q-12 15 -12 29q0 20 19 34t40 14q24 0 36 -18q17 14 42 14t39 -15q17 16 39 16q20 0 36 -11.5t16 -31.5q0 -14 -10 -30q7 2 15 2 q22 0 39 -15.5t17 -37.5q-1 -49 -49 -49q-22 0 -38 13.5t-16 35.5q0 21 9 34q-8 -2 -17 -2q-26 0 -42 18q-14 -18 -39 -18t-41 17q-14 -18 -39 -18q-8 0 -15 1q9 -13 9 -30q0 -45 -43 -51q13 -12 13 -32q0 -15 -7 -27q29 3 55.5 -14t21.5 -45q10 2 23 2q24 0 41 -10 q22 -13 22 -36q14 20 40 20q24 0 43.5 -15t19.5 -39q0 -13 -8 -28q8 2 15 2q23 0 38.5 -13.5t15.5 -36.5z" />
<glyph unicode="t" d="M481 620q-1 -49 -45 -49q-25 0 -44 21q-13 -21 -41 -21q-26 0 -42 18q-6 -8 -15 -12q24 -11 24 -39q0 -30 -25 -42q24 -11 24 -38q0 -36 -32 -47q33 -16 33 -49q0 -24 -27 -31q22 -10 22 -38q0 -29 -23 -41q22 -11 22 -38q0 -28 -22 -41q21 -9 21 -32q0 -36 -31 -48 q29 -9 29 -40q-1 -49 -49 -49q-23 0 -38 13.5t-15 35.5q1 30 34 40q-33 11 -33 40q0 26 30 38q-28 13 -28 41q0 32 33 43q-32 17 -32 45q0 27 35 35q-35 12 -35 45q0 26 28 36q-26 13 -26 40q0 28 29 40q-27 13 -27 41t29 40q-9 4 -15 11q-14 -18 -39 -18q-27 0 -44 19 q-15 -18 -43 -18q-19 0 -33 10q-17 11 -17 29q0 23 18.5 39t41.5 16q22 0 35 -16q18 16 44 16q25 0 37 -17q17 14 42 14t39 -15q16 15 42 15q22 0 36 -11q14 12 39 12q54 0 54 -43z" />
<glyph unicode="u" d="M481 620q0 -32 -23 -44q22 -11 22 -38q0 -30 -25 -42q23 -11 23 -39q0 -30 -24 -42q24 -8 24 -31q0 -31 -30 -48q27 -10 27 -41q0 -29 -23 -42q23 -8 23 -30q0 -17 -11.5 -32.5t-27.5 -21.5q18 -12 18 -35q0 -22 -15 -40t-38 -18q-8 0 -16 3q6 -12 6 -25q0 -22 -15 -36.5 t-37 -14.5t-39 19q-15 -18 -40 -18q-26 0 -41 18q-15 -18 -38 -18q-22 0 -39 14t-17 35q0 10 5 20q-24 -3 -45 16.5t-21 43.5q0 23 21 35q-37 10 -37 45q0 27 29 39q-28 13 -28 42q0 27 27 39q-27 11 -27 37q0 30 27 46q-25 14 -25 43q0 27 24 40q-22 14 -22 38q0 26 26 39 q-26 11 -26 35q0 22 18.5 37.5t40.5 15.5q45 0 45 -44q-1 -30 -27 -43q26 -10 26 -39q0 -28 -23 -41q21 -14 21 -40q0 -27 -21 -40q20 -13 20 -39q0 -31 -26 -44q24 -10 24 -39q0 -30 -25 -43q24 -10 24 -38q0 -25 -19 -39q36 -8 36 -45q0 -16 -7 -32q8 3 15 3q29 0 45 -20 q16 14 41 14q24 0 38 -13q19 22 47 22q7 0 13 -1q-7 14 -7 27q0 36 39 45q-20 14 -20 36q0 29 31 41q-29 13 -29 42q0 27 27 39q-26 13 -26 40q0 29 31 41q-30 13 -30 42q0 28 29 40q-27 13 -27 40q0 32 33 43q-27 13 -32 41q-4 21 12 32t37 11q54 0 54 -43z" />
<glyph unicode="v" d="M481 620q0 -32 -23 -44q22 -11 22 -38q0 -30 -25 -42q23 -11 23 -39q0 -30 -24 -42q24 -8 24 -31q0 -18 -14 -34.5t-32 -20.5q17 -11 17 -33q0 -36 -32 -47q13 -9 13 -25q0 -25 -22.5 -47t-47.5 -22q5 -11 5 -23q0 -20 -15 -33.5t-36 -13.5h-11q6 -12 6 -32 q0 -49 -45 -49q-22 0 -39 13q-20 14 -20 34q0 17 15 35q-5 -1 -11 -1q-21 0 -38.5 13t-17.5 33q0 12 7 23q-22 1 -40.5 19.5t-18.5 40.5q0 21 20 33q-18 3 -31.5 16.5t-13.5 31.5q0 21 18 33q-45 4 -45 43q0 29 27 45q-25 14 -25 43q0 27 24 40q-22 14 -22 38q0 26 26 39 q-26 11 -26 35q0 22 18.5 37.5t40.5 15.5q45 0 45 -44q-1 -30 -27 -43q26 -10 26 -39q0 -28 -23 -41q21 -14 21 -40q0 -27 -21 -40q20 -13 20 -39q0 -25 -19 -40q19 0 32 -13t13 -32q0 -22 -19 -37q45 -2 45 -48q0 -16 -8 -33q6 2 12 2q20 0 34 -12t14 -31q0 -13 -8 -28 q10 5 19 5q-7 11 -7 22q0 20 19 32q16 11 37 11q5 0 11 -1q-5 12 -5 24q0 44 47 56q-24 13 -24 37q0 40 45 46q-18 14 -18 35q0 29 32 41q-30 13 -30 42q0 28 29 40q-27 13 -27 40q0 32 33 43q-27 13 -32 41q-4 21 12 32t37 11q54 0 54 -43z" />
<glyph unicode="w" d="M481 620q0 -32 -23 -44q22 -11 22 -38q0 -30 -25 -42q23 -11 23 -39q0 -30 -24 -42q24 -8 24 -31q0 -31 -30 -48q27 -10 27 -41q0 -29 -23 -42q23 -8 23 -30q0 -17 -11.5 -32.5t-27.5 -21.5q19 -12 19 -35q0 -22 -15.5 -36t-37.5 -13q11 -13 6 -32q-13 -49 -53 -49 q-20 0 -35.5 14t-15.5 34q0 15 10 29q-20 2 -36.5 17.5t-16.5 35.5t20 32q-13 2 -22 9q-10 -8 -21 -9q11 -9 11 -25q0 -21 -17 -39.5t-38 -18.5q7 -12 7 -30q0 -58 -42 -58q-22 0 -41.5 17t-19.5 39q0 18 14 34q-19 1 -33.5 15t-14.5 33q0 22 21 35q-37 10 -37 45 q0 27 29 39q-28 13 -28 42q0 27 27 39q-27 11 -27 37q0 30 27 46q-25 14 -25 43q0 27 24 40q-22 14 -22 38q0 26 26 39q-26 11 -26 35q0 22 18.5 37.5t40.5 15.5q45 0 45 -44q-1 -30 -27 -43q26 -10 26 -39q0 -28 -23 -41q21 -14 21 -40q0 -27 -21 -40q20 -13 20 -39 q0 -31 -26 -44q24 -10 24 -39q0 -30 -25 -43q24 -10 24 -38q0 -25 -19 -39q17 -3 26 -14q18 15 44 16q-28 19 -28 41q0 18 17 29q14 9 33 9q12 0 23 -3q-35 16 -35 47q0 27 35 35q-35 12 -35 45q0 26 28 36q-27 13 -26 42q1 20 19 32q15 10 36 10q48 0 48 -42q0 -36 -31 -47 q33 -16 33 -49q0 -24 -27 -31q22 -10 22 -38q0 -22 -15 -36q41 -4 41 -45q0 -21 -17 -36q26 -2 37 -20q11 14 32 19q-20 14 -20 36q0 29 31 41q-29 13 -29 42q0 27 27 39q-26 13 -26 40q0 29 31 41q-30 13 -30 42q0 28 29 40q-27 13 -27 40q0 32 33 43q-27 13 -32 41 q-4 21 12 32t37 11q54 0 54 -43zM364 103l-4 5l-3 -5h7z" />
<glyph unicode="x" d="M481 620q0 -49 -44 -49q-21 0 -38 14.5t-21 34.5q-4 21 12 32t37 11q54 0 54 -43zM253 458q-1 -49 -46 -49q-21 0 -38 12q-20 14 -20 33q0 12 8 24q-22 4 -41 23t-19 40q0 19 19 31q-5 -1 -12 -1q-51 0 -51 39q0 23 18 38.5t41 15.5q45 0 45 -44q-1 -26 -21 -40q6 1 12 1 q24 0 39.5 -17.5t15.5 -42.5q0 -10 -2 -21q21 2 36.5 -9t15.5 -33zM472 64q0 -4 -1 -11q-12 -49 -56 -49q-21 0 -33.5 14t-12.5 35q0 20 19 32q-23 -1 -38.5 12t-15.5 36q0 16 10 33q-21 0 -37.5 14.5t-16.5 34.5q0 19 18 32q-25 -2 -43 16q-13 -16 -36 -16q-22 0 -38.5 14 t-15.5 35q0 21 18 32t39 10q-21 15 -21 35q0 22 18.5 38.5t40.5 16.5q8 0 16 -2q-11 15 -11 28q0 24 25 36q21 11 45 9q-13 15 -13 40q0 20 18 32q15 10 36 10q49 0 49 -42q0 -24 -16 -41t-40 -16q3 -5 3 -12q0 -22 -20.5 -41.5t-42.5 -19.5q-8 0 -14 2q10 -12 10 -32 q0 -21 -11 -34q20 -2 33 -17t13 -35q0 -22 -17 -37q5 1 12 1q19 0 34 -11.5t15 -30.5q0 -13 -9 -28q22 -1 37 -17t15 -38t-18 -37q20 3 36.5 -4.5t16.5 -26.5zM231 215q0 -50 -45 -49q3 -6 3 -13q0 -22 -18 -43.5t-40 -23.5q16 -11 16 -33q-1 -58 -44 -58q-24 0 -41 17.5 t-17 40.5q1 42 53 42q-17 15 -17 34q0 22 21 38t45 17q-20 19 -20 36q0 18 19 28q16 8 35 8q51 0 50 -41z" />
<glyph unicode="y" d="M481 620q0 -49 -44 -49q-4 0 -10 1q18 -11 18 -32q0 -20 -13.5 -37t-32.5 -21q9 -11 9 -25q0 -20 -16 -34t-37 -14q-5 0 -11 1q16 -11 16 -33q0 -24 -16.5 -38t-40.5 -11q10 -15 10 -33q0 -30 -24 -43q23 -11 23 -38q0 -28 -22 -41q21 -9 21 -32q0 -36 -31 -48 q29 -9 29 -40q-1 -49 -49 -49q-23 0 -38 13.5t-15 35.5q1 30 34 40q-33 11 -33 40q0 26 30 38q-28 13 -28 42t29 40q-28 15 -28 50q0 13 3 26q-20 0 -34 17.5t-14 38.5q0 14 7 24q-21 1 -35.5 15.5t-14.5 34.5q0 14 9 28q-20 1 -36.5 16t-16.5 35q0 21 19 33q-45 4 -45 39 q0 23 18.5 38.5t40.5 15.5q45 0 45 -44q-1 -25 -19 -39q46 -1 46 -44q0 -16 -11 -31q22 0 38 -13.5t16 -35.5q0 -14 -9 -28q37 -2 50 -26q17 17 41 17q7 0 16 -2q-22 15 -22 36q0 19 15 32t35 14q-13 17 -13 35q0 21 16 33.5t38 12.5q6 0 12 -1q-23 15 -28 40q-4 21 12 32 t37 11q54 0 54 -43zM261 356v2l-1 -1z" />
<glyph unicode="z" d="M481 620q-1 -51 -45 -57q9 -10 9 -25q0 -19 -14.5 -36t-33.5 -20q3 -5 3 -12q0 -20 -21 -41.5t-41 -25.5q6 -7 6 -17q0 -21 -18.5 -41.5t-38.5 -20.5q2 -6 2 -13q0 -22 -16.5 -43t-38.5 -20q8 -10 8 -25q0 -21 -14 -39t-35 -18q-5 0 -9 2q4 -9 4 -19q0 -21 -17 -41.5 t-39 -22.5l6 -5q16 15 42 15q25 0 39 -15q16 15 42 15q25 0 39 -15q16 15 42 15t40 -15q18 16 48 16q42 0 42 -31q0 -23 -18 -42t-40 -19q-21 0 -34 17q-15 -17 -39 -17q-26 0 -42 18q-14 -18 -39 -18q-26 0 -42 18q-14 -18 -39 -18q-23 0 -40 15q-11 -24 -36 -24 q-23 0 -40.5 17.5t-17.5 40.5q0 20 17 31t37 11q-18 15 -18 34q0 25 24 41t50 14q-18 18 -18 36q0 22 22 34q19 11 42 11q-17 17 -17 34q0 21 22 34q19 11 42 12q-10 15 -10 28q0 23 21 35q18 11 42 10q-9 16 -7 40q5 39 60 41q-13 16 -13 36q0 24 17 36q-30 -4 -49 18 q-14 -18 -39 -18t-41 17q-14 -18 -39 -18q-27 0 -44 19q-15 -18 -43 -18q-19 0 -33 10q-17 11 -17 29q0 22 19 38.5t41 16.5t35 -16q18 16 44 16q25 0 37 -17q17 14 42 14t39 -15q16 15 42 15q22 0 37 -12q14 14 39 14q54 0 53 -44zM394 581l-4 7l-8 -8q6 1 12 1z" />
<glyph unicode="{" d="M94 324q0 -23 14.5 -39.5t35.5 -16.5q27 0 42 26q14 -19 42 -19q-10 -13 -10 -31q0 -22 15.5 -37t38.5 -15t39 15t16 37q0 21 -16 36.5t-38 16.5q9 12 9 29q0 7 -1 11q8 -4 22 -4q23 0 40 15.5t17 38.5t-17 39t-40 16q-12 0 -21 -4q10 13 10 29q0 22 -16 36q8 12 9 34 q0 40 -50 40q-21 0 -37 -9q-20 -12 -16 -31q5 -22 22 -36q-13 -15 -13 -34q0 -21 14.5 -35t35.5 -14q9 0 18 3q-12 -15 -12 -34q0 -9 1 -13q-5 2 -10 3t-10 1q-14 0 -25 -6t-18 -16q-14 24 -41 24q-21 0 -35.5 -16.5t-14.5 -39.5zM315 94q-23 0 -39 -10q-21 -12 -21 -33 t12.5 -35t33.5 -14q35 0 50 32q5 -15 18.5 -24.5t30.5 -9.5q21 0 36 14.5t15 34.5t-15 34.5t-36 14.5q-14 0 -25.5 -6.5t-18.5 -17.5q-8 20 -41 20zM313 661q-21 0 -37 -11t-12 -32q4 -20 21 -34.5t38 -14.5q26 0 36 16q11 -8 27 -8q20 0 34 13.5t14 32.5t-14 32.5t-34 13.5 q-22 0 -36 -17q-14 9 -37 9zM199 140q0 -20 15 -33.5t37 -13.5t37 13.5t15 33.5t-15 34t-37 14t-37 -14t-15 -34z" />
<glyph unicode="|" d="M227 -22q0 -19 14.5 -32.5t36.5 -13.5t37 13.5t15 32.5q0 27 -28 40q25 13 25 39q0 11 -6 21t-16 17q26 13 26 46q0 23 -21 32q22 13 22 41t-22 38q23 12 23 41q0 28 -22 38q27 7 27 31q0 32 -33 49q32 11 32 47q0 27 -24 38q25 12 25 42q0 25 -20 37q20 13 20 39 q0 14 -6.5 24.5t-17.5 17.5q21 13 21 41q0 20 -12.5 33.5t-30.5 13.5t-30 -13.5t-12 -33.5q0 -25 18 -40q-25 -13 -25 -43q0 -25 18 -38q-26 -13 -26 -39q0 -28 27 -41q-29 -12 -29 -40q0 -26 26 -40q-27 -11 -27 -36q0 -33 34 -45q-35 -8 -35 -35q0 -28 32 -45 q-33 -11 -33 -43q0 -28 28 -41q-30 -12 -30 -38t23 -37q-23 -13 -23 -39q0 -27 25 -40q-26 -11 -26 -39z" />
<glyph unicode="}" d="M450 344q0 23 -14.5 39.5t-35.5 16.5q-27 0 -42 -26q-14 19 -42 19q10 13 10 31q0 22 -15.5 37t-38.5 15t-39 -15t-16 -37q0 -21 16 -36.5t38 -16.5q-9 -12 -9 -29q0 -7 1 -11q-8 4 -22 4q-23 0 -40 -15.5t-17 -38.5t17 -39t40 -16q12 0 21 4q-10 -13 -10 -29 q0 -22 16 -36q-8 -12 -9 -34q0 -40 50 -40q20 0 37 9q20 12 16 31q-5 22 -22 36q13 15 13 34q0 21 -14.5 35t-35.5 14q-9 0 -18 -3q12 15 12 34q0 9 -1 13q5 -2 10 -3t10 -1q14 0 25 6t18 16q14 -24 41 -24q21 0 35.5 16.5t14.5 39.5zM229 574q23 0 39 10q21 12 21 33 t-12.5 35t-33.5 14q-35 0 -50 -32q-5 15 -18.5 24.5t-30.5 9.5q-21 0 -36 -14.5t-15 -34.5t15 -34.5t36 -14.5q14 0 25.5 6.5t18.5 17.5q8 -20 41 -20zM231 7q21 0 37 11t12 32q-4 20 -21 34.5t-38 14.5q-26 0 -36 -16q-11 8 -27 8q-20 0 -34 -13.5t-14 -32.5t14 -32.5 t34 -13.5q11 0 20.5 4.5t15.5 12.5q13 -9 37 -9zM345 528q0 20 -15 33.5t-37 13.5t-37 -13.5t-15 -33.5t15 -34t37 -14t37 14t15 34z" />
<glyph unicode="~" d="M415 370q0 -5 2 -13q-9 3 -18 3q-13 0 -23 -5.5t-17 -13.5q-15 17 -37 17q-14 0 -24 -6q3 7 3 18q0 21 -14.5 36t-35.5 15q-15 0 -26.5 -7.5t-18.5 -19.5q-6 10 -16 16t-21 6q-18 0 -30.5 -13.5t-12.5 -32.5q0 -7 1 -11q-14 7 -25 7q-20 0 -34 -13.5t-14 -33.5t14 -33.5 t34 -13.5t34.5 13.5t14.5 33.5q0 2 -0.5 4.5t-0.5 4.5q7 -4 19 -4t21.5 6t15.5 16q6 -12 18 -19.5t27 -7.5q16 0 26 7q-1 -3 -1 -10q0 -17 13.5 -29.5t32.5 -12.5q20 0 33 13q14 -24 44 -24q21 0 35.5 14t14.5 34q0 4 -2 12q4 -2 14 -2q19 0 32.5 14.5t13.5 34.5t-13.5 34.5 t-32.5 14.5t-32.5 -14.5t-13.5 -34.5z" />
<glyph unicode="&#xa1;" d="M283 -204q0 31 -25 43q24 11 24 39q0 30 -25 42q24 11 24 38q0 36 -32 47q33 16 33 49q0 24 -27 31q23 10 22 35q-1 49 -43 49q-21 0 -38 -14.5t-21 -34.5q-7 -30 35 -39q-35 -12 -35 -45q0 -26 28 -36q-26 -13 -26 -40q0 -28 29 -40q-27 -13 -27 -41t29 -40 q-29 -14 -28 -43q0 -20 17 -31t38 -11q48 0 48 42zM273 363q-1 49 -49 49q-23 0 -38 -13.5t-15 -35.5q1 -42 54 -42q48 0 48 42z" />
<glyph unicode="&#xa2;" d="M470 539q0 -49 -49 -49q-23 0 -38 13.5t-15 35.5q0 20 18 32q15 10 36 10q48 0 48 -42zM408 620q0 -21 -14 -35t-35 -14q-24 0 -41 17q3 -16 3 -37q0 -18 -7 -30q7 -14 7 -32q0 -32 -8 -48q8 -14 8 -39q0 -33 -9 -46q9 -15 9 -48q0 -25 -7 -36q7 -17 7 -51q0 -18 -7 -30 q7 -14 7 -32q0 -32 -8 -48q6 -9 7 -23q13 7 31 7q48 0 48 -42q0 -21 -14.5 -35t-35.5 -14q-24 0 -41 18l-2 -2q15 -16 15 -42q0 -48 -42 -48q-21 0 -35.5 14.5t-14.5 35.5q0 17 10 31l-12 11q-14 -18 -37 -18q-21 0 -39 13.5t-18 33.5q0 12 9 24q-23 0 -41.5 17.5 t-18.5 40.5q0 21 19 33q-44 8 -44 47q0 27 29 39q-29 13 -29 42q0 27 27 39q-26 11 -26 37q0 30 27 46q-25 14 -25 42q0 42 43 48q-15 13 -15 31q0 23 17 38t39 15q6 0 12 -1q-13 14 -13 29q0 21 20 35q17 13 38 13q18 0 30 -9q1 23 16 37q-18 13 -18 38q0 22 14.5 38 t35.5 16q20 0 31 -17t11 -37q0 -26 -15 -39q14 -15 15 -44q15 13 40 13q47 0 47 -42zM463 134q0 -49 -48 -49q-23 0 -38.5 13.5t-15.5 35.5q0 20 17 31t38 11q47 0 47 -42zM241 269q-12 13 -12 41q0 32 12 47q-12 12 -12 45q0 25 9 38q-9 11 -9 49q0 19 10 32q-18 23 -6 62 q-19 -20 -53 -11q12 -16 12 -36q0 -43 -41 -46q12 -13 12 -32q0 -28 -21 -41q20 -13 20 -39q0 -31 -26 -44q24 -10 24 -39q0 -30 -25 -43q24 -10 24 -38q0 -23 -17 -38q43 -3 43 -47q0 -18 -10 -35l15 2q24 0 38 -16l2 3q1 16 8 27q-9 11 -9 49q0 19 10 32q-10 12 -10 30 q0 32 12 48z" />
<glyph unicode="&#xa5;" d="M513 620q0 -49 -43 -49q-4 0 -10 1q17 -11 17 -32q0 -20 -13 -37t-33 -21q9 -11 9 -25q0 -20 -15.5 -34t-36.5 -14q-5 0 -11 1q16 -11 16 -33q0 -24 -16.5 -38t-40.5 -11q10 -15 10 -33q0 -30 -24 -43q23 -11 23 -38q0 -28 -22 -41q21 -9 21 -32q0 -36 -31 -48 q29 -9 28 -40q-1 -49 -48 -49q-23 0 -38.5 13.5t-14.5 35.5q0 30 34 40q-33 11 -33 40q0 26 29 38q-28 13 -28 42t30 40q-29 15 -29 50q0 13 4 26q-21 0 -34.5 17.5t-13.5 38.5q0 14 7 24q-21 1 -35.5 15.5t-14.5 34.5q0 14 9 28q-20 1 -36.5 16t-16.5 35q0 21 19 33 q-45 4 -45 39q0 23 18 38.5t41 15.5q45 0 44 -44q0 -25 -19 -39q46 -1 46 -44q0 -16 -10 -31q22 0 38 -13.5t16 -35.5q0 -14 -9 -28q36 -2 50 -26q16 17 40 17q8 0 17 -2q-22 15 -22 36q0 19 15 32t35 14q-13 17 -13 35q0 21 16 33.5t38 12.5q5 0 12 -1q-23 15 -28 40 q-4 21 12 32t37 11q53 0 53 -43zM294 356v2l-1 -1zM518 305q0 -22 -18.5 -40t-40.5 -18q-21 0 -36 17q-14 -17 -39 -17q-23 0 -38 14q-13 -12 -35 -12q-38 0 -57 23q-19 -23 -48 -23q-20 0 -33 15q-15 -16 -42 -16q-20 0 -36 10t-16 29q0 23 18.5 40t41.5 17q25 0 39 -21 q18 15 48 15q22 0 35 -10q13 10 30 10q28 0 46 -19q16 20 47 20q27 -1 41 -17q17 15 48 15q45 0 45 -32zM515 144q0 -22 -18.5 -40t-40.5 -18q-21 0 -36 17q-14 -17 -39 -17q-27 0 -43 18q-15 -18 -40 -18q-26 0 -43 17q-11 -16 -32 -16q-29 0 -48 21q-14 -22 -42 -22 q-23 0 -39.5 13.5t-16.5 35.5q1 19 20 31q16 10 37 10q24 0 37 -12q17 11 42 11q27 0 41 -14q18 16 45 16q25 0 39 -15q18 15 44 15t40 -15q18 14 48 14q45 0 45 -32z" />
<glyph unicode="&#xa6;" d="M87 332h-40v362h40v-362zM87 -216h-40v362h40v-362z" />
<glyph unicode="&#xa7;" />
<glyph unicode="&#xa8;" d="M277 578q0 -20 -16 -32t-36 -12q-21 0 -37 12t-16 32q0 19 16 31.5t37 12.5q20 0 36 -12.5t16 -31.5zM107 578q0 -20 -16 -32t-36 -12q-21 0 -37 12t-16 32t16 32t37 12q20 0 36 -12.5t16 -31.5z" />
<glyph unicode="&#xa9;" d="M423 485q0 -29 -27 -29q-29 0 -28 29q0 24 29 24q26 0 26 -24zM390 530q-1 -28 -27 -28q-13 0 -22 11q-8 -11 -21 -11q-14 0 -23 10q-7 -10 -21 -10q-5 0 -10 1q7 -9 7 -20q0 -24 -22 -27q6 -7 6 -17q0 -16 -11 -24q10 -7 10 -22q0 -17 -14 -25q14 -5 14 -22t-14 -24 q13 -6 13 -22q0 -13 -9 -21q23 -2 23 -27q0 -10 -5 -20q18 4 28 -8q9 9 23 9q13 0 21 -9q8 9 23 9q26 0 25 -24q0 -28 -26 -28q-14 0 -23 10q-7 -10 -21 -10t-23 10q-7 -10 -19 -10t-21.5 8t-9.5 19q0 7 5 13q-13 0 -23 10.5t-10 22.5t10 19q-23 5 -23 27q0 15 16 22 q-16 7 -16 24q0 15 15 22q-14 6 -14 21q0 16 14 26q-13 8 -13 24q0 24 23 27q-8 7 -8 18q0 12 9 21t21 9q3 0 6 -1q-7 8 -7 16q0 12 10 19.5t22 7.5q13 0 20 -10q9 8 22 8q14 0 21 -8q9 8 23 8q26 0 26 -24zM419 255q0 -28 -26 -28q-30 0 -29 28q0 24 29 24q26 0 26 -24z M598 366q0 -117 -82 -199t-199 -82q-116 0 -198 82t-82 199q0 116 82 198t198 82t198.5 -82t82.5 -198zM574 366q0 106 -75 181t-182 75q-105 0 -180 -75t-75 -181t74.5 -181t180.5 -75t181.5 75t75.5 181z" />
<glyph unicode="&#xab;" horiz-adv-x="500" d="M282 458q0 42 -48 42q-22 0 -36 -10q-17 -12 -19 -32q0 -22 16 -35.5t38 -13.5q48 0 49 49zM202 389q0 29 -44 29q-23 0 -39 -9q-20 -12 -22 -32q0 -20 11.5 -34t32.5 -14q42 0 59 48q2 6 2 12zM117 296q1 42 -48 42q-22 0 -36 -10q-18 -12 -18 -32q-1 -22 15 -35.5 t39 -13.5q47 0 48 49zM276 134q7 43 -44 43q-20 0 -39 -12t-19 -31q-1 -19 15.5 -32t36.5 -13q42 0 50 45zM197 215q2 41 -51 41q-21 0 -37 -10q-19 -10 -14 -31q5 -20 22 -34.5t38 -14.5q42 0 42 49zM482 458q0 42 -48 42q-22 0 -36 -10q-17 -12 -19 -32q0 -22 16 -35.5 t38 -13.5q48 0 49 49zM402 389q0 29 -44 29q-23 0 -39 -9q-20 -12 -22 -32q0 -20 11.5 -34t32.5 -14q42 0 59 48q2 6 2 12zM317 296q1 42 -48 42q-22 0 -36 -10q-18 -12 -18 -32q-1 -22 15 -35.5t39 -13.5q47 0 48 49zM476 134q7 43 -44 43q-20 0 -39 -12t-19 -31 q-1 -19 15.5 -32t36.5 -13q42 0 50 45zM397 215q2 41 -51 41q-21 0 -37 -10q-19 -10 -14 -31q5 -20 22 -34.5t38 -14.5q42 0 42 49z" />
<glyph unicode="&#xae;" d="M452 438q0 -21 -23 -24q7 -4 7 -12q0 -12 -11 -22t-23 -10q-4 0 -8 1q5 -5 5 -13q0 -13 -11 -20q21 -1 21 -15q0 -11 -13 -24q32 3 32 -23q0 -8 -5 -15q25 -1 25 -18q0 -13 -9.5 -21.5t-22.5 -8.5q-26 0 -26 24q0 9 6 15q-27 4 -27 25q0 7 6 12q-24 1 -24 26q0 14 13 19 q-7 2 -13 6q-7 -6 -17 -6q-15 0 -26 10q-7 -11 -23 -11q-15 0 -24 9q-4 -4 -9 -6q14 -5 14 -19t-14 -21q13 -5 13 -19q0 -15 -14 -21q13 -6 13 -19q-1 -28 -25 -28q-12 0 -22.5 8t-10.5 20q1 14 17 19q-16 7 -16 21t16 19q-15 7 -15 20q0 14 17 20q-17 7 -17 21t16 19 q-15 6 -15 19q0 14 15 22q-14 8 -14 22q0 13 13 20q-12 7 -12 19q0 13 15 19q-15 5 -15 16q0 12 11.5 20t23.5 8q11 0 19 -8q10 8 24 8q15 0 22 -8q9 7 23 7t22 -8q10 8 23 8q29 0 29 -21q0 -7 -5 -14q13 1 24 -7t11 -21q0 -11 -11 -18q25 -1 25 -21zM405 419q-12 6 -12 18 q0 11 11 17q-25 4 -25 26q0 7 4 15q-17 -2 -27 8q-8 -9 -22 -9q-15 0 -24 9q-7 -9 -22 -9t-25 10q-3 -4 -8 -7q14 -5 14 -19t-13 -20q12 -7 12 -20t-12 -20q12 -6 12 -19q0 -16 -15 -22q5 -2 8 -6q10 8 24 8t22 -7q9 6 23 6q12 0 20 -5q9 6 21 6q8 0 15 -2q-8 7 -9 21 q0 18 28 21zM598 366q0 -117 -82 -199t-199 -82q-116 0 -198 82t-82 199q0 116 82 198t198 82t198.5 -82t82.5 -198zM574 366q0 106 -75 181t-182 75q-105 0 -180 -75t-75 -181t74.5 -181t180.5 -75t181.5 75t75.5 181z" />
<glyph unicode="&#xb4;" horiz-adv-x="175" d="M118 568q-18 -2 -29 10q-3 -15 -17.5 -28t-30.5 -13q-15 0 -27.5 13.5t-13.5 29.5q-1 17 13.5 28.5t31.5 13.5q20 1 33 -10q3 42 43 39q16 -2 28 -14.5t12 -28.5t-13 -27t-30 -13z" />
<glyph unicode="&#xb8;" d="M363 -150q1 -42 -48 -42q-26 0 -44 16q-13 -14 -40 -14q-52 0 -52 33q0 20 20.5 38.5t41.5 18.5q20 0 31 -18l17 12q-12 4 -23 9q-7 5 -7 28q0 16 12 29h-4q-21 -1 -36 10q-18 12 -18 32q-1 22 14.5 36t38.5 14q48 0 49 -50q0 -16 -7 -26l7 -5l29 -15q14 -7 17 -25 q6 -29 -20 -39q22 -13 22 -42z" />
<glyph unicode="&#xbb;" horiz-adv-x="500" d="M479 296q-2 42 -54 42q-48 0 -48 -42q1 -49 49 -49q22 0 37.5 13.5t15.5 35.5zM397 377q-2 20 -21 32q-18 9 -39 9q-44 0 -44 -29q0 -9 1 -12q16 -48 59 -48q45 0 44 48zM314 458q-2 42 -54 42q-48 0 -48 -42q1 -49 49 -49q23 0 38.5 13.5t14.5 35.5zM400 215 q5 20 -15 31q-16 10 -37 10q-51 0 -51 -41q1 -49 42 -49q21 0 38.5 14.5t22.5 34.5zM320 134q0 19 -20 33q-16 10 -39 10q-50 0 -43 -43q9 -45 49 -45q20 0 37 13t16 32zM289 296q-2 42 -54 42q-48 0 -48 -42q1 -49 49 -49q22 0 37.5 13.5t15.5 35.5zM207 377q-2 20 -21 32 q-18 9 -39 9q-44 0 -44 -29q0 -9 1 -12q16 -48 59 -48q45 0 44 48zM124 458q-2 42 -54 42q-48 0 -48 -42q1 -49 49 -49q23 0 38.5 13.5t14.5 35.5zM210 215q5 20 -15 31q-16 10 -37 10q-51 0 -51 -41q1 -49 42 -49q21 0 38.5 14.5t22.5 34.5zM130 134q0 19 -20 33 q-16 10 -39 10q-50 0 -43 -43q9 -45 49 -45q20 0 37 13t16 32z" />
<glyph unicode="&#xbf;" d="M77 -123q0 38 35 48q-16 11 -16 33q2 49 49 49q22 0 38 -13.5t16 -35.5q-1 -33 -41 -41q22 -15 21 -40q-1 -42 -54 -42q-49 0 -48 42zM157 -204q0 21 14 35t35 14q24 0 42 -18q13 18 38 18t42 -17q13 18 37 18q23 0 40 -14t16 -36q0 -20 -18 -33t-38 -13q-26 0 -38 18 q-16 -14 -42 -14q-25 0 -38 15q-17 -15 -43 -15q-48 0 -47 42zM169 39q1 49 50 49q22 0 37.5 -13.5t15.5 -35.5q-1 -20 -17 -31t-37 -11q-49 0 -49 42zM401 -123q0 49 49 49q23 0 38.5 -13.5t14.5 -35.5q0 -20 -16.5 -31t-37.5 -11q-49 0 -48 42zM243 120q1 49 43 49 q21 0 38 -14.5t22 -34.5q4 -19 -16 -31q-16 -10 -37 -10q-51 0 -50 41zM248 363q0 49 48 49q23 0 38.5 -13.5t14.5 -35.5q-1 -42 -54 -42q-48 0 -47 42z" />
<glyph unicode="&#xc0;" d="M393 620q-1 -21 -15 -35t-35 -14q-24 0 -41 18q-14 -18 -39 -18t-41 17q-14 -18 -38 -18q-23 0 -39.5 14t-16.5 36q0 20 18 33t39 13q25 0 37 -18q17 14 42 14t39 -15q16 15 42 15q48 0 48 -42zM472 455q0 -27 -25 -40q24 -8 24 -31q0 -31 -30 -48q27 -10 27 -41 q0 -29 -23 -42q23 -8 23 -31q0 -32 -30 -48q27 -10 27 -42q0 -26 -20 -39q20 -8 20 -29q0 -4 -1 -11q-13 -49 -56 -49q-21 0 -33.5 14t-12.5 35q0 25 30 37q-29 13 -29 42q0 27 27 39q-26 13 -26 40q0 29 31 41q-11 4 -18 13q-13 -18 -38 -18q-26 0 -42 17q-12 -17 -33 -17 q-27 0 -46 21q-14 -21 -41 -21t-43 18q-6 -9 -15 -13q24 -10 24 -38q0 -30 -24 -42q22 -11 22 -39q0 -30 -24 -42q23 -12 23 -38q-2 -58 -44 -58q-23 0 -40.5 17.5t-17.5 40.5q0 26 29 38q-28 13 -28 41t29 40q-27 13 -27 40q0 28 29 40q-28 13 -28 42q0 27 27 39 q-27 11 -27 37q0 30 27 46q-25 14 -25 42q0 41 43 47q-15 14 -14 34t17 31t37 11q49 0 49 -42q0 -43 -42 -49q13 -12 13 -32q0 -28 -21 -41q20 -13 20 -39q0 -31 -26 -44q9 -4 15 -11q16 15 42 15q25 0 38 -14q16 13 42 13t39 -14q16 15 43 15q26 0 39 -15q6 6 15 10 q-26 13 -26 40q0 29 31 41q-30 13 -30 43q0 21 19 33q-45 8 -44 49q1 20 17 31t37 11q49 0 49 -42q0 -25 -17 -39q43 -3 43 -45zM349 721q0 -16 -13 -29.5t-28 -13.5q-16 0 -30.5 13t-17.5 28q-11 -12 -29 -10q-17 2 -30 13t-13 27t12 28.5t28 14.5q40 3 44 -39q13 11 32 10 q17 -2 31.5 -13.5t13.5 -28.5z" />
<glyph unicode="&#xc1;" d="M393 620q-1 -21 -15 -35t-35 -14q-24 0 -41 18q-14 -18 -39 -18t-41 17q-14 -18 -38 -18q-23 0 -39.5 14t-16.5 36q0 20 18 33t39 13q25 0 37 -18q17 14 42 14t39 -15q16 15 42 15q48 0 48 -42zM472 455q0 -27 -25 -40q24 -8 24 -31q0 -31 -30 -48q27 -10 27 -41 q0 -29 -23 -42q23 -8 23 -31q0 -32 -30 -48q27 -10 27 -42q0 -26 -20 -39q20 -8 20 -29q0 -4 -1 -11q-13 -49 -56 -49q-21 0 -33.5 14t-12.5 35q0 25 30 37q-29 13 -29 42q0 27 27 39q-26 13 -26 40q0 29 31 41q-11 4 -18 13q-13 -18 -38 -18q-26 0 -42 17q-12 -17 -33 -17 q-27 0 -46 21q-14 -21 -41 -21t-43 18q-6 -9 -15 -13q24 -10 24 -38q0 -30 -24 -42q22 -11 22 -39q0 -30 -24 -42q23 -12 23 -38q-2 -58 -44 -58q-23 0 -40.5 17.5t-17.5 40.5q0 26 29 38q-28 13 -28 41t29 40q-27 13 -27 40q0 28 29 40q-28 13 -28 42q0 27 27 39 q-27 11 -27 37q0 30 27 46q-25 14 -25 42q0 41 43 47q-15 14 -14 34t17 31t37 11q49 0 49 -42q0 -43 -42 -49q13 -12 13 -32q0 -28 -21 -41q20 -13 20 -39q0 -31 -26 -44q9 -4 15 -11q16 15 42 15q25 0 38 -14q16 13 42 13t39 -14q16 15 43 15q26 0 39 -15q6 6 15 10 q-26 13 -26 40q0 29 31 41q-30 13 -30 43q0 21 19 33q-45 8 -44 49q1 20 17 31t37 11q49 0 49 -42q0 -25 -17 -39q43 -3 43 -45zM292 710q-18 -2 -29 10q-3 -15 -17.5 -28t-30.5 -13q-15 0 -27.5 13.5t-13.5 29.5q-1 17 13.5 28.5t31.5 13.5q20 1 33 -10q3 42 43 39 q16 -2 28 -14.5t12 -28.5t-13 -27t-30 -13z" />
<glyph unicode="&#xc2;" d="M393 620q-1 -21 -15 -35t-35 -14q-24 0 -41 18q-14 -18 -39 -18t-41 17q-14 -18 -38 -18q-23 0 -39.5 14t-16.5 36q0 20 18 33t39 13q25 0 37 -18q17 14 42 14t39 -15q16 15 42 15q48 0 48 -42zM472 455q0 -27 -25 -40q24 -8 24 -31q0 -31 -30 -48q27 -10 27 -41 q0 -29 -23 -42q23 -8 23 -31q0 -32 -30 -48q27 -10 27 -42q0 -26 -20 -39q20 -8 20 -29q0 -4 -1 -11q-13 -49 -56 -49q-21 0 -33.5 14t-12.5 35q0 25 30 37q-29 13 -29 42q0 27 27 39q-26 13 -26 40q0 29 31 41q-11 4 -18 13q-13 -18 -38 -18q-26 0 -42 17q-12 -17 -33 -17 q-27 0 -46 21q-14 -21 -41 -21t-43 18q-6 -9 -15 -13q24 -10 24 -38q0 -30 -24 -42q22 -11 22 -39q0 -30 -24 -42q23 -12 23 -38q-2 -58 -44 -58q-23 0 -40.5 17.5t-17.5 40.5q0 26 29 38q-28 13 -28 41t29 40q-27 13 -27 40q0 28 29 40q-28 13 -28 42q0 27 27 39 q-27 11 -27 37q0 30 27 46q-25 14 -25 42q0 41 43 47q-15 14 -14 34t17 31t37 11q49 0 49 -42q0 -43 -42 -49q13 -12 13 -32q0 -28 -21 -41q20 -13 20 -39q0 -31 -26 -44q9 -4 15 -11q16 15 42 15q25 0 38 -14q16 13 42 13t39 -14q16 15 43 15q26 0 39 -15q6 6 15 10 q-26 13 -26 40q0 29 31 41q-30 13 -30 43q0 21 19 33q-45 8 -44 49q1 20 17 31t37 11q49 0 49 -42q0 -25 -17 -39q43 -3 43 -45zM379 725q0 -17 -12.5 -31t-29.5 -14q-15 0 -30 13t-18 28q-9 -9 -29 -10h-4q-15 -1 -25 10q-3 -15 -17.5 -28t-30.5 -13t-28.5 14t-12.5 31 t16 28.5t34 11.5q14 0 25 -9q6 38 43 38t43 -38q11 9 25 9q19 0 35 -11.5t16 -28.5z" />
<glyph unicode="&#xc3;" d="M393 620q-1 -21 -15 -35t-35 -14q-24 0 -41 18q-14 -18 -39 -18t-41 17q-14 -18 -38 -18q-23 0 -39.5 14t-16.5 36q0 20 18 33t39 13q25 0 37 -18q17 14 42 14t39 -15q16 15 42 15q48 0 48 -42zM472 455q0 -27 -25 -40q24 -8 24 -31q0 -31 -30 -48q27 -10 27 -41 q0 -29 -23 -42q23 -8 23 -31q0 -32 -30 -48q27 -10 27 -42q0 -26 -20 -39q20 -8 20 -29q0 -4 -1 -11q-13 -49 -56 -49q-21 0 -33.5 14t-12.5 35q0 25 30 37q-29 13 -29 42q0 27 27 39q-26 13 -26 40q0 29 31 41q-11 4 -18 13q-13 -18 -38 -18q-26 0 -42 17q-12 -17 -33 -17 q-27 0 -46 21q-14 -21 -41 -21t-43 18q-6 -9 -15 -13q24 -10 24 -38q0 -30 -24 -42q22 -11 22 -39q0 -30 -24 -42q23 -12 23 -38q-2 -58 -44 -58q-23 0 -40.5 17.5t-17.5 40.5q0 26 29 38q-28 13 -28 41t29 40q-27 13 -27 40q0 28 29 40q-28 13 -28 42q0 27 27 39 q-27 11 -27 37q0 30 27 46q-25 14 -25 42q0 41 43 47q-15 14 -14 34t17 31t37 11q49 0 49 -42q0 -43 -42 -49q13 -12 13 -32q0 -28 -21 -41q20 -13 20 -39q0 -31 -26 -44q9 -4 15 -11q16 15 42 15q25 0 38 -14q16 13 42 13t39 -14q16 15 43 15q26 0 39 -15q6 6 15 10 q-26 13 -26 40q0 29 31 41q-30 13 -30 43q0 21 19 33q-45 8 -44 49q1 20 17 31t37 11q49 0 49 -42q0 -25 -17 -39q43 -3 43 -45zM417 743q0 -38 -45 -38q-12 0 -23 7q-17 -35 -36 -35q-16 0 -30.5 12.5t-17.5 28.5q-10 -10 -34 -10q-14 0 -24 10q-3 -16 -17.5 -28.5 t-30.5 -12.5q-17 0 -29.5 14t-12.5 30q0 18 16 29.5t35 11.5q14 0 25 -9q6 37 43 37t43 -37q11 9 25 9q13 0 25 -6q9 34 43 34q19 0 32 -14t13 -33z" />
<glyph unicode="&#xc4;" d="M393 620q-1 -21 -15 -35t-35 -14q-24 0 -41 18q-14 -18 -39 -18t-41 17q-14 -18 -38 -18q-23 0 -39.5 14t-16.5 36q0 20 18 33t39 13q25 0 37 -18q17 14 42 14t39 -15q16 15 42 15q48 0 48 -42zM472 455q0 -27 -25 -40q24 -8 24 -31q0 -31 -30 -48q27 -10 27 -41 q0 -29 -23 -42q23 -8 23 -31q0 -32 -30 -48q27 -10 27 -42q0 -26 -20 -39q20 -8 20 -29q0 -4 -1 -11q-13 -49 -56 -49q-21 0 -33.5 14t-12.5 35q0 25 30 37q-29 13 -29 42q0 27 27 39q-26 13 -26 40q0 29 31 41q-11 4 -18 13q-13 -18 -38 -18q-26 0 -42 17q-12 -17 -33 -17 q-27 0 -46 21q-14 -21 -41 -21t-43 18q-6 -9 -15 -13q24 -10 24 -38q0 -30 -24 -42q22 -11 22 -39q0 -30 -24 -42q23 -12 23 -38q-2 -58 -44 -58q-23 0 -40.5 17.5t-17.5 40.5q0 26 29 38q-28 13 -28 41t29 40q-27 13 -27 40q0 28 29 40q-28 13 -28 42q0 27 27 39 q-27 11 -27 37q0 30 27 46q-25 14 -25 42q0 41 43 47q-15 14 -14 34t17 31t37 11q49 0 49 -42q0 -43 -42 -49q13 -12 13 -32q0 -28 -21 -41q20 -13 20 -39q0 -31 -26 -44q9 -4 15 -11q16 15 42 15q25 0 38 -14q16 13 42 13t39 -14q16 15 43 15q26 0 39 -15q6 6 15 10 q-26 13 -26 40q0 29 31 41q-30 13 -30 43q0 21 19 33q-45 8 -44 49q1 20 17 31t37 11q49 0 49 -42q0 -25 -17 -39q43 -3 43 -45zM395 744q0 -20 -16 -32t-36 -12q-21 0 -37 12t-16 32q0 19 16 31.5t37 12.5q20 0 36 -12.5t16 -31.5zM225 744q0 -20 -16 -32t-36 -12 q-21 0 -37 12t-16 32t16 32t37 12q20 0 36 -12.5t16 -31.5z" />
<glyph unicode="&#xc5;" d="M393 620q-1 -21 -15 -35t-35 -14q-24 0 -41 18q-14 -18 -39 -18t-41 17q-14 -18 -38 -18q-23 0 -39.5 14t-16.5 36q0 20 18 33t39 13q25 0 37 -18q17 14 42 14t39 -15q16 15 42 15q48 0 48 -42zM472 455q0 -27 -25 -40q24 -8 24 -31q0 -31 -30 -48q27 -10 27 -41 q0 -29 -23 -42q23 -8 23 -31q0 -32 -30 -48q27 -10 27 -42q0 -26 -20 -39q20 -8 20 -29q0 -4 -1 -11q-13 -49 -56 -49q-21 0 -33.5 14t-12.5 35q0 25 30 37q-29 13 -29 42q0 27 27 39q-26 13 -26 40q0 29 31 41q-11 4 -18 13q-13 -18 -38 -18q-26 0 -42 17q-12 -17 -33 -17 q-27 0 -46 21q-14 -21 -41 -21t-43 18q-6 -9 -15 -13q24 -10 24 -38q0 -30 -24 -42q22 -11 22 -39q0 -30 -24 -42q23 -12 23 -38q-2 -58 -44 -58q-23 0 -40.5 17.5t-17.5 40.5q0 26 29 38q-28 13 -28 41t29 40q-27 13 -27 40q0 28 29 40q-28 13 -28 42q0 27 27 39 q-27 11 -27 37q0 30 27 46q-25 14 -25 42q0 41 43 47q-15 14 -14 34t17 31t37 11q49 0 49 -42q0 -43 -42 -49q13 -12 13 -32q0 -28 -21 -41q20 -13 20 -39q0 -31 -26 -44q9 -4 15 -11q16 15 42 15q25 0 38 -14q16 13 42 13t39 -14q16 15 43 15q26 0 39 -15q6 6 15 10 q-26 13 -26 40q0 29 31 41q-30 13 -30 43q0 21 19 33q-45 8 -44 49q1 20 17 31t37 11q49 0 49 -42q0 -25 -17 -39q43 -3 43 -45zM371 685q-1 -22 -17.5 -36.5t-39.5 -13.5q4 -25 -11.5 -40t-39.5 -16q-48 -2 -48 36q0 11 5 24q-29 -10 -50 11q-13 14 -10 34q4 20 20.5 36 t36.5 15q2 20 19.5 41t36.5 21q15 0 27 -17q18 -27 8 -51q10 6 20 6q17 0 30.5 -16t12.5 -34zM280 701q-11 -5 -22 -5q2 -11 -2 -21q9 2 17 2q0 12 7 24z" />
<glyph unicode="&#xc6;" d="M614 66q0 -23 -18 -42.5t-40 -19.5q-17 0 -29 12q-33 -11 -40 -11q-22 0 -38 17q-13 -18 -38 -18q-24 0 -40 16q-12 -25 -35 -25t-42 18.5t-19 41.5q0 24 30 37q-27 13 -27 41t28 40q-27 13 -27 40t27 39l-10 6q-12 -11 -32 -11q-28 0 -46 14q-12 -14 -42 -14 q-33 0 -49 18q-6 -8 -15 -13q24 -10 24 -38q0 -30 -24 -42q22 -11 22 -39q0 -30 -24 -42q23 -11 23 -38q0 -58 -44 -58q-24 0 -41 17.5t-17 40.5q0 26 29 38q-28 13 -28 41t29 40q-27 13 -27 40q0 28 29 40q-28 13 -28 42q0 27 27 39q-27 11 -27 37q0 30 27 46 q-25 14 -25 42q0 42 43 47q-14 13 -14 31q0 21 16 33t38 12q49 0 49 -42q0 -43 -42 -49q13 -12 13 -32q0 -28 -21 -41q20 -13 20 -39q0 -31 -26 -44q9 -4 15 -11q16 15 49 15q27 0 39 -9q18 9 48 9q20 0 33 -9l10 5q-26 11 -26 37q0 30 27 46q-25 13 -25 43q0 27 23 40 q-21 14 -21 38q0 26 25 39q-4 2 -16 10q-14 -16 -38 -16q-25 0 -41 17q-14 -18 -38 -18q-23 0 -39.5 14t-16.5 36q0 20 18 33t39 13q25 0 37 -18q17 14 42 14t39 -15q21 20 50 20q20 0 34 -17q17 16 43 16t38 -17q17 15 41 15q15 0 27 -6q12 6 30 6q53 0 53 -43 q0 -50 -44 -50q-18 0 -33 11q-44 -10 -45 -10q-14 0 -30 17q-13 -18 -38 -18q-27 0 -45 19q-5 -8 -15 -12q25 -10 25 -39q0 -28 -22 -41q21 -14 21 -40q0 -95 -13 -112l-14 -11q15 -3 24 -12q16 15 43 15q26 0 39 -15q16 15 42 15q48 0 48 -42q0 -21 -14.5 -35t-35.5 -14 q-25 0 -41 18q-13 -18 -38 -18q-26 0 -42 17q-8 -11 -20 -15q18 -11 18 -34q0 -30 -24 -42q22 -11 22 -39q0 -30 -24 -42l13 -11q17 15 43 15q25 0 38 -15q16 15 38 15q11 0 42 -10q16 11 42 11q42 0 42 -31z" />
<glyph unicode="&#xc7;" d="M461 539q-1 -49 -50 -49q-22 0 -37.5 13.5t-15.5 35.5q1 20 17 31t37 11q49 0 49 -42zM399 620q-1 -21 -15 -35t-35 -14q-24 0 -41 18q-14 -18 -39 -18t-41 17q-14 -18 -39 -18q-10 0 -19 2q13 -16 13 -36q0 -43 -42 -46q12 -13 12 -32q0 -28 -21 -41q20 -13 20 -39 q0 -31 -26 -44q24 -10 24 -39q0 -30 -25 -43q24 -10 24 -38q0 -23 -17 -38q43 -3 43 -47q0 -18 -10 -35q8 2 16 2q23 0 37 -16q16 15 42 15q25 0 39 -15q16 15 42 15q48 0 48 -42q-1 -21 -14.5 -35t-35.5 -14q-24 0 -41 18q-14 -18 -39 -18q-26 0 -42 18q-14 -18 -37 -18 q-21 0 -39 13.5t-18 33.5q0 12 9 24q-23 0 -41.5 18t-18.5 40q0 21 19 33q-44 9 -44 47q0 27 29 39q-28 13 -28 42q0 27 27 39q-27 11 -27 37q0 30 27 46q-25 14 -25 42q0 42 43 48q-15 13 -15 31q0 22 17.5 37.5t39.5 15.5q5 0 11 -1q-13 14 -13 29q0 20 19 34t40 14 q24 0 36 -18q17 14 42 14t39 -15q16 15 42 15q48 0 48 -42zM453 134q0 -49 -48 -49q-22 0 -38.5 13.5t-15.5 35.5q0 20 17 31t38 11q48 0 47 -42zM355 -110q1 -42 -48 -42q-26 0 -44 16q-13 -14 -40 -14q-52 0 -52 33q0 20 20.5 38.5t41.5 18.5q20 0 31 -18l17 12 q-12 4 -23 9q-7 5 -7 28q0 16 12 29h-4q-21 -1 -36 10q-18 12 -18 32q-1 22 14.5 36t38.5 14q48 0 49 -50q0 -16 -7 -26l7 -5l29 -15q14 -7 17 -25q6 -29 -20 -39q22 -13 22 -42z" />
<glyph unicode="&#xc8;" d="M486 620q-1 -49 -45 -49q-25 0 -44 21q-13 -21 -41 -21q-26 0 -42 18q-14 -18 -39 -18t-41 17q-14 -18 -39 -18q-27 0 -44 19q-6 -8 -16 -12q26 -10 26 -39q0 -28 -23 -41q21 -14 21 -40q0 -27 -21 -40l13 -13q18 14 47 14q21 0 34 -9q12 9 29 9q27 0 45 -18q16 19 46 19 q50 0 49 -42q0 -21 -14.5 -35t-35.5 -14q-20 0 -36 13q-13 -12 -35 -12q-37 0 -55 24q-18 -24 -46 -24q-20 0 -33 16q-6 -7 -14 -11q24 -10 24 -39q0 -30 -25 -43q24 -10 24 -38q0 -30 -24 -42q22 -11 22 -39q0 -30 -24 -42l14 -11q16 15 42 15q25 0 39 -15q16 15 42 15 q25 0 39 -15q16 15 42 15t40 -15q18 16 48 16q42 0 42 -31q0 -23 -18 -42t-40 -19q-21 0 -34 17q-15 -17 -39 -17q-26 0 -42 18q-14 -18 -39 -18q-26 0 -42 18q-14 -18 -39 -18q-23 0 -40 15q-11 -24 -35 -24q-22 0 -41.5 18.5t-19.5 40.5q0 24 31 37q-28 13 -28 41t29 40 q-27 13 -27 40q0 28 29 40q-28 13 -28 42q0 27 27 39q-27 11 -27 37q0 30 27 46q-25 13 -25 43q0 27 24 40q-22 14 -22 38q0 26 26 39q-27 11 -27 33t20 39.5t42 17.5q20 0 34 -17q18 16 44 16q25 0 37 -17q17 14 42 14t39 -15q16 15 42 15q22 0 36 -11q14 12 39 12 q54 0 54 -43zM366 719q0 -16 -13 -29.5t-28 -13.5q-16 0 -30.5 13t-17.5 28q-11 -12 -29 -10q-17 2 -30 13t-13 27t12 28.5t28 14.5q40 3 44 -39q13 11 32 10q17 -2 31.5 -13.5t13.5 -28.5z" />
<glyph unicode="&#xc9;" d="M486 620q-1 -49 -45 -49q-25 0 -44 21q-13 -21 -41 -21q-26 0 -42 18q-14 -18 -39 -18t-41 17q-14 -18 -39 -18q-27 0 -44 19q-6 -8 -16 -12q26 -10 26 -39q0 -28 -23 -41q21 -14 21 -40q0 -27 -21 -40l13 -13q18 14 47 14q21 0 34 -9q12 9 29 9q27 0 45 -18q16 19 46 19 q50 0 49 -42q0 -21 -14.5 -35t-35.5 -14q-20 0 -36 13q-13 -12 -35 -12q-37 0 -55 24q-18 -24 -46 -24q-20 0 -33 16q-6 -7 -14 -11q24 -10 24 -39q0 -30 -25 -43q24 -10 24 -38q0 -30 -24 -42q22 -11 22 -39q0 -30 -24 -42l14 -11q16 15 42 15q25 0 39 -15q16 15 42 15 q25 0 39 -15q16 15 42 15t40 -15q18 16 48 16q42 0 42 -31q0 -23 -18 -42t-40 -19q-21 0 -34 17q-15 -17 -39 -17q-26 0 -42 18q-14 -18 -39 -18q-26 0 -42 18q-14 -18 -39 -18q-23 0 -40 15q-11 -24 -35 -24q-22 0 -41.5 18.5t-19.5 40.5q0 24 31 37q-28 13 -28 41t29 40 q-27 13 -27 40q0 28 29 40q-28 13 -28 42q0 27 27 39q-27 11 -27 37q0 30 27 46q-25 13 -25 43q0 27 24 40q-22 14 -22 38q0 26 26 39q-27 11 -27 33t20 39.5t42 17.5q20 0 34 -17q18 16 44 16q25 0 37 -17q17 14 42 14t39 -15q16 15 42 15q22 0 36 -11q14 12 39 12 q54 0 54 -43zM302 713q-18 -2 -29 10q-3 -15 -17.5 -28t-30.5 -13q-15 0 -27.5 13.5t-13.5 29.5q-1 17 13.5 28.5t31.5 13.5q20 1 33 -10q3 42 43 39q16 -2 28 -14.5t12 -28.5t-13 -27t-30 -13z" />
<glyph unicode="&#xca;" d="M486 620q-1 -49 -45 -49q-25 0 -44 21q-13 -21 -41 -21q-26 0 -42 18q-14 -18 -39 -18t-41 17q-14 -18 -39 -18q-27 0 -44 19q-6 -8 -16 -12q26 -10 26 -39q0 -28 -23 -41q21 -14 21 -40q0 -27 -21 -40l13 -13q18 14 47 14q21 0 34 -9q12 9 29 9q27 0 45 -18q16 19 46 19 q50 0 49 -42q0 -21 -14.5 -35t-35.5 -14q-20 0 -36 13q-13 -12 -35 -12q-37 0 -55 24q-18 -24 -46 -24q-20 0 -33 16q-6 -7 -14 -11q24 -10 24 -39q0 -30 -25 -43q24 -10 24 -38q0 -30 -24 -42q22 -11 22 -39q0 -30 -24 -42l14 -11q16 15 42 15q25 0 39 -15q16 15 42 15 q25 0 39 -15q16 15 42 15t40 -15q18 16 48 16q42 0 42 -31q0 -23 -18 -42t-40 -19q-21 0 -34 17q-15 -17 -39 -17q-26 0 -42 18q-14 -18 -39 -18q-26 0 -42 18q-14 -18 -39 -18q-23 0 -40 15q-11 -24 -35 -24q-22 0 -41.5 18.5t-19.5 40.5q0 24 31 37q-28 13 -28 41t29 40 q-27 13 -27 40q0 28 29 40q-28 13 -28 42q0 27 27 39q-27 11 -27 37q0 30 27 46q-25 13 -25 43q0 27 24 40q-22 14 -22 38q0 26 26 39q-27 11 -27 33t20 39.5t42 17.5q20 0 34 -17q18 16 44 16q25 0 37 -17q17 14 42 14t39 -15q16 15 42 15q22 0 36 -11q14 12 39 12 q54 0 54 -43zM395 727q0 -17 -12.5 -31t-29.5 -14q-15 0 -30 13t-18 28q-9 -9 -29 -10h-4q-15 -1 -25 10q-3 -15 -17.5 -28t-30.5 -13t-28.5 14t-12.5 31t16 28.5t34 11.5q14 0 25 -9q6 38 43 38t43 -38q11 9 25 9q19 0 35 -11.5t16 -28.5z" />
<glyph unicode="&#xcb;" d="M486 620q-1 -49 -45 -49q-25 0 -44 21q-13 -21 -41 -21q-26 0 -42 18q-14 -18 -39 -18t-41 17q-14 -18 -39 -18q-27 0 -44 19q-6 -8 -16 -12q26 -10 26 -39q0 -28 -23 -41q21 -14 21 -40q0 -27 -21 -40l13 -13q18 14 47 14q21 0 34 -9q12 9 29 9q27 0 45 -18q16 19 46 19 q50 0 49 -42q0 -21 -14.5 -35t-35.5 -14q-20 0 -36 13q-13 -12 -35 -12q-37 0 -55 24q-18 -24 -46 -24q-20 0 -33 16q-6 -7 -14 -11q24 -10 24 -39q0 -30 -25 -43q24 -10 24 -38q0 -30 -24 -42q22 -11 22 -39q0 -30 -24 -42l14 -11q16 15 42 15q25 0 39 -15q16 15 42 15 q25 0 39 -15q16 15 42 15t40 -15q18 16 48 16q42 0 42 -31q0 -23 -18 -42t-40 -19q-21 0 -34 17q-15 -17 -39 -17q-26 0 -42 18q-14 -18 -39 -18q-26 0 -42 18q-14 -18 -39 -18q-23 0 -40 15q-11 -24 -35 -24q-22 0 -41.5 18.5t-19.5 40.5q0 24 31 37q-28 13 -28 41t29 40 q-27 13 -27 40q0 28 29 40q-28 13 -28 42q0 27 27 39q-27 11 -27 37q0 30 27 46q-25 13 -25 43q0 27 24 40q-22 14 -22 38q0 26 26 39q-27 11 -27 33t20 39.5t42 17.5q20 0 34 -17q18 16 44 16q25 0 37 -17q17 14 42 14t39 -15q16 15 42 15q22 0 36 -11q14 12 39 12 q54 0 54 -43zM408 749q0 -20 -16 -32t-36 -12q-21 0 -37 12t-16 32q0 19 16 31.5t37 12.5q20 0 36 -12.5t16 -31.5zM238 749q0 -20 -16 -32t-36 -12q-21 0 -37 12t-16 32t16 32t37 12q20 0 36 -12.5t16 -31.5z" />
<glyph unicode="&#xcc;" d="M375 620q-1 -21 -15 -35t-35 -14q-24 0 -41 18q-6 -8 -15 -12q24 -11 24 -39q0 -30 -25 -42q24 -11 24 -38q0 -36 -32 -47q33 -16 33 -49q0 -24 -27 -31q22 -10 22 -38q0 -29 -23 -41q22 -11 22 -38q0 -28 -22 -41q21 -9 21 -32q0 -36 -31 -48q12 -4 20 -13q16 15 42 15 q48 0 48 -42q-1 -21 -14.5 -35t-35.5 -14q-24 0 -41 18q-14 -18 -39 -18q-26 0 -42 18q-14 -18 -38 -18q-22 0 -38 13.5t-16 35.5q0 20 18 32q15 10 36 10q25 0 39 -15q9 9 22 13q-33 11 -33 40q0 26 30 38q-28 13 -28 41q0 32 33 43q-32 17 -32 45q0 27 35 35 q-34 12 -34 45q0 26 27 36q-26 13 -26 40q0 28 29 40q-27 13 -27 41t29 40q-9 4 -15 11q-14 -18 -38 -18q-23 0 -39.5 14t-16.5 36q0 20 18 33t39 13q25 0 37 -18q17 14 42 14t39 -15q16 15 42 15q48 0 48 -42zM293 719q0 -16 -13 -29.5t-28 -13.5q-16 0 -30.5 13t-17.5 28 q-11 -12 -29 -10q-17 2 -30 13t-13 27t12 28.5t28 14.5q40 3 44 -39q13 11 32 10q17 -2 31.5 -13.5t13.5 -28.5z" />
<glyph unicode="&#xcd;" d="M372 620q-1 -21 -15 -35t-35 -14q-24 0 -41 18q-6 -8 -15 -12q24 -11 24 -39q0 -30 -25 -42q24 -11 24 -38q0 -36 -32 -47q33 -16 33 -49q0 -24 -27 -31q22 -10 22 -38q0 -29 -23 -41q22 -11 22 -38q0 -28 -22 -41q21 -9 21 -32q0 -36 -31 -48q12 -4 20 -13q16 15 42 15 q48 0 48 -42q-1 -21 -14.5 -35t-35.5 -14q-24 0 -41 18q-14 -18 -39 -18q-26 0 -42 18q-14 -18 -38 -18q-22 0 -38 13.5t-16 35.5q0 20 18 32q15 10 36 10q25 0 39 -15q9 9 22 13q-33 11 -33 40q0 26 30 38q-28 13 -28 41q0 32 33 43q-32 17 -32 45q0 27 35 35 q-34 12 -34 45q0 26 27 36q-26 13 -26 40q0 28 29 40q-27 13 -27 41t29 40q-9 4 -15 11q-14 -18 -38 -18q-23 0 -39.5 14t-16.5 36q0 20 18 33t39 13q25 0 37 -18q17 14 42 14t39 -15q16 15 42 15q48 0 48 -42zM258 713q-18 -2 -29 10q-3 -15 -17.5 -28t-30.5 -13 q-15 0 -27.5 13.5t-13.5 29.5q-1 17 13.5 28.5t31.5 13.5q20 1 33 -10q3 42 43 39q16 -2 28 -14.5t12 -28.5t-13 -27t-30 -13z" />
<glyph unicode="&#xce;" d="M400 620q-1 -21 -15 -35t-35 -14q-24 0 -41 18q-6 -8 -15 -12q24 -11 24 -39q0 -30 -25 -42q24 -11 24 -38q0 -36 -32 -47q33 -16 33 -49q0 -24 -27 -31q22 -10 22 -38q0 -29 -23 -41q22 -11 22 -38q0 -28 -22 -41q21 -9 21 -32q0 -36 -31 -48q12 -4 20 -13q16 15 42 15 q48 0 48 -42q-1 -21 -14.5 -35t-35.5 -14q-24 0 -41 18q-14 -18 -39 -18q-26 0 -42 18q-14 -18 -38 -18q-22 0 -38 13.5t-16 35.5q0 20 18 32q15 10 36 10q25 0 39 -15q9 9 22 13q-33 11 -33 40q0 26 30 38q-28 13 -28 41q0 32 33 43q-32 17 -32 45q0 27 35 35 q-34 12 -34 45q0 26 27 36q-26 13 -26 40q0 28 29 40q-27 13 -27 41t29 40q-9 4 -15 11q-14 -18 -38 -18q-23 0 -39.5 14t-16.5 36q0 20 18 33t39 13q25 0 37 -18q17 14 42 14t39 -15q16 15 42 15q48 0 48 -42zM386 730q0 -17 -12.5 -31t-29.5 -14q-15 0 -30 13t-18 28 q-9 -9 -29 -10h-4q-15 -1 -25 10q-3 -15 -17.5 -28t-30.5 -13t-28.5 14t-12.5 31t16 28.5t34 11.5q14 0 25 -9q6 38 43 38t43 -38q11 9 25 9q19 0 35 -11.5t16 -28.5z" />
<glyph unicode="&#xcf;" d="M407 620q-1 -21 -15 -35t-35 -14q-24 0 -41 18q-6 -8 -15 -12q24 -11 24 -39q0 -30 -25 -42q24 -11 24 -38q0 -36 -32 -47q33 -16 33 -49q0 -24 -27 -31q22 -10 22 -38q0 -29 -23 -41q22 -11 22 -38q0 -28 -22 -41q21 -9 21 -32q0 -36 -31 -48q12 -4 20 -13q16 15 42 15 q48 0 48 -42q-1 -21 -14.5 -35t-35.5 -14q-24 0 -41 18q-14 -18 -39 -18q-26 0 -42 18q-14 -18 -38 -18q-22 0 -38 13.5t-16 35.5q0 20 18 32q15 10 36 10q25 0 39 -15q9 9 22 13q-33 11 -33 40q0 26 30 38q-28 13 -28 41q0 32 33 43q-32 17 -32 45q0 27 35 35 q-34 12 -34 45q0 26 27 36q-26 13 -26 40q0 28 29 40q-27 13 -27 41t29 40q-9 4 -15 11q-14 -18 -38 -18q-23 0 -39.5 14t-16.5 36q0 20 18 33t39 13q25 0 37 -18q17 14 42 14t39 -15q16 15 42 15q48 0 48 -42zM413 750q0 -20 -16 -32t-36 -12q-21 0 -37 12t-16 32 q0 19 16 31.5t37 12.5q20 0 36 -12.5t16 -31.5zM243 750q0 -20 -16 -32t-36 -12q-21 0 -37 12t-16 32t16 32t37 12q20 0 36 -12.5t16 -31.5z" />
<glyph unicode="&#xd0;" d="M338 375q1 51 -45 51q-24 0 -40 -18q-12 18 -36 18q-26 0 -40 -17q-4 4 -9 8q20 14 20 40t-20 40q22 13 22 41q0 29 -25 39q10 4 15 12q16 -19 44 -19q25 0 39 18q17 -17 42 -17q24 0 38 18q16 -18 42 -18q21 0 35 14t14 35q1 42 -48 42q-26 0 -42 -15q-14 15 -39 15 q-24 0 -41 -14q-14 17 -38 17q-27 0 -43 -16q-14 17 -34 17q-22 0 -42 -17.5t-20 -39.5q0 -23 27 -33q-26 -14 -26 -39t21 -38q-23 -14 -23 -40q0 -30 23 -43q-5 -3 -9 -7q-14 17 -36 17q-25 0 -41 -20t-14 -43.5t16 -34.5t38 -11t37 21q4 -3 10 -5q-27 -12 -27 -39 q0 -28 29 -42q-30 -12 -30 -40q0 -27 27 -40q-29 -12 -29 -40t28 -41q-30 -14 -30 -37q0 -22 19.5 -40.5t41.5 -18.5q23 0 35 24q16 -15 40 -15t38 18q16 -18 43 -18q24 0 38 18q16 -18 42 -18q21 0 35 14t14 35q1 42 -47 42q-27 0 -43 -15q-14 15 -38 15q-27 0 -43 -15 q-14 15 -38 15q-27 0 -43 -15q-4 6 -13 11q24 12 24 42q0 29 -22 39q24 12 24 42q0 27 -24 38q25 13 25 43q0 22 -15 33q3 4 6 9q15 -20 39 -20t36 21q16 -21 39 -21q22 0 34.5 17.5t12.5 40.5zM513 456q0 35 -35 43q18 13 18 40q0 42 -48 42q-22 0 -36 -10q-18 -12 -18 -32 q-2 -37 37 -47q-21 -12 -21 -35q0 -30 30 -43q-31 -12 -31 -41q0 -26 26 -40q-28 -12 -28 -39q0 -29 30 -42q-32 -12 -32 -41q0 -22 20 -36q-37 -9 -39 -41q0 -22 16 -35.5t38 -13.5q48 0 49 49q1 24 -19 35q16 6 28 21.5t12 32.5q0 22 -24 30q24 13 24 42q0 30 -27 41 q29 17 29 48q0 23 -23 31q24 13 24 41z" />
<glyph unicode="&#xd1;" d="M481 620q0 -32 -23 -44q22 -11 22 -38q0 -30 -25 -42q23 -11 23 -39q0 -30 -24 -42q24 -8 24 -31q0 -31 -30 -48q27 -10 27 -41q0 -29 -23 -42q23 -8 23 -31q0 -35 -34 -51q22 -11 22 -38q0 -25 -18 -39q27 -7 27 -30q0 -4 -1 -11q-13 -49 -56 -49q-21 0 -33.5 14 t-12.5 35q0 23 25 35q-33 12 -33 44q0 30 32 41q-6 4 -11 10q-14 -18 -36 -18t-39 15.5t-17 37.5q0 15 8 29q-42 9 -42 53q0 17 9 31q-45 11 -45 47q0 12 9 23q-19 5 -35.5 21t-16.5 35q0 10 6 20q-23 0 -41 20l-4 -3q16 -13 16 -37q0 -27 -21 -40q20 -13 20 -39 q0 -31 -26 -44q24 -10 24 -39q0 -30 -25 -43q24 -10 24 -38q0 -30 -24 -42q22 -11 22 -39q0 -30 -24 -42q23 -12 23 -38q-2 -58 -44 -58q-24 0 -41 17.5t-17 40.5q0 26 29 38q-28 13 -28 41t29 40q-27 13 -27 40q0 28 29 40q-28 13 -28 42q0 27 27 39q-27 11 -27 37 q0 30 27 46q-25 14 -25 43q0 31 29 42q-18 15 -18 36q0 25 23 37q-32 9 -32 37q0 22 18.5 37.5t40.5 15.5q45 0 45 -44q-1 -28 -23 -40q7 -3 14 -7q17 10 34 10q20 0 33 -13.5t13 -34.5q0 -17 -10 -36q5 1 11 1q22 0 38 -15.5t16 -37.5q0 -15 -9 -29q18 -2 36 -19t18 -35 q0 -10 -6 -18q37 -14 37 -51q0 -15 -9 -28q23 -6 35 -25q7 6 17 10q-29 13 -29 42q0 27 27 39q-26 13 -26 40q0 29 31 41q-30 13 -30 42q0 28 29 40q-27 13 -27 40q0 32 33 43q-27 13 -32 41q-4 21 12 32t37 11q54 0 54 -43zM422 751q0 -38 -45 -38q-12 0 -23 7 q-17 -35 -36 -35q-16 0 -30.5 12.5t-17.5 28.5q-10 -10 -34 -10q-14 0 -24 10q-3 -16 -17.5 -28.5t-30.5 -12.5q-17 0 -29.5 14t-12.5 30q0 18 16 29.5t35 11.5q14 0 25 -9q6 37 43 37t43 -37q11 9 25 9q13 0 25 -6q9 34 43 34q19 0 32 -14t13 -33z" />
<glyph unicode="&#xd2;" d="M475 455q0 -27 -25 -40q24 -8 24 -31q0 -31 -30 -48q27 -10 27 -41q0 -29 -23 -42q23 -8 23 -30q0 -18 -14 -35t-32 -21q16 -11 16 -34q0 -22 -14.5 -39.5t-35.5 -17.5q-6 0 -13 2q9 -11 9 -26q0 -20 -16 -34.5t-37 -14.5q-22 0 -39 19q-14 -18 -39 -18q-26 0 -42 18 q-14 -18 -37 -18q-21 0 -39 13.5t-18 33.5q0 12 9 24q-23 0 -41.5 18t-18.5 40q0 21 19 33q-44 9 -44 47q0 27 29 39q-28 13 -28 42q0 27 27 39q-27 11 -27 37q0 30 27 46q-25 14 -25 42q0 41 42 47q-14 14 -14 30q0 23 20 40.5t43 19.5q-7 12 -7 23q0 21 18 34.5t40 13.5 q24 0 36 -18q17 14 42 14t39 -15q17 16 40 16q20 0 35.5 -11.5t15.5 -31.5q0 -13 -9 -28q24 2 43 -15t19 -41q0 -21 -18 -36q43 -3 43 -45zM401 414q-30 13 -30 43q0 21 19 33q-45 8 -45 52q0 15 8 29q-29 -3 -48 18q-14 -18 -39 -18t-41 17q-13 -18 -36 -18q-6 0 -12 1 q3 -10 3 -21q0 -51 -43 -60q13 -12 13 -32q0 -28 -21 -41q20 -13 20 -39q0 -31 -26 -44q24 -10 24 -39q0 -30 -25 -43q24 -10 24 -38q0 -23 -17 -38q43 -3 43 -47q0 -18 -10 -35q8 2 16 2q23 0 37 -16q16 15 42 15q25 0 39 -15q17 16 39 16q9 0 19 -2q-15 18 -15 38 q0 40 46 44q-18 14 -18 35q0 29 31 41q-29 13 -29 42q0 27 27 39q-26 13 -26 40q0 29 31 41zM359 721q0 -16 -13 -29.5t-28 -13.5q-16 0 -30.5 13t-17.5 28q-11 -12 -29 -10q-17 2 -30 13t-13 27t12 28.5t28 14.5q40 3 44 -39q13 11 32 10q17 -2 31.5 -13.5t13.5 -28.5z" />
<glyph unicode="&#xd3;" d="M475 455q0 -27 -25 -40q24 -8 24 -31q0 -31 -30 -48q27 -10 27 -41q0 -29 -23 -42q23 -8 23 -30q0 -18 -14 -35t-32 -21q16 -11 16 -34q0 -22 -14.5 -39.5t-35.5 -17.5q-6 0 -13 2q9 -11 9 -26q0 -20 -16 -34.5t-37 -14.5q-22 0 -39 19q-14 -18 -39 -18q-26 0 -42 18 q-14 -18 -37 -18q-21 0 -39 13.5t-18 33.5q0 12 9 24q-23 0 -41.5 18t-18.5 40q0 21 19 33q-44 9 -44 47q0 27 29 39q-28 13 -28 42q0 27 27 39q-27 11 -27 37q0 30 27 46q-25 14 -25 42q0 41 42 47q-14 14 -14 30q0 23 20 40.5t43 19.5q-7 12 -7 23q0 21 18 34.5t40 13.5 q24 0 36 -18q17 14 42 14t39 -15q17 16 40 16q20 0 35.5 -11.5t15.5 -31.5q0 -13 -9 -28q24 2 43 -15t19 -41q0 -21 -18 -36q43 -3 43 -45zM401 414q-30 13 -30 43q0 21 19 33q-45 8 -45 52q0 15 8 29q-29 -3 -48 18q-14 -18 -39 -18t-41 17q-13 -18 -36 -18q-6 0 -12 1 q3 -10 3 -21q0 -51 -43 -60q13 -12 13 -32q0 -28 -21 -41q20 -13 20 -39q0 -31 -26 -44q24 -10 24 -39q0 -30 -25 -43q24 -10 24 -38q0 -23 -17 -38q43 -3 43 -47q0 -18 -10 -35q8 2 16 2q23 0 37 -16q16 15 42 15q25 0 39 -15q17 16 39 16q9 0 19 -2q-15 18 -15 38 q0 40 46 44q-18 14 -18 35q0 29 31 41q-29 13 -29 42q0 27 27 39q-26 13 -26 40q0 29 31 41zM297 715q-18 -2 -29 10q-3 -15 -17.5 -28t-30.5 -13q-15 0 -27.5 13.5t-13.5 29.5q-1 17 13.5 28.5t31.5 13.5q20 1 33 -10q3 42 43 39q16 -2 28 -14.5t12 -28.5t-13 -27t-30 -13z " />
<glyph unicode="&#xd4;" d="M475 455q0 -27 -25 -40q24 -8 24 -31q0 -31 -30 -48q27 -10 27 -41q0 -29 -23 -42q23 -8 23 -30q0 -18 -14 -35t-32 -21q16 -11 16 -34q0 -22 -14.5 -39.5t-35.5 -17.5q-6 0 -13 2q9 -11 9 -26q0 -20 -16 -34.5t-37 -14.5q-22 0 -39 19q-14 -18 -39 -18q-26 0 -42 18 q-14 -18 -37 -18q-21 0 -39 13.5t-18 33.5q0 12 9 24q-23 0 -41.5 18t-18.5 40q0 21 19 33q-44 9 -44 47q0 27 29 39q-28 13 -28 42q0 27 27 39q-27 11 -27 37q0 30 27 46q-25 14 -25 42q0 41 42 47q-14 14 -14 30q0 23 20 40.5t43 19.5q-7 12 -7 23q0 21 18 34.5t40 13.5 q24 0 36 -18q17 14 42 14t39 -15q17 16 40 16q20 0 35.5 -11.5t15.5 -31.5q0 -13 -9 -28q24 2 43 -15t19 -41q0 -21 -18 -36q43 -3 43 -45zM401 414q-30 13 -30 43q0 21 19 33q-45 8 -45 52q0 15 8 29q-29 -3 -48 18q-14 -18 -39 -18t-41 17q-13 -18 -36 -18q-6 0 -12 1 q3 -10 3 -21q0 -51 -43 -60q13 -12 13 -32q0 -28 -21 -41q20 -13 20 -39q0 -31 -26 -44q24 -10 24 -39q0 -30 -25 -43q24 -10 24 -38q0 -23 -17 -38q43 -3 43 -47q0 -18 -10 -35q8 2 16 2q23 0 37 -16q16 15 42 15q25 0 39 -15q17 16 39 16q9 0 19 -2q-15 18 -15 38 q0 40 46 44q-18 14 -18 35q0 29 31 41q-29 13 -29 42q0 27 27 39q-26 13 -26 40q0 29 31 41zM384 725q0 -17 -12.5 -31t-29.5 -14q-15 0 -30 13t-18 28q-9 -9 -29 -10h-4q-15 -1 -25 10q-3 -15 -17.5 -28t-30.5 -13t-28.5 14t-12.5 31t16 28.5t34 11.5q14 0 25 -9 q6 38 43 38t43 -38q11 9 25 9q19 0 35 -11.5t16 -28.5z" />
<glyph unicode="&#xd5;" d="M475 455q0 -27 -25 -40q24 -8 24 -31q0 -31 -30 -48q27 -10 27 -41q0 -29 -23 -42q23 -8 23 -30q0 -18 -14 -35t-32 -21q16 -11 16 -34q0 -22 -14.5 -39.5t-35.5 -17.5q-6 0 -13 2q9 -11 9 -26q0 -20 -16 -34.5t-37 -14.5q-22 0 -39 19q-14 -18 -39 -18q-26 0 -42 18 q-14 -18 -37 -18q-21 0 -39 13.5t-18 33.5q0 12 9 24q-23 0 -41.5 18t-18.5 40q0 21 19 33q-44 9 -44 47q0 27 29 39q-28 13 -28 42q0 27 27 39q-27 11 -27 37q0 30 27 46q-25 14 -25 42q0 41 42 47q-14 14 -14 30q0 23 20 40.5t43 19.5q-7 12 -7 23q0 21 18 34.5t40 13.5 q24 0 36 -18q17 14 42 14t39 -15q17 16 40 16q20 0 35.5 -11.5t15.5 -31.5q0 -13 -9 -28q24 2 43 -15t19 -41q0 -21 -18 -36q43 -3 43 -45zM401 414q-30 13 -30 43q0 21 19 33q-45 8 -45 52q0 15 8 29q-29 -3 -48 18q-14 -18 -39 -18t-41 17q-13 -18 -36 -18q-6 0 -12 1 q3 -10 3 -21q0 -51 -43 -60q13 -12 13 -32q0 -28 -21 -41q20 -13 20 -39q0 -31 -26 -44q24 -10 24 -39q0 -30 -25 -43q24 -10 24 -38q0 -23 -17 -38q43 -3 43 -47q0 -18 -10 -35q8 2 16 2q23 0 37 -16q16 15 42 15q25 0 39 -15q17 16 39 16q9 0 19 -2q-15 18 -15 38 q0 40 46 44q-18 14 -18 35q0 29 31 41q-29 13 -29 42q0 27 27 39q-26 13 -26 40q0 29 31 41zM425 750q0 -38 -45 -38q-12 0 -23 7q-17 -35 -36 -35q-16 0 -30.5 12.5t-17.5 28.5q-10 -10 -34 -10q-14 0 -24 10q-3 -16 -17.5 -28.5t-30.5 -12.5q-17 0 -29.5 14t-12.5 30 q0 18 16 29.5t35 11.5q14 0 25 -9q6 37 43 37t43 -37q11 9 25 9q13 0 25 -6q9 34 43 34q19 0 32 -14t13 -33z" />
<glyph unicode="&#xd6;" d="M475 455q0 -27 -25 -40q24 -8 24 -31q0 -31 -30 -48q27 -10 27 -41q0 -29 -23 -42q23 -8 23 -30q0 -18 -14 -35t-32 -21q16 -11 16 -34q0 -22 -14.5 -39.5t-35.5 -17.5q-6 0 -13 2q9 -11 9 -26q0 -20 -16 -34.5t-37 -14.5q-22 0 -39 19q-14 -18 -39 -18q-26 0 -42 18 q-14 -18 -37 -18q-21 0 -39 13.5t-18 33.5q0 12 9 24q-23 0 -41.5 18t-18.5 40q0 21 19 33q-44 9 -44 47q0 27 29 39q-28 13 -28 42q0 27 27 39q-27 11 -27 37q0 30 27 46q-25 14 -25 42q0 41 42 47q-14 14 -14 30q0 23 20 40.5t43 19.5q-7 12 -7 23q0 21 18 34.5t40 13.5 q24 0 36 -18q17 14 42 14t39 -15q17 16 40 16q20 0 35.5 -11.5t15.5 -31.5q0 -13 -9 -28q24 2 43 -15t19 -41q0 -21 -18 -36q43 -3 43 -45zM401 414q-30 13 -30 43q0 21 19 33q-45 8 -45 52q0 15 8 29q-29 -3 -48 18q-14 -18 -39 -18t-41 17q-13 -18 -36 -18q-6 0 -12 1 q3 -10 3 -21q0 -51 -43 -60q13 -12 13 -32q0 -28 -21 -41q20 -13 20 -39q0 -31 -26 -44q24 -10 24 -39q0 -30 -25 -43q24 -10 24 -38q0 -23 -17 -38q43 -3 43 -47q0 -18 -10 -35q8 2 16 2q23 0 37 -16q16 15 42 15q25 0 39 -15q17 16 39 16q9 0 19 -2q-15 18 -15 38 q0 40 46 44q-18 14 -18 35q0 29 31 41q-29 13 -29 42q0 27 27 39q-26 13 -26 40q0 29 31 41zM390 750q0 -20 -16 -32t-36 -12q-21 0 -37 12t-16 32q0 19 16 31.5t37 12.5q20 0 36 -12.5t16 -31.5zM220 750q0 -20 -16 -32t-36 -12q-21 0 -37 12t-16 32t16 32t37 12 q20 0 36 -12.5t16 -31.5z" />
<glyph unicode="&#xd7;" horiz-adv-x="1000" />
<glyph unicode="&#xd8;" d="M518 620q1 43 -49 43q-24 0 -43 -12q-9 -5 -16 -14q-5 12 -18.5 19t-28.5 7q-25 0 -41 -16q-14 15 -39 15q-24 0 -41 -14q-14 18 -37 18q-21 0 -39 -13.5t-18 -34.5q0 -12 7 -23q-23 -2 -43 -19.5t-20 -40.5q0 -17 13 -30q-41 -6 -41 -47q0 -29 25 -42q-27 -17 -27 -46 q0 -26 26 -37q-27 -12 -27 -39q0 -28 29 -42q-30 -12 -30 -39q0 -36 41 -47q-8 -6 -13.5 -15t-5.5 -19q0 -16 14 -30q-53 -9 -53 -50q-1 -24 18.5 -41t43.5 -17q34 0 44 28q18 -18 44 -18q23 0 37 18q16 -18 43 -18q24 0 38 18q16 -19 40 -19q20 0 36.5 14.5t16.5 34.5 q0 15 -9 26q8 -2 13 -2q21 0 35.5 17.5t14.5 39.5q0 24 -16 34q18 4 32 21t14 35q0 22 -24 30q24 13 24 42q0 30 -27 41q29 17 29 48q0 23 -23 31q24 13 24 40q0 42 -43 45q18 15 18 36q0 13 -7 27q24 0 41.5 16t17.5 41zM418 414q-31 -12 -31 -41q0 -26 26 -40 q-28 -12 -28 -39q0 -29 30 -42q-32 -12 -32 -41q0 -22 18 -35q-46 -4 -46 -44q0 -21 16 -38q-5 1 -9.5 1.5t-9.5 0.5q-23 0 -40 -16q-14 15 -38 15q-27 0 -43 -15q-13 16 -37 16q-6 0 -14 -2q16 13 16 34q0 12 -4.5 19t-8 11.5t-2.5 6t12 1.5q23 0 39 18t16 41q0 14 -7 22 q24 -3 40 11t16 38q0 16 -11 32q52 4 52 58q0 13 -4 24q23 0 46 21q7 7 10 11q6 -19 28 -28zM139 252q25 13 25 43q0 29 -25 39q27 13 27 44q0 25 -20 39q20 14 20 41q0 20 -12 32q42 9 42 60q0 10 -3 21q5 -1 12 -1q22 0 36 18q17 -17 42 -17q24 0 38 18q16 -17 37 -19 q-12 -11 -12 -26q0 -19 19 -35q-26 0 -51 -14q-29 -17 -29 -41q0 -12 6 -22q-12 0 -23.5 -5t-21.5 -13t-16 -18t-6 -22q0 -16 14 -30q-54 -6 -54 -44q0 -20 21 -36q-24 0 -46 -11q-6 -3 -10 -7q-6 4 -10 6zM402 486q-2 4 -2 5q2 -1 7 -1q-4 -2 -5 -4z" />
<glyph unicode="&#xd9;" d="M474 620q0 -32 -23 -44q22 -11 22 -38q0 -30 -25 -42q23 -11 23 -39q0 -30 -24 -42q24 -8 24 -31q0 -31 -30 -48q27 -10 27 -41q0 -29 -23 -42q23 -8 23 -30q0 -17 -11.5 -32.5t-27.5 -21.5q18 -12 18 -35q0 -22 -15 -40t-38 -18q-8 0 -16 3q6 -12 6 -25q0 -22 -15 -36.5 t-37 -14.5t-39 19q-15 -18 -40 -18q-26 0 -41 18q-15 -18 -38 -18q-22 0 -39 14t-17 35q0 10 5 20q-24 -3 -45 16.5t-21 43.5q0 23 21 35q-37 10 -37 45q0 27 29 39q-28 13 -28 42q0 27 27 39q-27 11 -27 37q0 30 27 46q-25 14 -25 43q0 27 24 40q-22 14 -22 38q0 26 26 39 q-26 11 -26 35q0 22 18.5 37.5t40.5 15.5q45 0 45 -44q-1 -30 -27 -43q26 -10 26 -39q0 -28 -23 -41q21 -14 21 -40q0 -27 -21 -40q20 -13 20 -39q0 -31 -26 -44q24 -10 24 -39q0 -30 -25 -43q24 -10 24 -38q0 -25 -19 -39q36 -8 36 -45q0 -16 -7 -32q8 3 15 3q29 0 45 -20 q16 14 41 14q24 0 38 -13q19 22 47 22q7 0 13 -1q-7 14 -7 27q0 36 39 45q-20 14 -20 36q0 29 31 41q-29 13 -29 42q0 27 27 39q-26 13 -26 40q0 29 31 41q-30 13 -30 42q0 28 29 40q-27 13 -27 40q0 32 33 43q-27 13 -32 41q-4 21 12 32t37 11q54 0 54 -43zM357 725 q0 -16 -13 -29.5t-28 -13.5q-16 0 -30.5 13t-17.5 28q-11 -12 -29 -10q-17 2 -30 13t-13 27t12 28.5t28 14.5q40 3 44 -39q13 11 32 10q17 -2 31.5 -13.5t13.5 -28.5z" />
<glyph unicode="&#xda;" d="M474 620q0 -32 -23 -44q22 -11 22 -38q0 -30 -25 -42q23 -11 23 -39q0 -30 -24 -42q24 -8 24 -31q0 -31 -30 -48q27 -10 27 -41q0 -29 -23 -42q23 -8 23 -30q0 -17 -11.5 -32.5t-27.5 -21.5q18 -12 18 -35q0 -22 -15 -40t-38 -18q-8 0 -16 3q6 -12 6 -25q0 -22 -15 -36.5 t-37 -14.5t-39 19q-15 -18 -40 -18q-26 0 -41 18q-15 -18 -38 -18q-22 0 -39 14t-17 35q0 10 5 20q-24 -3 -45 16.5t-21 43.5q0 23 21 35q-37 10 -37 45q0 27 29 39q-28 13 -28 42q0 27 27 39q-27 11 -27 37q0 30 27 46q-25 14 -25 43q0 27 24 40q-22 14 -22 38q0 26 26 39 q-26 11 -26 35q0 22 18.5 37.5t40.5 15.5q45 0 45 -44q-1 -30 -27 -43q26 -10 26 -39q0 -28 -23 -41q21 -14 21 -40q0 -27 -21 -40q20 -13 20 -39q0 -31 -26 -44q24 -10 24 -39q0 -30 -25 -43q24 -10 24 -38q0 -25 -19 -39q36 -8 36 -45q0 -16 -7 -32q8 3 15 3q29 0 45 -20 q16 14 41 14q24 0 38 -13q19 22 47 22q7 0 13 -1q-7 14 -7 27q0 36 39 45q-20 14 -20 36q0 29 31 41q-29 13 -29 42q0 27 27 39q-26 13 -26 40q0 29 31 41q-30 13 -30 42q0 28 29 40q-27 13 -27 40q0 32 33 43q-27 13 -32 41q-4 21 12 32t37 11q54 0 54 -43zM309 710 q-18 -2 -29 10q-3 -15 -17.5 -28t-30.5 -13q-15 0 -27.5 13.5t-13.5 29.5q-1 17 13.5 28.5t31.5 13.5q20 1 33 -10q3 42 43 39q16 -2 28 -14.5t12 -28.5t-13 -27t-30 -13z" />
<glyph unicode="&#xdb;" d="M474 620q0 -32 -23 -44q22 -11 22 -38q0 -30 -25 -42q23 -11 23 -39q0 -30 -24 -42q24 -8 24 -31q0 -31 -30 -48q27 -10 27 -41q0 -29 -23 -42q23 -8 23 -30q0 -17 -11.5 -32.5t-27.5 -21.5q18 -12 18 -35q0 -22 -15 -40t-38 -18q-8 0 -16 3q6 -12 6 -25q0 -22 -15 -36.5 t-37 -14.5t-39 19q-15 -18 -40 -18q-26 0 -41 18q-15 -18 -38 -18q-22 0 -39 14t-17 35q0 10 5 20q-24 -3 -45 16.5t-21 43.5q0 23 21 35q-37 10 -37 45q0 27 29 39q-28 13 -28 42q0 27 27 39q-27 11 -27 37q0 30 27 46q-25 14 -25 43q0 27 24 40q-22 14 -22 38q0 26 26 39 q-26 11 -26 35q0 22 18.5 37.5t40.5 15.5q45 0 45 -44q-1 -30 -27 -43q26 -10 26 -39q0 -28 -23 -41q21 -14 21 -40q0 -27 -21 -40q20 -13 20 -39q0 -31 -26 -44q24 -10 24 -39q0 -30 -25 -43q24 -10 24 -38q0 -25 -19 -39q36 -8 36 -45q0 -16 -7 -32q8 3 15 3q29 0 45 -20 q16 14 41 14q24 0 38 -13q19 22 47 22q7 0 13 -1q-7 14 -7 27q0 36 39 45q-20 14 -20 36q0 29 31 41q-29 13 -29 42q0 27 27 39q-26 13 -26 40q0 29 31 41q-30 13 -30 42q0 28 29 40q-27 13 -27 40q0 32 33 43q-27 13 -32 41q-4 21 12 32t37 11q54 0 54 -43zM384 725 q0 -17 -12.5 -31t-29.5 -14q-15 0 -30 13t-18 28q-9 -9 -29 -10h-4q-15 -1 -25 10q-3 -15 -17.5 -28t-30.5 -13t-28.5 14t-12.5 31t16 28.5t34 11.5q14 0 25 -9q6 38 43 38t43 -38q11 9 25 9q19 0 35 -11.5t16 -28.5z" />
<glyph unicode="&#xdc;" d="M474 620q0 -32 -23 -44q22 -11 22 -38q0 -30 -25 -42q23 -11 23 -39q0 -30 -24 -42q24 -8 24 -31q0 -31 -30 -48q27 -10 27 -41q0 -29 -23 -42q23 -8 23 -30q0 -17 -11.5 -32.5t-27.5 -21.5q18 -12 18 -35q0 -22 -15 -40t-38 -18q-8 0 -16 3q6 -12 6 -25q0 -22 -15 -36.5 t-37 -14.5t-39 19q-15 -18 -40 -18q-26 0 -41 18q-15 -18 -38 -18q-22 0 -39 14t-17 35q0 10 5 20q-24 -3 -45 16.5t-21 43.5q0 23 21 35q-37 10 -37 45q0 27 29 39q-28 13 -28 42q0 27 27 39q-27 11 -27 37q0 30 27 46q-25 14 -25 43q0 27 24 40q-22 14 -22 38q0 26 26 39 q-26 11 -26 35q0 22 18.5 37.5t40.5 15.5q45 0 45 -44q-1 -30 -27 -43q26 -10 26 -39q0 -28 -23 -41q21 -14 21 -40q0 -27 -21 -40q20 -13 20 -39q0 -31 -26 -44q24 -10 24 -39q0 -30 -25 -43q24 -10 24 -38q0 -25 -19 -39q36 -8 36 -45q0 -16 -7 -32q8 3 15 3q29 0 45 -20 q16 14 41 14q24 0 38 -13q19 22 47 22q7 0 13 -1q-7 14 -7 27q0 36 39 45q-20 14 -20 36q0 29 31 41q-29 13 -29 42q0 27 27 39q-26 13 -26 40q0 29 31 41q-30 13 -30 42q0 28 29 40q-27 13 -27 40q0 32 33 43q-27 13 -32 41q-4 21 12 32t37 11q54 0 54 -43zM405 747 q0 -20 -16 -32t-36 -12q-21 0 -37 12t-16 32q0 19 16 31.5t37 12.5q20 0 36 -12.5t16 -31.5zM235 747q0 -20 -16 -32t-36 -12q-21 0 -37 12t-16 32t16 32t37 12q20 0 36 -12.5t16 -31.5z" />
<glyph unicode="&#xdd;" d="M475 620q0 -49 -44 -49q-4 0 -10 1q18 -11 18 -32q0 -20 -13.5 -37t-32.5 -21q9 -11 9 -25q0 -20 -16 -34t-37 -14q-5 0 -11 1q16 -11 16 -33q0 -24 -16.5 -38t-40.5 -11q10 -15 10 -33q0 -30 -24 -43q23 -11 23 -38q0 -28 -22 -41q21 -9 21 -32q0 -36 -31 -48 q29 -9 29 -40q-1 -49 -49 -49q-23 0 -38 13.5t-15 35.5q1 30 34 40q-33 11 -33 40q0 26 30 38q-28 13 -28 42t29 40q-28 15 -28 50q0 13 3 26q-20 0 -34 17.5t-14 38.5q0 14 7 24q-21 1 -35.5 15.5t-14.5 34.5q0 14 9 28q-20 1 -36.5 16t-16.5 35q0 21 19 33q-45 4 -45 39 q0 23 18.5 38.5t40.5 15.5q45 0 45 -44q-1 -25 -19 -39q46 -1 46 -44q0 -16 -11 -31q22 0 38 -13.5t16 -35.5q0 -14 -9 -28q37 -2 50 -26q17 17 41 17q7 0 16 -2q-22 15 -22 36q0 19 15 32t35 14q-13 17 -13 35q0 21 16 33.5t38 12.5q6 0 12 -1q-23 15 -28 40q-4 21 12 32 t37 11q54 0 54 -43zM255 356v2l-1 -1zM323 714q-18 -2 -29 10q-3 -15 -17.5 -28t-30.5 -13q-15 0 -27.5 13.5t-13.5 29.5q-1 17 13.5 28.5t31.5 13.5q20 1 33 -10q3 42 43 39q16 -2 28 -14.5t12 -28.5t-13 -27t-30 -13z" />
<glyph unicode="&#xde;" />
<glyph unicode="&#xdf;" d="M475 221q0 -39 -39 -52q19 -11 19 -35q0 -22 -16 -36.5t-39 -12.5q8 -13 8 -32q0 -49 -49 -49q-31 0 -47 24q-12 -24 -43 -24q-16 0 -29.5 20.5t-13.5 37.5q0 33 44 33q30 0 42 -19q17 27 51 28q-11 13 -11 27q0 35 39 44q-19 14 -19 36q0 26 23 37q-41 11 -41 49 q0 10 4 21l-9 -1q-21 -1 -41 22q-13 -10 -33 -10q-23 0 -40.5 15.5t-17.5 38.5q0 35 39 35q28 0 45 -18q18 22 60 18q-13 17 -13 35q0 35 34 45q-23 14 -23 41q0 20 18 32q15 10 36 10q49 0 49 -42q0 -34 -30 -46q20 -11 20 -35q0 -27 -19 -43.5t-45 -13.5q9 -11 9 -27 q0 -14 -7 -31l14 2q22 0 38 -15.5t16 -37.5q0 -21 -19 -36q36 -4 36 -35zM400 620q0 -49 -49 -49q-41 0 -52 36q-8 -36 -47 -36q-25 0 -41 17q-17 -21 -50 -17q5 -9 5 -21q0 -32 -20 -49q14 -10 14 -33q0 -25 -16 -38q22 -9 22 -38q0 -22 -23 -43q22 -11 22 -39 q0 -20 -23 -43q22 -11 22 -37q0 -40 -26 -49q27 -16 27 -47q0 -22 -25 -30l-1 -1q21 -9 21 -35q0 -48 -43 -48q-23 0 -41.5 17.5t-18.5 39.5q0 18 25 27q-31 20 -31 49q0 18 29 33q-27 13 -27 42q0 15 9 22l18 14q-25 13 -25 40q0 20 27 41q-25 13 -25 40q0 26 27 41 q-26 13 -26 42q0 20 17 31l4 2l-3 3q-14 11 -14 32q0 24 20.5 39t45.5 15q-12 14 -12 28q0 21 20 35q17 13 39 13q24 0 36 -18q17 14 43 14q38 0 46 -30q10 30 52 30q48 0 48 -42z" />
<glyph unicode="&#xe0;" d="M391 620q0 42 -48 42q-26 0 -42 -15q-14 15 -39 15t-42 -14q-12 18 -37 18q-21 0 -39 -13t-18 -33q0 -22 16.5 -36t39.5 -14q24 0 38 18q17 -17 41 -17q25 0 39 18q16 -18 41 -18q21 0 35 14t15 35zM470 455q0 42 -43 45q17 14 17 39q0 42 -49 42q-21 0 -37 -11t-17 -31 q-2 -41 44 -49q-19 -12 -19 -33q0 -30 30 -43q-31 -12 -31 -41q0 -26 26 -40q-10 -5 -15 -10q-14 15 -39 15q-27 0 -43 -15q-14 14 -39 14q-26 0 -42 -13q-14 14 -38 14q-26 0 -42 -15q-5 6 -15 11q26 14 26 44q0 25 -20 39q21 13 21 41q0 20 -13 32q42 6 42 49q0 42 -49 42 q-21 0 -37 -11t-17 -31q-2 -20 14 -34q-43 -6 -43 -47q0 -29 25 -42q-27 -17 -27 -46q0 -27 27 -37q-27 -12 -27 -39q0 -29 28 -42q-29 -12 -29 -40q0 -27 27 -40q-29 -12 -29 -40t28 -41q-29 -12 -29 -38q0 -23 17.5 -40.5t40.5 -17.5q43 0 44 58q0 26 -23 38q24 12 24 42 q0 29 -22 39q24 12 24 42q0 27 -24 38q9 5 15 13q16 -18 43 -18t41 21q19 -21 46 -21q21 0 33 17q17 -17 42 -17q24 0 38 18q7 -8 18 -13q-31 -12 -31 -41q0 -26 26 -40q-27 -12 -27 -39q0 -28 29 -42q-30 -12 -30 -37q0 -21 12.5 -35t33.5 -14q43 0 56 49q1 5 1 11 q0 21 -20 29q20 14 20 39q0 31 -27 42q30 16 30 48q0 23 -23 31q23 14 23 42q0 30 -27 41q30 16 30 48q0 23 -24 31q25 13 25 40zM349 721q1 17 -13.5 28.5t-31.5 13.5q-17 1 -32 -10q-4 42 -44 39q-16 -2 -28 -14.5t-12 -28.5t13 -27t30 -13q19 -2 29 10q3 -15 17.5 -28 t30.5 -13q15 0 28 13.5t13 29.5z" />
<glyph unicode="&#xe1;" d="M391 620q0 42 -48 42q-26 0 -42 -15q-14 15 -39 15t-42 -14q-12 18 -37 18q-21 0 -39 -13t-18 -33q0 -22 16.5 -36t39.5 -14q24 0 38 18q17 -17 41 -17q25 0 39 18q16 -18 41 -18q21 0 35 14t15 35zM470 455q0 42 -43 45q17 14 17 39q0 42 -49 42q-21 0 -37 -11t-17 -31 q-2 -41 44 -49q-19 -12 -19 -33q0 -30 30 -43q-31 -12 -31 -41q0 -26 26 -40q-10 -5 -15 -10q-14 15 -39 15q-27 0 -43 -15q-14 14 -39 14q-26 0 -42 -13q-14 14 -38 14q-26 0 -42 -15q-5 6 -15 11q26 14 26 44q0 25 -20 39q21 13 21 41q0 20 -13 32q42 6 42 49q0 42 -49 42 q-21 0 -37 -11t-17 -31q-2 -20 14 -34q-43 -6 -43 -47q0 -29 25 -42q-27 -17 -27 -46q0 -27 27 -37q-27 -12 -27 -39q0 -29 28 -42q-29 -12 -29 -40q0 -27 27 -40q-29 -12 -29 -40t28 -41q-29 -12 -29 -38q0 -23 17.5 -40.5t40.5 -17.5q43 0 44 58q0 26 -23 38q24 12 24 42 q0 29 -22 39q24 12 24 42q0 27 -24 38q9 5 15 13q16 -18 43 -18t41 21q19 -21 46 -21q21 0 33 17q17 -17 42 -17q24 0 38 18q7 -8 18 -13q-31 -12 -31 -41q0 -26 26 -40q-27 -12 -27 -39q0 -28 29 -42q-30 -12 -30 -37q0 -21 12.5 -35t33.5 -14q43 0 56 49q1 5 1 11 q0 21 -20 29q20 14 20 39q0 31 -27 42q30 16 30 48q0 23 -23 31q23 14 23 42q0 30 -27 41q30 16 30 48q0 23 -24 31q25 13 25 40zM292 710q17 2 30 13t13 27t-12 28.5t-28 14.5q-40 3 -43 -39q-15 11 -33 10q-17 -2 -31.5 -13.5t-13.5 -28.5q1 -16 13.5 -29.5t27.5 -13.5 q16 0 30.5 13t17.5 28q10 -12 29 -10z" />
<glyph unicode="&#xe2;" d="M391 620q0 42 -48 42q-26 0 -42 -15q-14 15 -39 15t-42 -14q-12 18 -37 18q-21 0 -39 -13t-18 -33q0 -22 16.5 -36t39.5 -14q24 0 38 18q17 -17 41 -17q25 0 39 18q16 -18 41 -18q21 0 35 14t15 35zM470 455q0 42 -43 45q17 14 17 39q0 42 -49 42q-21 0 -37 -11t-17 -31 q-2 -41 44 -49q-19 -12 -19 -33q0 -30 30 -43q-31 -12 -31 -41q0 -26 26 -40q-10 -5 -15 -10q-14 15 -39 15q-27 0 -43 -15q-14 14 -39 14q-26 0 -42 -13q-14 14 -38 14q-26 0 -42 -15q-5 6 -15 11q26 14 26 44q0 25 -20 39q21 13 21 41q0 20 -13 32q42 6 42 49q0 42 -49 42 q-21 0 -37 -11t-17 -31q-2 -20 14 -34q-43 -6 -43 -47q0 -29 25 -42q-27 -17 -27 -46q0 -27 27 -37q-27 -12 -27 -39q0 -29 28 -42q-29 -12 -29 -40q0 -27 27 -40q-29 -12 -29 -40t28 -41q-29 -12 -29 -38q0 -23 17.5 -40.5t40.5 -17.5q43 0 44 58q0 26 -23 38q24 12 24 42 q0 29 -22 39q24 12 24 42q0 27 -24 38q9 5 15 13q16 -18 43 -18t41 21q19 -21 46 -21q21 0 33 17q17 -17 42 -17q24 0 38 18q7 -8 18 -13q-31 -12 -31 -41q0 -26 26 -40q-27 -12 -27 -39q0 -28 29 -42q-30 -12 -30 -37q0 -21 12.5 -35t33.5 -14q43 0 56 49q1 5 1 11 q0 21 -20 29q20 14 20 39q0 31 -27 42q30 16 30 48q0 23 -23 31q23 14 23 42q0 30 -27 41q30 16 30 48q0 23 -24 31q25 13 25 40zM379 725q0 17 -16 28.5t-35 11.5q-15 0 -25 -9q-6 38 -43 38t-43 -38q-11 9 -25 9q-18 0 -34 -11.5t-16 -28.5t12.5 -31t28.5 -14t30.5 13 t17.5 28q11 -11 25 -10h4q21 2 29 10q3 -15 18 -28t30 -13q17 0 29.5 14t12.5 31z" />
<glyph unicode="&#xe3;" d="M391 620q0 42 -48 42q-26 0 -42 -15q-14 15 -39 15t-42 -14q-12 18 -37 18q-21 0 -39 -13t-18 -33q0 -22 16.5 -36t39.5 -14q24 0 38 18q17 -17 41 -17q25 0 39 18q16 -18 41 -18q21 0 35 14t15 35zM470 455q0 42 -43 45q17 14 17 39q0 42 -49 42q-21 0 -37 -11t-17 -31 q-2 -41 44 -49q-19 -12 -19 -33q0 -30 30 -43q-31 -12 -31 -41q0 -26 26 -40q-10 -5 -15 -10q-14 15 -39 15q-27 0 -43 -15q-14 14 -39 14q-26 0 -42 -13q-14 14 -38 14q-26 0 -42 -15q-5 6 -15 11q26 14 26 44q0 25 -20 39q21 13 21 41q0 20 -13 32q42 6 42 49q0 42 -49 42 q-21 0 -37 -11t-17 -31q-2 -20 14 -34q-43 -6 -43 -47q0 -29 25 -42q-27 -17 -27 -46q0 -27 27 -37q-27 -12 -27 -39q0 -29 28 -42q-29 -12 -29 -40q0 -27 27 -40q-29 -12 -29 -40t28 -41q-29 -12 -29 -38q0 -23 17.5 -40.5t40.5 -17.5q43 0 44 58q0 26 -23 38q24 12 24 42 q0 29 -22 39q24 12 24 42q0 27 -24 38q9 5 15 13q16 -18 43 -18t41 21q19 -21 46 -21q21 0 33 17q17 -17 42 -17q24 0 38 18q7 -8 18 -13q-31 -12 -31 -41q0 -26 26 -40q-27 -12 -27 -39q0 -28 29 -42q-30 -12 -30 -37q0 -21 12.5 -35t33.5 -14q43 0 56 49q1 5 1 11 q0 21 -20 29q20 14 20 39q0 31 -27 42q30 16 30 48q0 23 -23 31q23 14 23 42q0 30 -27 41q30 16 30 48q0 23 -24 31q25 13 25 40zM417 743q0 19 -13 33t-32 14q-34 0 -43 -34q-12 6 -25 6q-15 0 -25 -9q-6 37 -43 37t-43 -37q-11 9 -25 9q-19 0 -35 -11.5t-16 -29.5 q0 -16 12.5 -30t29.5 -14q16 0 30.5 12.5t17.5 28.5q10 -10 24 -10q24 0 34 10q3 -16 17.5 -28.5t30.5 -12.5q19 0 36 35q10 -7 23 -7q45 0 45 38z" />
<glyph unicode="&#xe4;" d="M391 620q0 42 -48 42q-26 0 -42 -15q-14 15 -39 15t-42 -14q-12 18 -37 18q-21 0 -39 -13t-18 -33q0 -22 16.5 -36t39.5 -14q24 0 38 18q17 -17 41 -17q25 0 39 18q16 -18 41 -18q21 0 35 14t15 35zM470 455q0 42 -43 45q17 14 17 39q0 42 -49 42q-21 0 -37 -11t-17 -31 q-2 -41 44 -49q-19 -12 -19 -33q0 -30 30 -43q-31 -12 -31 -41q0 -26 26 -40q-10 -5 -15 -10q-14 15 -39 15q-27 0 -43 -15q-14 14 -39 14q-26 0 -42 -13q-14 14 -38 14q-26 0 -42 -15q-5 6 -15 11q26 14 26 44q0 25 -20 39q21 13 21 41q0 20 -13 32q42 6 42 49q0 42 -49 42 q-21 0 -37 -11t-17 -31q-2 -20 14 -34q-43 -6 -43 -47q0 -29 25 -42q-27 -17 -27 -46q0 -27 27 -37q-27 -12 -27 -39q0 -29 28 -42q-29 -12 -29 -40q0 -27 27 -40q-29 -12 -29 -40t28 -41q-29 -12 -29 -38q0 -23 17.5 -40.5t40.5 -17.5q43 0 44 58q0 26 -23 38q24 12 24 42 q0 29 -22 39q24 12 24 42q0 27 -24 38q9 5 15 13q16 -18 43 -18t41 21q19 -21 46 -21q21 0 33 17q17 -17 42 -17q24 0 38 18q7 -8 18 -13q-31 -12 -31 -41q0 -26 26 -40q-27 -12 -27 -39q0 -28 29 -42q-30 -12 -30 -37q0 -21 12.5 -35t33.5 -14q43 0 56 49q1 5 1 11 q0 21 -20 29q20 14 20 39q0 31 -27 42q30 16 30 48q0 23 -23 31q23 14 23 42q0 30 -27 41q30 16 30 48q0 23 -24 31q25 13 25 40zM395 744q0 19 -16 31.5t-36 12.5q-21 0 -37 -12.5t-16 -31.5q0 -20 16 -32t37 -12q20 0 36 12t16 32zM225 744q0 19 -16 31.5t-36 12.5 q-21 0 -37 -12t-16 -32t16 -32t37 -12q20 0 36 12t16 32z" />
<glyph unicode="&#xe5;" d="M391 620q0 42 -48 42q-26 0 -42 -15q-14 15 -39 15t-42 -14q-12 18 -37 18q-21 0 -39 -13t-18 -33q0 -22 16.5 -36t39.5 -14q24 0 38 18q17 -17 41 -17q25 0 39 18q16 -18 41 -18q21 0 35 14t15 35zM470 455q0 42 -43 45q17 14 17 39q0 42 -49 42q-21 0 -37 -11t-17 -31 q-2 -41 44 -49q-19 -12 -19 -33q0 -30 30 -43q-31 -12 -31 -41q0 -26 26 -40q-10 -5 -15 -10q-14 15 -39 15q-27 0 -43 -15q-14 14 -39 14q-26 0 -42 -13q-14 14 -38 14q-26 0 -42 -15q-5 6 -15 11q26 14 26 44q0 25 -20 39q21 13 21 41q0 20 -13 32q42 6 42 49q0 42 -49 42 q-21 0 -37 -11t-17 -31q-2 -20 14 -34q-43 -6 -43 -47q0 -29 25 -42q-27 -17 -27 -46q0 -27 27 -37q-27 -12 -27 -39q0 -29 28 -42q-29 -12 -29 -40q0 -27 27 -40q-29 -12 -29 -40t28 -41q-29 -12 -29 -38q0 -23 17.5 -40.5t40.5 -17.5q43 0 44 58q0 26 -23 38q24 12 24 42 q0 29 -22 39q24 12 24 42q0 27 -24 38q9 5 15 13q16 -18 43 -18t41 21q19 -21 46 -21q21 0 33 17q17 -17 42 -17q24 0 38 18q7 -8 18 -13q-31 -12 -31 -41q0 -26 26 -40q-27 -12 -27 -39q0 -28 29 -42q-30 -12 -30 -37q0 -21 12.5 -35t33.5 -14q43 0 56 49q1 5 1 11 q0 21 -20 29q20 14 20 39q0 31 -27 42q30 16 30 48q0 23 -23 31q23 14 23 42q0 30 -27 41q30 16 30 48q0 23 -24 31q25 13 25 40zM371 685q1 18 -12.5 34t-30.5 16q-10 0 -20 -6q10 24 -8 51q-12 17 -27 17q-19 0 -37 -21q-18 -22 -19 -41q-20 1 -36.5 -15t-20.5 -36 q-3 -21 10 -34q21 -22 50 -11q-5 -15 -5 -24q0 -38 48 -36q24 1 39.5 16t11.5 40q23 -1 39.5 13.5t17.5 36.5zM280 701q-7 -11 -7 -24q-4 0 -8 -0.5t-9 -1.5q4 9 2 21q10 0 22 5z" />
<glyph unicode="&#xe6;" d="M614 66q0 -23 -18 -42.5t-40 -19.5q-17 0 -29 12q-33 -11 -40 -11q-22 0 -38 17q-13 -18 -38 -18q-24 0 -40 16q-12 -25 -35 -25t-42 18.5t-19 41.5q0 24 30 37q-27 13 -27 41t28 40q-27 13 -27 40t27 39l-10 6q-12 -11 -32 -11q-28 0 -46 14q-12 -14 -42 -14 q-33 0 -49 18q-6 -8 -15 -13q24 -10 24 -38q0 -30 -24 -42q22 -11 22 -39q0 -30 -24 -42q23 -11 23 -38q0 -58 -44 -58q-24 0 -41 17.5t-17 40.5q0 26 29 38q-28 13 -28 41t29 40q-27 13 -27 40q0 28 29 40q-28 13 -28 42q0 27 27 39q-27 11 -27 37q0 30 27 46 q-25 14 -25 42q0 42 43 47q-14 13 -14 31q0 21 16 33t38 12q49 0 49 -42q0 -43 -42 -49q13 -12 13 -32q0 -28 -21 -41q20 -13 20 -39q0 -31 -26 -44q9 -4 15 -11q16 15 49 15q27 0 39 -9q18 9 48 9q20 0 33 -9l10 5q-26 11 -26 37q0 30 27 46q-25 13 -25 43q0 27 23 40 q-21 14 -21 38q0 26 25 39q-4 2 -16 10q-14 -16 -38 -16q-25 0 -41 17q-14 -18 -38 -18q-23 0 -39.5 14t-16.5 36q0 20 18 33t39 13q25 0 37 -18q17 14 42 14t39 -15q21 20 50 20q20 0 34 -17q17 16 43 16t38 -17q17 15 41 15q15 0 27 -6q12 6 30 6q53 0 53 -43 q0 -50 -44 -50q-18 0 -33 11q-44 -10 -45 -10q-14 0 -30 17q-13 -18 -38 -18q-27 0 -45 19q-5 -8 -15 -12q25 -10 25 -39q0 -28 -22 -41q21 -14 21 -40q0 -95 -13 -112l-14 -11q15 -3 24 -12q16 15 43 15q26 0 39 -15q16 15 42 15q48 0 48 -42q0 -21 -14.5 -35t-35.5 -14 q-25 0 -41 18q-13 -18 -38 -18q-26 0 -42 17q-8 -11 -20 -15q18 -11 18 -34q0 -30 -24 -42q22 -11 22 -39q0 -30 -24 -42l13 -11q17 15 43 15q25 0 38 -15q16 15 38 15q11 0 42 -10q16 11 42 11q42 0 42 -31z" />
<glyph unicode="&#xe7;" d="M459 539q0 42 -49 42q-21 0 -37 -11t-17 -31q0 -22 15.5 -35.5t37.5 -13.5q49 0 50 49zM397 620q0 42 -48 42q-26 0 -42 -15q-14 15 -39 15t-42 -14q-12 18 -36 18q-21 0 -40 -14t-19 -34q0 -16 13 -29q-4 1 -11 1q-22 0 -39.5 -15.5t-17.5 -37.5q0 -18 15 -31 q-43 -6 -43 -48q0 -29 25 -42q-27 -17 -27 -46q0 -27 27 -37q-27 -12 -27 -39q0 -29 28 -42q-29 -12 -29 -39q0 -38 44 -47q-19 -12 -19 -33q0 -11 5 -21.5t13.5 -18.5t19 -13t22.5 -5q-9 -12 -9 -24q0 -20 18 -33.5t39 -13.5q23 0 37 18q16 -18 42 -18q25 0 39 18 q16 -18 41 -18q22 0 35.5 14t14.5 35q0 42 -48 42q-26 0 -42 -15q-14 15 -39 15q-26 0 -42 -15q-13 16 -37 16q-6 0 -16 -2q10 16 10 35q0 44 -43 47q17 15 17 38q0 27 -24 38q25 13 25 43q0 28 -24 39q26 14 26 44q0 25 -20 39q21 13 21 41q0 18 -12 32q42 3 42 46 q0 20 -13 36q5 -1 9.5 -1.5t9.5 -0.5q25 0 39 18q17 -17 41 -17q25 0 39 18q16 -18 41 -18q21 0 35 14t15 35zM451 134q1 42 -47 42q-21 0 -38 -11t-17 -31q-1 -22 15.5 -35.5t38.5 -13.5q48 0 48 49zM353 -110q0 29 -22 42q26 11 20 39q-3 17 -17 25t-21.5 11.5l-7.5 3.5 l-7 5q7 10 7 26q-2 50 -49 50q-23 0 -38.5 -14t-14.5 -36q0 -20 18 -32q16 -11 36 -10h4q-12 -14 -12 -29q0 -24 7 -28q5 -2 11 -4.5t12 -4.5l-17 -12q-11 18 -31 18q-21 0 -42 -18q-20 -20 -20 -39q0 -33 52 -33q26 0 40 14q17 -16 44 -16q49 0 48 42z" />
<glyph unicode="&#xe8;" d="M486 620q0 43 -54 43q-26 0 -39 -12q-14 11 -36 11q-26 0 -42 -15q-14 15 -39 15t-42 -14q-12 17 -37 17q-27 0 -44 -16q-14 17 -34 17q-22 0 -42 -17.5t-20 -39.5q0 -23 27 -33q-26 -14 -26 -39t22 -38q-24 -14 -24 -40q0 -30 25 -43q-27 -17 -27 -46q0 -27 27 -37 q-27 -12 -27 -39q0 -29 28 -42q-29 -12 -29 -40q0 -27 27 -40q-29 -12 -29 -40t28 -41q-31 -13 -31 -37q0 -22 19.5 -40.5t41.5 -18.5q24 0 35 24q16 -15 40 -15q25 0 39 18q16 -18 42 -18q25 0 39 18q16 -18 42 -18q24 0 39 17q14 -17 34 -17q11 0 21.5 5t18.5 13.5 t13 19.5t5 23q0 31 -42 31q-31 0 -48 -16q-14 15 -40 15t-42 -15q-14 15 -39 15q-26 0 -42 -15q-14 15 -39 15q-26 0 -42 -15l-14 11q24 12 24 42q0 29 -22 39q24 12 24 42q0 27 -24 38q25 13 25 43q0 28 -24 39q4 2 7.5 4.5t6.5 6.5q13 -16 33 -16q28 0 46 24 q18 -24 55 -24q21 0 35 12q16 -13 36 -13q21 0 35.5 14t14.5 35q1 42 -49 42q-30 0 -46 -19q-18 18 -45 18q-17 0 -29 -9q-14 9 -34 9q-28 0 -47 -14l-13 13q21 13 21 40q0 26 -21 40q23 14 23 41q0 28 -26 39q10 4 16 12q16 -19 44 -19q25 0 39 18q17 -17 41 -17 q25 0 39 18q16 -18 42 -18q27 0 41 21q19 -21 44 -21q44 0 45 49zM366 719q1 17 -13.5 28.5t-31.5 13.5q-17 1 -32 -10q-4 42 -44 39q-16 -2 -28 -14.5t-12 -28.5t13 -27t30 -13q19 -2 29 10q3 -15 17.5 -28t30.5 -13q15 0 28 13.5t13 29.5z" />
<glyph unicode="&#xe9;" d="M486 620q0 43 -54 43q-26 0 -39 -12q-14 11 -36 11q-26 0 -42 -15q-14 15 -39 15t-42 -14q-12 17 -37 17q-27 0 -44 -16q-14 17 -34 17q-22 0 -42 -17.5t-20 -39.5q0 -23 27 -33q-26 -14 -26 -39t22 -38q-24 -14 -24 -40q0 -30 25 -43q-27 -17 -27 -46q0 -27 27 -37 q-27 -12 -27 -39q0 -29 28 -42q-29 -12 -29 -40q0 -27 27 -40q-29 -12 -29 -40t28 -41q-31 -13 -31 -37q0 -22 19.5 -40.5t41.5 -18.5q24 0 35 24q16 -15 40 -15q25 0 39 18q16 -18 42 -18q25 0 39 18q16 -18 42 -18q24 0 39 17q14 -17 34 -17q11 0 21.5 5t18.5 13.5 t13 19.5t5 23q0 31 -42 31q-31 0 -48 -16q-14 15 -40 15t-42 -15q-14 15 -39 15q-26 0 -42 -15q-14 15 -39 15q-26 0 -42 -15l-14 11q24 12 24 42q0 29 -22 39q24 12 24 42q0 27 -24 38q25 13 25 43q0 28 -24 39q4 2 7.5 4.5t6.5 6.5q13 -16 33 -16q28 0 46 24 q18 -24 55 -24q21 0 35 12q16 -13 36 -13q21 0 35.5 14t14.5 35q1 42 -49 42q-30 0 -46 -19q-18 18 -45 18q-17 0 -29 -9q-14 9 -34 9q-28 0 -47 -14l-13 13q21 13 21 40q0 26 -21 40q23 14 23 41q0 28 -26 39q10 4 16 12q16 -19 44 -19q25 0 39 18q17 -17 41 -17 q25 0 39 18q16 -18 42 -18q27 0 41 21q19 -21 44 -21q44 0 45 49zM302 713q17 2 30 13t13 27t-12 28.5t-28 14.5q-40 3 -43 -39q-15 11 -33 10q-17 -2 -31.5 -13.5t-13.5 -28.5q1 -16 13.5 -29.5t27.5 -13.5q16 0 30.5 13t17.5 28q10 -12 29 -10z" />
<glyph unicode="&#xea;" d="M486 620q0 43 -54 43q-26 0 -39 -12q-14 11 -36 11q-26 0 -42 -15q-14 15 -39 15t-42 -14q-12 17 -37 17q-27 0 -44 -16q-14 17 -34 17q-22 0 -42 -17.5t-20 -39.5q0 -23 27 -33q-26 -14 -26 -39t22 -38q-24 -14 -24 -40q0 -30 25 -43q-27 -17 -27 -46q0 -27 27 -37 q-27 -12 -27 -39q0 -29 28 -42q-29 -12 -29 -40q0 -27 27 -40q-29 -12 -29 -40t28 -41q-31 -13 -31 -37q0 -22 19.5 -40.5t41.5 -18.5q24 0 35 24q16 -15 40 -15q25 0 39 18q16 -18 42 -18q25 0 39 18q16 -18 42 -18q24 0 39 17q14 -17 34 -17q11 0 21.5 5t18.5 13.5 t13 19.5t5 23q0 31 -42 31q-31 0 -48 -16q-14 15 -40 15t-42 -15q-14 15 -39 15q-26 0 -42 -15q-14 15 -39 15q-26 0 -42 -15l-14 11q24 12 24 42q0 29 -22 39q24 12 24 42q0 27 -24 38q25 13 25 43q0 28 -24 39q4 2 7.5 4.5t6.5 6.5q13 -16 33 -16q28 0 46 24 q18 -24 55 -24q21 0 35 12q16 -13 36 -13q21 0 35.5 14t14.5 35q1 42 -49 42q-30 0 -46 -19q-18 18 -45 18q-17 0 -29 -9q-14 9 -34 9q-28 0 -47 -14l-13 13q21 13 21 40q0 26 -21 40q23 14 23 41q0 28 -26 39q10 4 16 12q16 -19 44 -19q25 0 39 18q17 -17 41 -17 q25 0 39 18q16 -18 42 -18q27 0 41 21q19 -21 44 -21q44 0 45 49zM395 727q0 17 -16 28.5t-35 11.5q-15 0 -25 -9q-6 38 -43 38t-43 -38q-11 9 -25 9q-18 0 -34 -11.5t-16 -28.5t12.5 -31t28.5 -14t30.5 13t17.5 28q11 -11 25 -10h4q21 2 29 10q3 -15 18 -28t30 -13 q17 0 29.5 14t12.5 31z" />
<glyph unicode="&#xeb;" d="M486 620q0 43 -54 43q-26 0 -39 -12q-14 11 -36 11q-26 0 -42 -15q-14 15 -39 15t-42 -14q-12 17 -37 17q-27 0 -44 -16q-14 17 -34 17q-22 0 -42 -17.5t-20 -39.5q0 -23 27 -33q-26 -14 -26 -39t22 -38q-24 -14 -24 -40q0 -30 25 -43q-27 -17 -27 -46q0 -27 27 -37 q-27 -12 -27 -39q0 -29 28 -42q-29 -12 -29 -40q0 -27 27 -40q-29 -12 -29 -40t28 -41q-31 -13 -31 -37q0 -22 19.5 -40.5t41.5 -18.5q24 0 35 24q16 -15 40 -15q25 0 39 18q16 -18 42 -18q25 0 39 18q16 -18 42 -18q24 0 39 17q14 -17 34 -17q11 0 21.5 5t18.5 13.5 t13 19.5t5 23q0 31 -42 31q-31 0 -48 -16q-14 15 -40 15t-42 -15q-14 15 -39 15q-26 0 -42 -15q-14 15 -39 15q-26 0 -42 -15l-14 11q24 12 24 42q0 29 -22 39q24 12 24 42q0 27 -24 38q25 13 25 43q0 28 -24 39q4 2 7.5 4.5t6.5 6.5q13 -16 33 -16q28 0 46 24 q18 -24 55 -24q21 0 35 12q16 -13 36 -13q21 0 35.5 14t14.5 35q1 42 -49 42q-30 0 -46 -19q-18 18 -45 18q-17 0 -29 -9q-14 9 -34 9q-28 0 -47 -14l-13 13q21 13 21 40q0 26 -21 40q23 14 23 41q0 28 -26 39q10 4 16 12q16 -19 44 -19q25 0 39 18q17 -17 41 -17 q25 0 39 18q16 -18 42 -18q27 0 41 21q19 -21 44 -21q44 0 45 49zM408 749q0 19 -16 31.5t-36 12.5q-21 0 -37 -12.5t-16 -31.5q0 -20 16 -32t37 -12q20 0 36 12t16 32zM238 749q0 19 -16 31.5t-36 12.5q-21 0 -37 -12t-16 -32t16 -32t37 -12q20 0 36 12t16 32z" />
<glyph unicode="&#xec;" d="M373 620q0 42 -48 42q-26 0 -42 -15q-14 15 -39 15t-42 -14q-12 18 -37 18q-21 0 -39 -13t-18 -33q0 -22 16.5 -36t39.5 -14q24 0 38 18q5 -6 15 -11q-29 -12 -29 -40t27 -41q-29 -12 -29 -40q0 -26 26 -40q-27 -11 -27 -36q0 -33 34 -45q-35 -8 -35 -35q0 -28 32 -45 q-33 -11 -33 -43q0 -28 28 -41q-30 -12 -30 -38q0 -30 33 -40q-14 -5 -22 -13q-14 15 -39 15q-22 0 -36 -10q-18 -12 -18 -32q0 -22 16 -35.5t38 -13.5q24 0 38 18q16 -18 42 -18q25 0 39 18q16 -18 41 -18q22 0 35.5 14t14.5 35q0 42 -48 42q-26 0 -42 -15q-7 8 -20 13 q31 12 31 48q0 23 -21 32q22 13 22 41t-22 38q23 12 23 41q0 28 -22 38q27 7 27 31q0 32 -33 49q32 11 32 47q0 27 -24 38q25 12 25 42q0 28 -24 39q9 4 15 12q16 -18 41 -18q21 0 35 14t15 35zM293 719q1 17 -13.5 28.5t-31.5 13.5q-17 1 -32 -10q-4 42 -44 39 q-16 -2 -28 -14.5t-12 -28.5t13 -27t30 -13q19 -2 29 10q3 -15 17.5 -28t30.5 -13q15 0 28 13.5t13 29.5z" />
<glyph unicode="&#xed;" d="M370 620q0 42 -48 42q-26 0 -42 -15q-14 15 -39 15t-42 -14q-12 18 -37 18q-21 0 -39 -13t-18 -33q0 -22 16.5 -36t39.5 -14q24 0 38 18q5 -6 15 -11q-29 -12 -29 -40t27 -41q-29 -12 -29 -40q0 -26 26 -40q-27 -11 -27 -36q0 -33 34 -45q-35 -8 -35 -35q0 -28 32 -45 q-33 -11 -33 -43q0 -28 28 -41q-30 -12 -30 -38q0 -30 33 -40q-14 -5 -22 -13q-14 15 -39 15q-22 0 -36 -10q-18 -12 -18 -32q0 -22 16 -35.5t38 -13.5q24 0 38 18q16 -18 42 -18q25 0 39 18q16 -18 41 -18q22 0 35.5 14t14.5 35q0 42 -48 42q-26 0 -42 -15q-7 8 -20 13 q31 12 31 48q0 23 -21 32q22 13 22 41t-22 38q23 12 23 41q0 28 -22 38q27 7 27 31q0 32 -33 49q32 11 32 47q0 27 -24 38q25 12 25 42q0 28 -24 39q9 4 15 12q16 -18 41 -18q21 0 35 14t15 35zM258 713q17 2 30 13t13 27t-12 28.5t-28 14.5q-40 3 -43 -39q-15 11 -33 10 q-17 -2 -31.5 -13.5t-13.5 -28.5q1 -16 13.5 -29.5t27.5 -13.5q16 0 30.5 13t17.5 28q10 -12 29 -10z" />
<glyph unicode="&#xee;" d="M400 620q0 42 -48 42q-26 0 -42 -15q-14 15 -39 15t-42 -14q-12 18 -37 18q-21 0 -39 -13t-18 -33q0 -22 16.5 -36t39.5 -14q24 0 38 18q5 -6 15 -11q-29 -12 -29 -40t27 -41q-29 -12 -29 -40q0 -26 26 -40q-27 -11 -27 -36q0 -33 34 -45q-35 -8 -35 -35q0 -28 32 -45 q-33 -11 -33 -43q0 -28 28 -41q-30 -12 -30 -38q0 -30 33 -40q-14 -5 -22 -13q-14 15 -39 15q-22 0 -36 -10q-18 -12 -18 -32q0 -22 16 -35.5t38 -13.5q24 0 38 18q16 -18 42 -18q25 0 39 18q16 -18 41 -18q22 0 35.5 14t14.5 35q0 42 -48 42q-26 0 -42 -15q-7 8 -20 13 q31 12 31 48q0 23 -21 32q22 13 22 41t-22 38q23 12 23 41q0 28 -22 38q27 7 27 31q0 32 -33 49q32 11 32 47q0 27 -24 38q25 12 25 42q0 28 -24 39q9 4 15 12q16 -18 41 -18q21 0 35 14t15 35zM386 730q0 17 -16 28.5t-35 11.5q-15 0 -25 -9q-6 38 -43 38t-43 -38 q-11 9 -25 9q-18 0 -34 -11.5t-16 -28.5t12.5 -31t28.5 -14t30.5 13t17.5 28q11 -11 25 -10h4q21 2 29 10q3 -15 18 -28t30 -13q17 0 29.5 14t12.5 31z" />
<glyph unicode="&#xef;" d="M407 620q0 42 -48 42q-26 0 -42 -15q-14 15 -39 15t-42 -14q-12 18 -37 18q-21 0 -39 -13t-18 -33q0 -22 16.5 -36t39.5 -14q24 0 38 18q5 -6 15 -11q-29 -12 -29 -40t27 -41q-29 -12 -29 -40q0 -26 26 -40q-27 -11 -27 -36q0 -33 34 -45q-35 -8 -35 -35q0 -28 32 -45 q-33 -11 -33 -43q0 -28 28 -41q-30 -12 -30 -38q0 -30 33 -40q-14 -5 -22 -13q-14 15 -39 15q-22 0 -36 -10q-18 -12 -18 -32q0 -22 16 -35.5t38 -13.5q24 0 38 18q16 -18 42 -18q25 0 39 18q16 -18 41 -18q22 0 35.5 14t14.5 35q0 42 -48 42q-26 0 -42 -15q-7 8 -20 13 q31 12 31 48q0 23 -21 32q22 13 22 41t-22 38q23 12 23 41q0 28 -22 38q27 7 27 31q0 32 -33 49q32 11 32 47q0 27 -24 38q25 12 25 42q0 28 -24 39q9 4 15 12q16 -18 41 -18q21 0 35 14t15 35zM413 750q0 19 -16 31.5t-36 12.5q-21 0 -37 -12.5t-16 -31.5q0 -20 16 -32 t37 -12q20 0 36 12t16 32zM243 750q0 19 -16 31.5t-36 12.5q-21 0 -37 -12t-16 -32t16 -32t37 -12q20 0 36 12t16 32z" />
<glyph unicode="&#xf0;" d="M338 375q1 51 -45 51q-24 0 -40 -18q-12 18 -36 18q-26 0 -40 -17q-4 4 -9 8q20 14 20 40t-20 40q22 13 22 41q0 29 -25 39q10 4 15 12q16 -19 44 -19q25 0 39 18q17 -17 42 -17q24 0 38 18q16 -18 42 -18q21 0 35 14t14 35q1 42 -48 42q-26 0 -42 -15q-14 15 -39 15 q-24 0 -41 -14q-14 17 -38 17q-27 0 -43 -16q-14 17 -34 17q-22 0 -42 -17.5t-20 -39.5q0 -23 27 -33q-26 -14 -26 -39t21 -38q-23 -14 -23 -40q0 -30 23 -43q-5 -3 -9 -7q-14 17 -36 17q-25 0 -41 -20t-14 -43.5t16 -34.5t38 -11t37 21q4 -3 10 -5q-27 -12 -27 -39 q0 -28 29 -42q-30 -12 -30 -40q0 -27 27 -40q-29 -12 -29 -40t28 -41q-30 -14 -30 -37q0 -22 19.5 -40.5t41.5 -18.5q23 0 35 24q16 -15 40 -15t38 18q16 -18 43 -18q24 0 38 18q16 -18 42 -18q21 0 35 14t14 35q1 42 -47 42q-27 0 -43 -15q-14 15 -38 15q-27 0 -43 -15 q-14 15 -38 15q-27 0 -43 -15q-4 6 -13 11q24 12 24 42q0 29 -22 39q24 12 24 42q0 27 -24 38q25 13 25 43q0 22 -15 33q3 4 6 9q15 -20 39 -20t36 21q16 -21 39 -21q22 0 34.5 17.5t12.5 40.5zM513 456q0 35 -35 43q18 13 18 40q0 42 -48 42q-22 0 -36 -10q-18 -12 -18 -32 q-2 -37 37 -47q-21 -12 -21 -35q0 -30 30 -43q-31 -12 -31 -41q0 -26 26 -40q-28 -12 -28 -39q0 -29 30 -42q-32 -12 -32 -41q0 -22 20 -36q-37 -9 -39 -41q0 -22 16 -35.5t38 -13.5q48 0 49 49q1 24 -19 35q16 6 28 21.5t12 32.5q0 22 -24 30q24 13 24 42q0 30 -27 41 q29 17 29 48q0 23 -23 31q24 13 24 41z" />
<glyph unicode="&#xf1;" d="M481 620q0 43 -54 43q-21 0 -37 -11t-12 -32q4 -27 32 -41q-33 -11 -33 -43q0 -27 27 -40q-29 -12 -29 -40q0 -29 30 -42q-31 -12 -31 -41q0 -26 26 -40q-27 -12 -27 -39q0 -28 29 -42q-10 -4 -17 -10q-12 19 -35 25q9 13 9 28q0 38 -37 51q6 7 6 18q0 9 -5 18t-13 16.5 t-17.5 13t-18.5 6.5q9 13 9 29q0 22 -16 37.5t-38 15.5q-8 0 -11 -1q10 19 10 36q0 21 -13 34.5t-33 13.5q-18 0 -34 -10q-7 4 -14 7q21 11 23 40q0 44 -45 44q-22 0 -40.5 -15.5t-18.5 -37.5q0 -28 32 -37q-23 -12 -23 -37q0 -21 18 -36q-29 -11 -29 -42q0 -30 25 -43 q-27 -17 -27 -46q0 -27 27 -37q-27 -12 -27 -39q0 -29 28 -42q-29 -12 -29 -40q0 -27 27 -40q-29 -12 -29 -40t28 -41q-29 -12 -29 -38q0 -23 17 -40.5t41 -17.5q43 0 44 58q0 26 -23 38q24 12 24 42q0 29 -22 39q24 12 24 42q0 27 -24 38q25 13 25 43q0 28 -24 39 q26 14 26 44q0 25 -20 39q21 13 21 40q0 24 -16 37l4 3q18 -20 41 -20q-6 -11 -6 -20q0 -19 16.5 -35t35.5 -21q-9 -11 -9 -23q0 -37 45 -47q-9 -14 -9 -31q0 -44 42 -53q-8 -14 -8 -29q0 -22 17 -37.5t39 -15.5t36 18q3 -4 11 -10q-32 -11 -32 -41q0 -32 33 -44 q-25 -12 -25 -35q0 -21 12.5 -35t33.5 -14q43 0 56 49q1 5 1 11q0 22 -27 30q18 13 18 39q0 28 -22 38q34 16 34 51q0 23 -23 31q23 14 23 42q0 30 -27 41q30 16 30 48q0 23 -24 31q24 12 24 42q0 28 -23 39q25 12 25 42q0 28 -22 38q23 12 23 44zM422 751q0 19 -13 33 t-32 14q-34 0 -43 -34q-12 6 -25 6q-15 0 -25 -9q-6 37 -43 37t-43 -37q-11 9 -25 9q-19 0 -35 -11.5t-16 -29.5q0 -16 12.5 -30t29.5 -14q16 0 30.5 12.5t17.5 28.5q10 -10 24 -10q24 0 34 10q3 -16 17.5 -28.5t30.5 -12.5q19 0 36 35q10 -7 23 -7q45 0 45 38z" />
<glyph unicode="&#xf2;" d="M473 455q0 42 -43 45q18 15 18 36q0 24 -19 41t-43 15q9 15 9 28q0 20 -15.5 31.5t-35.5 11.5q-24 0 -40 -16q-14 15 -39 15t-42 -14q-12 18 -36 18q-22 0 -40 -13.5t-18 -34.5q0 -12 7 -23q-23 -2 -43 -19.5t-20 -40.5q0 -16 14 -30q-42 -6 -42 -47q0 -29 25 -42 q-27 -17 -27 -46q0 -27 27 -37q-27 -12 -27 -39q0 -29 28 -42q-29 -12 -29 -39q0 -38 44 -47q-19 -12 -19 -33q0 -11 5 -21.5t13.5 -18.5t19 -13t22.5 -5q-9 -12 -9 -24q0 -20 18 -33.5t39 -13.5q23 0 37 18q16 -18 42 -18q25 0 39 18q16 -19 39 -19q21 0 37 14.5t16 34.5 q0 15 -9 26q4 -1 7 -1.5t6 -0.5q21 0 35.5 17.5t14.5 39.5q0 24 -16 34q18 4 32 21t14 35q0 22 -23 30q23 14 23 42q0 30 -27 41q30 16 30 48q0 23 -24 31q25 13 25 40zM399 414q-31 -12 -31 -41q0 -26 26 -40q-27 -12 -27 -39q0 -28 29 -42q-31 -12 -31 -41q0 -22 18 -35 q-46 -4 -46 -44q0 -20 15 -38q-5 1 -9.5 1.5t-9.5 0.5q-23 0 -39 -16q-14 15 -39 15q-26 0 -42 -15q-13 16 -37 16q-6 0 -16 -2q10 16 10 35q0 44 -43 47q17 15 17 38q0 27 -24 38q25 13 25 43q0 28 -24 39q26 14 26 44q0 25 -20 39q21 13 21 41q0 20 -13 32q43 9 43 60 q0 10 -3 21q4 -1 12 -1q22 0 36 18q17 -17 41 -17q25 0 39 18q19 -21 48 -18q-8 -14 -8 -29q0 -45 45 -52q-19 -12 -19 -33q0 -30 30 -43zM359 721q1 17 -13.5 28.5t-31.5 13.5q-17 1 -32 -10q-4 42 -44 39q-16 -2 -28 -14.5t-12 -28.5t13 -27t30 -13q19 -2 29 10 q3 -15 17.5 -28t30.5 -13q15 0 28 13.5t13 29.5z" />
<glyph unicode="&#xf3;" d="M473 455q0 42 -43 45q18 15 18 36q0 24 -19 41t-43 15q9 15 9 28q0 20 -15.5 31.5t-35.5 11.5q-24 0 -40 -16q-14 15 -39 15t-42 -14q-12 18 -36 18q-22 0 -40 -13.5t-18 -34.5q0 -12 7 -23q-23 -2 -43 -19.5t-20 -40.5q0 -16 14 -30q-42 -6 -42 -47q0 -29 25 -42 q-27 -17 -27 -46q0 -27 27 -37q-27 -12 -27 -39q0 -29 28 -42q-29 -12 -29 -39q0 -38 44 -47q-19 -12 -19 -33q0 -11 5 -21.5t13.5 -18.5t19 -13t22.5 -5q-9 -12 -9 -24q0 -20 18 -33.5t39 -13.5q23 0 37 18q16 -18 42 -18q25 0 39 18q16 -19 39 -19q21 0 37 14.5t16 34.5 q0 15 -9 26q4 -1 7 -1.5t6 -0.5q21 0 35.5 17.5t14.5 39.5q0 24 -16 34q18 4 32 21t14 35q0 22 -23 30q23 14 23 42q0 30 -27 41q30 16 30 48q0 23 -24 31q25 13 25 40zM399 414q-31 -12 -31 -41q0 -26 26 -40q-27 -12 -27 -39q0 -28 29 -42q-31 -12 -31 -41q0 -22 18 -35 q-46 -4 -46 -44q0 -20 15 -38q-5 1 -9.5 1.5t-9.5 0.5q-23 0 -39 -16q-14 15 -39 15q-26 0 -42 -15q-13 16 -37 16q-6 0 -16 -2q10 16 10 35q0 44 -43 47q17 15 17 38q0 27 -24 38q25 13 25 43q0 28 -24 39q26 14 26 44q0 25 -20 39q21 13 21 41q0 20 -13 32q43 9 43 60 q0 10 -3 21q4 -1 12 -1q22 0 36 18q17 -17 41 -17q25 0 39 18q19 -21 48 -18q-8 -14 -8 -29q0 -45 45 -52q-19 -12 -19 -33q0 -30 30 -43zM297 715q17 2 30 13t13 27t-12 28.5t-28 14.5q-40 3 -43 -39q-15 11 -33 10q-17 -2 -31.5 -13.5t-13.5 -28.5q1 -16 13.5 -29.5 t27.5 -13.5q16 0 30.5 13t17.5 28q10 -12 29 -10z" />
<glyph unicode="&#xf4;" d="M473 455q0 42 -43 45q18 15 18 36q0 24 -19 41t-43 15q9 15 9 28q0 20 -15.5 31.5t-35.5 11.5q-24 0 -40 -16q-14 15 -39 15t-42 -14q-12 18 -36 18q-22 0 -40 -13.5t-18 -34.5q0 -12 7 -23q-23 -2 -43 -19.5t-20 -40.5q0 -16 14 -30q-42 -6 -42 -47q0 -29 25 -42 q-27 -17 -27 -46q0 -27 27 -37q-27 -12 -27 -39q0 -29 28 -42q-29 -12 -29 -39q0 -38 44 -47q-19 -12 -19 -33q0 -11 5 -21.5t13.5 -18.5t19 -13t22.5 -5q-9 -12 -9 -24q0 -20 18 -33.5t39 -13.5q23 0 37 18q16 -18 42 -18q25 0 39 18q16 -19 39 -19q21 0 37 14.5t16 34.5 q0 15 -9 26q4 -1 7 -1.5t6 -0.5q21 0 35.5 17.5t14.5 39.5q0 24 -16 34q18 4 32 21t14 35q0 22 -23 30q23 14 23 42q0 30 -27 41q30 16 30 48q0 23 -24 31q25 13 25 40zM399 414q-31 -12 -31 -41q0 -26 26 -40q-27 -12 -27 -39q0 -28 29 -42q-31 -12 -31 -41q0 -22 18 -35 q-46 -4 -46 -44q0 -20 15 -38q-5 1 -9.5 1.5t-9.5 0.5q-23 0 -39 -16q-14 15 -39 15q-26 0 -42 -15q-13 16 -37 16q-6 0 -16 -2q10 16 10 35q0 44 -43 47q17 15 17 38q0 27 -24 38q25 13 25 43q0 28 -24 39q26 14 26 44q0 25 -20 39q21 13 21 41q0 20 -13 32q43 9 43 60 q0 10 -3 21q4 -1 12 -1q22 0 36 18q17 -17 41 -17q25 0 39 18q19 -21 48 -18q-8 -14 -8 -29q0 -45 45 -52q-19 -12 -19 -33q0 -30 30 -43zM384 725q0 17 -16 28.5t-35 11.5q-15 0 -25 -9q-6 38 -43 38t-43 -38q-11 9 -25 9q-18 0 -34 -11.5t-16 -28.5t12.5 -31t28.5 -14 t30.5 13t17.5 28q11 -11 25 -10h4q21 2 29 10q3 -15 18 -28t30 -13q17 0 29.5 14t12.5 31z" />
<glyph unicode="&#xf5;" d="M473 455q0 42 -43 45q18 15 18 36q0 24 -19 41t-43 15q9 15 9 28q0 20 -15.5 31.5t-35.5 11.5q-24 0 -40 -16q-14 15 -39 15t-42 -14q-12 18 -36 18q-22 0 -40 -13.5t-18 -34.5q0 -12 7 -23q-23 -2 -43 -19.5t-20 -40.5q0 -16 14 -30q-42 -6 -42 -47q0 -29 25 -42 q-27 -17 -27 -46q0 -27 27 -37q-27 -12 -27 -39q0 -29 28 -42q-29 -12 -29 -39q0 -38 44 -47q-19 -12 -19 -33q0 -11 5 -21.5t13.5 -18.5t19 -13t22.5 -5q-9 -12 -9 -24q0 -20 18 -33.5t39 -13.5q23 0 37 18q16 -18 42 -18q25 0 39 18q16 -19 39 -19q21 0 37 14.5t16 34.5 q0 15 -9 26q4 -1 7 -1.5t6 -0.5q21 0 35.5 17.5t14.5 39.5q0 24 -16 34q18 4 32 21t14 35q0 22 -23 30q23 14 23 42q0 30 -27 41q30 16 30 48q0 23 -24 31q25 13 25 40zM399 414q-31 -12 -31 -41q0 -26 26 -40q-27 -12 -27 -39q0 -28 29 -42q-31 -12 -31 -41q0 -22 18 -35 q-46 -4 -46 -44q0 -20 15 -38q-5 1 -9.5 1.5t-9.5 0.5q-23 0 -39 -16q-14 15 -39 15q-26 0 -42 -15q-13 16 -37 16q-6 0 -16 -2q10 16 10 35q0 44 -43 47q17 15 17 38q0 27 -24 38q25 13 25 43q0 28 -24 39q26 14 26 44q0 25 -20 39q21 13 21 41q0 20 -13 32q43 9 43 60 q0 10 -3 21q4 -1 12 -1q22 0 36 18q17 -17 41 -17q25 0 39 18q19 -21 48 -18q-8 -14 -8 -29q0 -45 45 -52q-19 -12 -19 -33q0 -30 30 -43zM425 750q0 19 -13 33t-32 14q-34 0 -43 -34q-12 6 -25 6q-15 0 -25 -9q-6 37 -43 37t-43 -37q-11 9 -25 9q-19 0 -35 -11.5t-16 -29.5 q0 -16 12.5 -30t29.5 -14q16 0 30.5 12.5t17.5 28.5q10 -10 24 -10q24 0 34 10q3 -16 17.5 -28.5t30.5 -12.5q19 0 36 35q10 -7 23 -7q45 0 45 38z" />
<glyph unicode="&#xf6;" d="M473 455q0 42 -43 45q18 15 18 36q0 24 -19 41t-43 15q9 15 9 28q0 20 -15.5 31.5t-35.5 11.5q-24 0 -40 -16q-14 15 -39 15t-42 -14q-12 18 -36 18q-22 0 -40 -13.5t-18 -34.5q0 -12 7 -23q-23 -2 -43 -19.5t-20 -40.5q0 -16 14 -30q-42 -6 -42 -47q0 -29 25 -42 q-27 -17 -27 -46q0 -27 27 -37q-27 -12 -27 -39q0 -29 28 -42q-29 -12 -29 -39q0 -38 44 -47q-19 -12 -19 -33q0 -11 5 -21.5t13.5 -18.5t19 -13t22.5 -5q-9 -12 -9 -24q0 -20 18 -33.5t39 -13.5q23 0 37 18q16 -18 42 -18q25 0 39 18q16 -19 39 -19q21 0 37 14.5t16 34.5 q0 15 -9 26q4 -1 7 -1.5t6 -0.5q21 0 35.5 17.5t14.5 39.5q0 24 -16 34q18 4 32 21t14 35q0 22 -23 30q23 14 23 42q0 30 -27 41q30 16 30 48q0 23 -24 31q25 13 25 40zM399 414q-31 -12 -31 -41q0 -26 26 -40q-27 -12 -27 -39q0 -28 29 -42q-31 -12 -31 -41q0 -22 18 -35 q-46 -4 -46 -44q0 -20 15 -38q-5 1 -9.5 1.5t-9.5 0.5q-23 0 -39 -16q-14 15 -39 15q-26 0 -42 -15q-13 16 -37 16q-6 0 -16 -2q10 16 10 35q0 44 -43 47q17 15 17 38q0 27 -24 38q25 13 25 43q0 28 -24 39q26 14 26 44q0 25 -20 39q21 13 21 41q0 20 -13 32q43 9 43 60 q0 10 -3 21q4 -1 12 -1q22 0 36 18q17 -17 41 -17q25 0 39 18q19 -21 48 -18q-8 -14 -8 -29q0 -45 45 -52q-19 -12 -19 -33q0 -30 30 -43zM390 750q0 19 -16 31.5t-36 12.5q-21 0 -37 -12.5t-16 -31.5q0 -20 16 -32t37 -12q20 0 36 12t16 32zM220 750q0 19 -16 31.5 t-36 12.5q-21 0 -37 -12t-16 -32t16 -32t37 -12q20 0 36 12t16 32z" />
<glyph unicode="&#xf7;" horiz-adv-x="1000" />
<glyph unicode="&#xf8;" d="M518 620q1 43 -49 43q-24 0 -43 -12q-9 -5 -16 -14q-5 12 -18.5 19t-28.5 7q-25 0 -41 -16q-14 15 -39 15q-24 0 -41 -14q-14 18 -37 18q-21 0 -39 -13.5t-18 -34.5q0 -12 7 -23q-23 -2 -43 -19.5t-20 -40.5q0 -17 13 -30q-41 -6 -41 -47q0 -29 25 -42q-27 -17 -27 -46 q0 -26 26 -37q-27 -12 -27 -39q0 -28 29 -42q-30 -12 -30 -39q0 -36 41 -47q-8 -6 -13.5 -15t-5.5 -19q0 -16 14 -30q-53 -9 -53 -50q-1 -24 18.5 -41t43.5 -17q34 0 44 28q18 -18 44 -18q23 0 37 18q16 -18 43 -18q24 0 38 18q16 -19 40 -19q20 0 36.5 14.5t16.5 34.5 q0 15 -9 26q8 -2 13 -2q21 0 35.5 17.5t14.5 39.5q0 24 -16 34q18 4 32 21t14 35q0 22 -24 30q24 13 24 42q0 30 -27 41q29 17 29 48q0 23 -23 31q24 13 24 40q0 42 -43 45q18 15 18 36q0 13 -7 27q24 0 41.5 16t17.5 41zM418 414q-31 -12 -31 -41q0 -26 26 -40 q-28 -12 -28 -39q0 -29 30 -42q-32 -12 -32 -41q0 -22 18 -35q-46 -4 -46 -44q0 -21 16 -38q-5 1 -9.5 1.5t-9.5 0.5q-23 0 -40 -16q-14 15 -38 15q-27 0 -43 -15q-13 16 -37 16q-6 0 -14 -2q16 13 16 34q0 12 -4.5 19t-8 11.5t-2.5 6t12 1.5q23 0 39 18t16 41q0 14 -7 22 q24 -3 40 11t16 38q0 16 -11 32q52 4 52 58q0 13 -4 24q23 0 46 21q7 7 10 11q6 -19 28 -28zM139 252q25 13 25 43q0 29 -25 39q27 13 27 44q0 25 -20 39q20 14 20 41q0 20 -12 32q42 9 42 60q0 10 -3 21q5 -1 12 -1q22 0 36 18q17 -17 42 -17q24 0 38 18q16 -17 37 -19 q-12 -11 -12 -26q0 -19 19 -35q-26 0 -51 -14q-29 -17 -29 -41q0 -12 6 -22q-12 0 -23.5 -5t-21.5 -13t-16 -18t-6 -22q0 -16 14 -30q-54 -6 -54 -44q0 -20 21 -36q-24 0 -46 -11q-6 -3 -10 -7q-6 4 -10 6zM402 486q-2 4 -2 5q2 -1 7 -1q-4 -2 -5 -4z" />
<glyph unicode="&#xf9;" d="M472 620q0 43 -54 43q-21 0 -37 -11t-12 -32q4 -27 32 -41q-33 -11 -33 -43q0 -27 27 -40q-29 -12 -29 -40q0 -29 30 -42q-31 -12 -31 -41q0 -26 26 -40q-27 -12 -27 -39q0 -28 29 -42q-31 -12 -31 -41q0 -22 20 -36q-39 -9 -39 -45q0 -14 7 -27q-4 1 -13 1 q-28 0 -47 -22q-13 13 -38 13q-24 0 -41 -14q-17 20 -45 20q-8 0 -15 -3q7 15 7 32q0 37 -36 45q19 13 19 39q0 27 -24 38q25 13 25 43q0 28 -24 39q26 14 26 44q0 25 -20 39q21 13 21 40q0 26 -21 40q23 14 23 41q0 28 -26 39q26 14 27 43q0 44 -45 44q-22 0 -40.5 -15.5 t-18.5 -37.5q0 -24 26 -35q-26 -14 -26 -39t22 -38q-24 -14 -24 -40q0 -30 25 -43q-27 -17 -27 -46q0 -27 27 -37q-27 -12 -27 -39q0 -29 28 -42q-29 -12 -29 -39q0 -35 37 -45q-21 -12 -21 -35q0 -12 6 -23.5t15 -20t21 -13.5t24 -3q-5 -12 -5 -20q0 -21 17 -35t39 -14 q23 0 38 18q15 -18 41 -18q25 0 40 18q16 -19 39 -19q22 0 37 14.5t15 36.5q0 13 -6 25q7 -3 16 -3q23 0 38 18t15 40q0 23 -18 35q16 6 27.5 21.5t11.5 32.5q0 22 -23 30q23 14 23 42q0 30 -27 41q30 16 30 48q0 23 -24 31q24 12 24 42q0 28 -23 39q25 12 25 42 q0 28 -22 38q23 12 23 44zM357 725q1 17 -13.5 28.5t-31.5 13.5q-17 1 -32 -10q-4 42 -44 39q-16 -2 -28 -14.5t-12 -28.5t13 -27t30 -13q19 -2 29 10q3 -15 17.5 -28t30.5 -13q15 0 28 13.5t13 29.5z" />
<glyph unicode="&#xfa;" d="M472 620q0 43 -54 43q-21 0 -37 -11t-12 -32q4 -27 32 -41q-33 -11 -33 -43q0 -27 27 -40q-29 -12 -29 -40q0 -29 30 -42q-31 -12 -31 -41q0 -26 26 -40q-27 -12 -27 -39q0 -28 29 -42q-31 -12 -31 -41q0 -22 20 -36q-39 -9 -39 -45q0 -14 7 -27q-4 1 -13 1 q-28 0 -47 -22q-13 13 -38 13q-24 0 -41 -14q-17 20 -45 20q-8 0 -15 -3q7 15 7 32q0 37 -36 45q19 13 19 39q0 27 -24 38q25 13 25 43q0 28 -24 39q26 14 26 44q0 25 -20 39q21 13 21 40q0 26 -21 40q23 14 23 41q0 28 -26 39q26 14 27 43q0 44 -45 44q-22 0 -40.5 -15.5 t-18.5 -37.5q0 -24 26 -35q-26 -14 -26 -39t22 -38q-24 -14 -24 -40q0 -30 25 -43q-27 -17 -27 -46q0 -27 27 -37q-27 -12 -27 -39q0 -29 28 -42q-29 -12 -29 -39q0 -35 37 -45q-21 -12 -21 -35q0 -12 6 -23.5t15 -20t21 -13.5t24 -3q-5 -12 -5 -20q0 -21 17 -35t39 -14 q23 0 38 18q15 -18 41 -18q25 0 40 18q16 -19 39 -19q22 0 37 14.5t15 36.5q0 13 -6 25q7 -3 16 -3q23 0 38 18t15 40q0 23 -18 35q16 6 27.5 21.5t11.5 32.5q0 22 -23 30q23 14 23 42q0 30 -27 41q30 16 30 48q0 23 -24 31q24 12 24 42q0 28 -23 39q25 12 25 42 q0 28 -22 38q23 12 23 44zM309 710q17 2 30 13t13 27t-12 28.5t-28 14.5q-40 3 -43 -39q-15 11 -33 10q-17 -2 -31.5 -13.5t-13.5 -28.5q1 -16 13.5 -29.5t27.5 -13.5q16 0 30.5 13t17.5 28q10 -12 29 -10z" />
<glyph unicode="&#xfb;" d="M472 620q0 43 -54 43q-21 0 -37 -11t-12 -32q4 -27 32 -41q-33 -11 -33 -43q0 -27 27 -40q-29 -12 -29 -40q0 -29 30 -42q-31 -12 -31 -41q0 -26 26 -40q-27 -12 -27 -39q0 -28 29 -42q-31 -12 -31 -41q0 -22 20 -36q-39 -9 -39 -45q0 -14 7 -27q-4 1 -13 1 q-28 0 -47 -22q-13 13 -38 13q-24 0 -41 -14q-17 20 -45 20q-8 0 -15 -3q7 15 7 32q0 37 -36 45q19 13 19 39q0 27 -24 38q25 13 25 43q0 28 -24 39q26 14 26 44q0 25 -20 39q21 13 21 40q0 26 -21 40q23 14 23 41q0 28 -26 39q26 14 27 43q0 44 -45 44q-22 0 -40.5 -15.5 t-18.5 -37.5q0 -24 26 -35q-26 -14 -26 -39t22 -38q-24 -14 -24 -40q0 -30 25 -43q-27 -17 -27 -46q0 -27 27 -37q-27 -12 -27 -39q0 -29 28 -42q-29 -12 -29 -39q0 -35 37 -45q-21 -12 -21 -35q0 -12 6 -23.5t15 -20t21 -13.5t24 -3q-5 -12 -5 -20q0 -21 17 -35t39 -14 q23 0 38 18q15 -18 41 -18q25 0 40 18q16 -19 39 -19q22 0 37 14.5t15 36.5q0 13 -6 25q7 -3 16 -3q23 0 38 18t15 40q0 23 -18 35q16 6 27.5 21.5t11.5 32.5q0 22 -23 30q23 14 23 42q0 30 -27 41q30 16 30 48q0 23 -24 31q24 12 24 42q0 28 -23 39q25 12 25 42 q0 28 -22 38q23 12 23 44zM384 725q0 17 -16 28.5t-35 11.5q-15 0 -25 -9q-6 38 -43 38t-43 -38q-11 9 -25 9q-18 0 -34 -11.5t-16 -28.5t12.5 -31t28.5 -14t30.5 13t17.5 28q11 -11 25 -10h4q21 2 29 10q3 -15 18 -28t30 -13q17 0 29.5 14t12.5 31z" />
<glyph unicode="&#xfc;" d="M472 620q0 43 -54 43q-21 0 -37 -11t-12 -32q4 -27 32 -41q-33 -11 -33 -43q0 -27 27 -40q-29 -12 -29 -40q0 -29 30 -42q-31 -12 -31 -41q0 -26 26 -40q-27 -12 -27 -39q0 -28 29 -42q-31 -12 -31 -41q0 -22 20 -36q-39 -9 -39 -45q0 -14 7 -27q-4 1 -13 1 q-28 0 -47 -22q-13 13 -38 13q-24 0 -41 -14q-17 20 -45 20q-8 0 -15 -3q7 15 7 32q0 37 -36 45q19 13 19 39q0 27 -24 38q25 13 25 43q0 28 -24 39q26 14 26 44q0 25 -20 39q21 13 21 40q0 26 -21 40q23 14 23 41q0 28 -26 39q26 14 27 43q0 44 -45 44q-22 0 -40.5 -15.5 t-18.5 -37.5q0 -24 26 -35q-26 -14 -26 -39t22 -38q-24 -14 -24 -40q0 -30 25 -43q-27 -17 -27 -46q0 -27 27 -37q-27 -12 -27 -39q0 -29 28 -42q-29 -12 -29 -39q0 -35 37 -45q-21 -12 -21 -35q0 -12 6 -23.5t15 -20t21 -13.5t24 -3q-5 -12 -5 -20q0 -21 17 -35t39 -14 q23 0 38 18q15 -18 41 -18q25 0 40 18q16 -19 39 -19q22 0 37 14.5t15 36.5q0 13 -6 25q7 -3 16 -3q23 0 38 18t15 40q0 23 -18 35q16 6 27.5 21.5t11.5 32.5q0 22 -23 30q23 14 23 42q0 30 -27 41q30 16 30 48q0 23 -24 31q24 12 24 42q0 28 -23 39q25 12 25 42 q0 28 -22 38q23 12 23 44zM405 747q0 19 -16 31.5t-36 12.5q-21 0 -37 -12.5t-16 -31.5q0 -20 16 -32t37 -12q20 0 36 12t16 32zM235 747q0 19 -16 31.5t-36 12.5q-21 0 -37 -12t-16 -32t16 -32t37 -12q20 0 36 12t16 32z" />
<glyph unicode="&#xfd;" d="M473 620q0 43 -54 43q-21 0 -37 -11t-12 -32q4 -24 28 -40q-4 1 -12 1q-22 0 -38 -12.5t-16 -33.5q0 -19 13 -35q-20 -1 -35 -14t-15 -32q0 -21 22 -36q-5 1 -8.5 1.5t-7.5 0.5q-24 0 -41 -17q-14 25 -50 26q9 13 9 28q0 22 -16 35.5t-38 13.5q11 16 11 31q0 43 -46 44 q17 13 19 39q0 44 -45 44q-22 0 -40.5 -15.5t-18.5 -38.5q0 -35 45 -39q-19 -12 -19 -33q0 -20 16.5 -35t36.5 -16q-9 -14 -9 -28q0 -20 14.5 -34.5t35.5 -15.5q-7 -10 -7 -24q0 -21 14 -38.5t34 -17.5q-3 -14 -3 -26q0 -35 28 -50q-29 -11 -29 -40t28 -42q-30 -12 -30 -38 q0 -30 33 -40q-33 -10 -34 -40q0 -22 15 -35.5t38 -13.5q48 0 49 49q0 31 -29 40q31 12 31 48q0 23 -21 32q22 13 22 41q0 27 -23 38q24 13 24 43q0 19 -10 33q24 -3 40.5 11t16.5 38q0 23 -16 33q4 -1 11 -1q21 0 37 14t16 34q0 14 -9 25q19 4 32.5 21t13.5 37q0 21 -18 32 q4 -1 10 -1q44 0 44 49zM253 356l-1 1l1 1v-2zM323 714q17 2 30 13t13 27t-12 28.5t-28 14.5q-40 3 -43 -39q-15 11 -33 10q-17 -2 -31.5 -13.5t-13.5 -28.5q1 -16 13.5 -29.5t27.5 -13.5q16 0 30.5 13t17.5 28q10 -12 29 -10z" />
<glyph unicode="&#xfe;" />
<glyph unicode="&#xff;" d="M474 620q0 -49 -44 -49q-4 0 -10 1q18 -11 18 -32q0 -20 -13.5 -37t-32.5 -21q9 -11 9 -25q0 -20 -16 -34t-37 -14q-5 0 -11 1q16 -11 16 -33q0 -24 -16.5 -38t-40.5 -11q10 -15 10 -33q0 -30 -24 -43q23 -11 23 -38q0 -28 -22 -41q21 -9 21 -32q0 -36 -31 -48 q29 -9 29 -40q-1 -49 -49 -49q-23 0 -38 13.5t-15 35.5q1 30 34 40q-33 11 -33 40q0 26 30 38q-28 13 -28 42t29 40q-28 15 -28 50q0 13 3 26q-20 0 -34 17.5t-14 38.5q0 14 7 24q-21 1 -35.5 15.5t-14.5 34.5q0 14 9 28q-20 1 -36.5 16t-16.5 35q0 21 19 33q-45 4 -45 39 q0 23 18.5 38.5t40.5 15.5q45 0 45 -44q-1 -25 -19 -39q46 -1 46 -44q0 -16 -11 -31q22 0 38 -13.5t16 -35.5q0 -14 -9 -28q37 -2 50 -26q17 17 41 17q7 0 16 -2q-22 15 -22 36q0 19 15 32t35 14q-13 17 -13 35q0 21 16 33.5t38 12.5q6 0 12 -1q-23 15 -28 40q-4 21 12 32 t37 11q54 0 54 -43zM254 356v2l-1 -1zM395 745q0 -20 -16 -32t-36 -12q-21 0 -37 12t-16 32q0 19 16 31.5t37 12.5q20 0 36 -12.5t16 -31.5zM225 745q0 -20 -16 -32t-36 -12q-21 0 -37 12t-16 32t16 32t37 12q20 0 36 -12.5t16 -31.5z" />
<glyph unicode="&#x152;" horiz-adv-x="845" d="M792 620q-1 -49 -45 -49q-25 0 -44 21q-13 -21 -41 -21q-26 0 -42 18q-14 -18 -39 -18t-41 17q-14 -18 -39 -18q-27 0 -44 19q-6 -8 -16 -12q26 -10 26 -39q0 -28 -23 -41q21 -14 21 -40q0 -27 -21 -40l13 -13q18 14 47 14q21 0 34 -9q12 9 29 9q27 0 45 -18q16 19 46 19 q50 0 49 -42q0 -21 -14.5 -35t-35.5 -14q-20 0 -36 13q-13 -12 -35 -12q-37 0 -55 24q-18 -24 -46 -24q-20 0 -33 16q-6 -7 -14 -11q24 -10 24 -39q0 -30 -25 -43q24 -10 24 -38q0 -30 -24 -42q22 -11 22 -39q0 -30 -24 -42l14 -11q16 15 42 15q25 0 39 -15q16 15 42 15 q25 0 39 -15q16 15 42 15t40 -15q18 16 48 16q42 0 42 -31q0 -23 -18 -42t-40 -19q-21 0 -34 17q-15 -17 -39 -17q-26 0 -42 18q-14 -18 -39 -18q-26 0 -42 18q-14 -18 -39 -18q-23 0 -40 15q-11 -24 -35 -24q-22 0 -41.5 18.5t-19.5 40.5q0 24 31 37q-28 13 -28 41t29 40 q-27 13 -27 40q0 28 29 40q-28 13 -28 42q0 27 27 39q-27 11 -27 37q0 30 27 46q-25 13 -25 43q0 27 24 40q-22 14 -22 38q0 26 26 39q-27 11 -27 33t20 39.5t42 17.5q20 0 34 -17q18 16 44 16q25 0 37 -17q17 14 42 14t39 -15q16 15 42 15q22 0 36 -11q14 12 39 12 q54 0 54 -43zM462 539q-1 -49 -50 -49q-22 0 -37.5 13.5t-15.5 35.5q1 20 17 31t37 11q49 0 49 -42zM400 620q-1 -21 -15 -35t-35 -14q-24 0 -41 18q-14 -18 -39 -18t-41 17q-14 -18 -39 -18q-10 0 -19 2q13 -16 13 -36q0 -43 -42 -46q12 -13 12 -32q0 -28 -21 -41 q20 -13 20 -39q0 -31 -26 -44q24 -10 24 -39q0 -30 -25 -43q24 -10 24 -38q0 -23 -17 -38q43 -3 43 -47q0 -18 -10 -35q8 2 16 2q23 0 37 -16q16 15 42 15q25 0 39 -15q16 15 42 15q48 0 48 -42q-1 -21 -14.5 -35t-35.5 -14q-24 0 -41 18q-14 -18 -39 -18q-26 0 -42 18 q-14 -18 -37 -18q-21 0 -39 13.5t-18 33.5q0 12 9 24q-23 0 -41.5 18t-18.5 40q0 21 19 33q-44 9 -44 47q0 27 29 39q-28 13 -28 42q0 27 27 39q-27 11 -27 37q0 30 27 46q-25 14 -25 42q0 42 43 48q-15 13 -15 31q0 22 17.5 37.5t39.5 15.5q5 0 11 -1q-13 14 -13 29 q0 20 19 34t40 14q24 0 36 -18q17 14 42 14t39 -15q16 15 42 15q48 0 48 -42zM454 134q0 -49 -48 -49q-22 0 -38.5 13.5t-15.5 35.5q0 20 17 31t38 11q48 0 47 -42z" />
<glyph unicode="&#x153;" horiz-adv-x="845" d="M792 620q0 43 -54 43q-26 0 -39 -12q-14 11 -36 11q-26 0 -42 -15q-14 15 -39 15t-42 -14q-12 17 -37 17q-27 0 -44 -16q-14 17 -34 17q-22 0 -42 -17.5t-20 -39.5q0 -23 27 -33q-26 -14 -26 -39t22 -38q-24 -14 -24 -40q0 -30 25 -43q-27 -17 -27 -46q0 -27 27 -37 q-27 -12 -27 -39q0 -29 28 -42q-29 -12 -29 -40q0 -27 27 -40q-29 -12 -29 -40t28 -41q-31 -13 -31 -37q0 -22 19.5 -40.5t41.5 -18.5q24 0 35 24q16 -15 40 -15q25 0 39 18q16 -18 42 -18q25 0 39 18q16 -18 42 -18q24 0 39 17q14 -17 34 -17q11 0 21.5 5t18.5 13.5 t13 19.5t5 23q0 31 -42 31q-31 0 -48 -16q-14 15 -40 15t-42 -15q-14 15 -39 15q-26 0 -42 -15q-14 15 -39 15q-26 0 -42 -15l-14 11q24 12 24 42q0 29 -22 39q24 12 24 42q0 27 -24 38q25 13 25 43q0 28 -24 39q4 2 7.5 4.5t6.5 6.5q13 -16 33 -16q28 0 46 24 q18 -24 55 -24q21 0 35 12q16 -13 36 -13q21 0 35.5 14t14.5 35q1 42 -49 42q-30 0 -46 -19q-18 18 -45 18q-17 0 -29 -9q-14 9 -34 9q-28 0 -47 -14l-13 13q21 13 21 40q0 26 -21 40q23 14 23 41q0 28 -26 39q10 4 16 12q16 -19 44 -19q25 0 39 18q17 -17 41 -17 q25 0 39 18q16 -18 42 -18q27 0 41 21q19 -21 44 -21q44 0 45 49zM462 539q0 42 -49 42q-21 0 -37 -11t-17 -31q0 -22 15.5 -35.5t37.5 -13.5q49 0 50 49zM400 620q0 42 -48 42q-26 0 -42 -15q-14 15 -39 15t-42 -14q-12 18 -36 18q-21 0 -40 -14t-19 -34q0 -16 13 -29 q-4 1 -11 1q-22 0 -39.5 -15.5t-17.5 -37.5q0 -18 15 -31q-43 -6 -43 -48q0 -29 25 -42q-27 -17 -27 -46q0 -27 27 -37q-27 -12 -27 -39q0 -29 28 -42q-29 -12 -29 -39q0 -38 44 -47q-19 -12 -19 -33q0 -11 5 -21.5t13.5 -18.5t19 -13t22.5 -5q-9 -12 -9 -24q0 -20 18 -33.5 t39 -13.5q23 0 37 18q16 -18 42 -18q25 0 39 18q16 -18 41 -18q22 0 35.5 14t14.5 35q0 42 -48 42q-26 0 -42 -15q-14 15 -39 15q-26 0 -42 -15q-13 16 -37 16q-6 0 -16 -2q10 16 10 35q0 44 -43 47q17 15 17 38q0 27 -24 38q25 13 25 43q0 28 -24 39q26 14 26 44 q0 25 -20 39q21 13 21 41q0 18 -12 32q42 3 42 46q0 20 -13 36q5 -1 9.5 -1.5t9.5 -0.5q25 0 39 18q17 -17 41 -17q25 0 39 18q16 -18 41 -18q21 0 35 14t15 35zM454 134q1 42 -47 42q-21 0 -38 -11t-17 -31q-1 -22 15.5 -35.5t38.5 -13.5q48 0 48 49z" />
<glyph unicode="&#x160;" />
<glyph unicode="&#x178;" d="M472 620q0 43 -54 43q-21 0 -37 -11t-12 -32q4 -24 28 -40q-4 1 -12 1q-22 0 -38 -12.5t-16 -33.5q0 -19 13 -35q-20 -1 -35 -14t-15 -32q0 -21 22 -36q-5 1 -8.5 1.5t-7.5 0.5q-24 0 -41 -17q-14 25 -50 26q9 13 9 28q0 22 -16 35.5t-38 13.5q11 16 11 31q0 43 -46 44 q17 13 19 39q0 44 -45 44q-22 0 -40.5 -15.5t-18.5 -38.5q0 -35 45 -39q-19 -12 -19 -33q0 -20 16.5 -35t36.5 -16q-9 -14 -9 -28q0 -20 14.5 -34.5t35.5 -15.5q-7 -10 -7 -24q0 -21 14 -38.5t34 -17.5q-3 -14 -3 -26q0 -35 28 -50q-29 -11 -29 -40t28 -42q-30 -12 -30 -38 q0 -30 33 -40q-33 -10 -34 -40q0 -22 15 -35.5t38 -13.5q48 0 49 49q0 31 -29 40q31 12 31 48q0 23 -21 32q22 13 22 41q0 27 -23 38q24 13 24 43q0 19 -10 33q24 -3 40.5 11t16.5 38q0 23 -16 33q4 -1 11 -1q21 0 37 14t16 34q0 14 -9 25q19 4 32.5 21t13.5 37q0 21 -18 32 q4 -1 10 -1q44 0 44 49zM252 356l-1 1l1 1v-2zM395 745q0 19 -16 31.5t-36 12.5q-21 0 -37 -12.5t-16 -31.5q0 -20 16 -32t37 -12q20 0 36 12t16 32zM225 745q0 19 -16 31.5t-36 12.5q-21 0 -37 -12t-16 -32t16 -32t37 -12q20 0 36 12t16 32z" />
<glyph unicode="&#x192;" d="M460 344q0 23 -14.5 39.5t-35.5 16.5q-27 0 -42 -26q-14 19 -42 19q10 13 10 31q0 22 -15.5 37t-38.5 15t-39 -15t-16 -37q0 -21 16 -36.5t38 -16.5q-9 -12 -9 -29q0 -7 1 -11q-8 4 -22 4q-23 0 -40 -15.5t-17 -38.5t17 -39t40 -16q12 0 21 4q-10 -13 -10 -29 q0 -22 16 -36q-8 -12 -9 -34q0 -40 50 -40q20 0 37 9q20 12 16 31q-5 22 -22 36q13 15 13 34q0 21 -14.5 35t-35.5 14q-9 0 -18 -3q12 15 12 34q0 9 -1 13q5 -2 10 -3t10 -1q14 0 25 6t18 16q14 -24 41 -24q21 0 35.5 16.5t14.5 39.5zM239 574q23 0 39 10q21 12 21 33 t-12.5 35t-33.5 14q-35 0 -50 -32q-5 15 -18.5 24.5t-30.5 9.5q-21 0 -36 -14.5t-15 -34.5t15 -34.5t36 -14.5q14 0 25.5 6.5t18.5 17.5q8 -20 41 -20zM241 7q21 0 37 11t12 32q-4 20 -21 34.5t-38 14.5q-26 0 -36 -16q-11 8 -27 8q-20 0 -34 -13.5t-14 -32.5t14 -32.5 t34 -13.5q11 0 20.5 4.5t15.5 12.5q13 -9 37 -9zM355 528q0 20 -15 33.5t-37 13.5t-37 -13.5t-15 -33.5t15 -34t37 -14t37 14t15 34z" />
<glyph unicode="&#x2c6;" d="M247 582q0 -17 -12.5 -31t-29.5 -14q-15 0 -30 13t-18 28q-9 -9 -29 -10h-4q-15 -1 -25 10q-3 -15 -17.5 -28t-30.5 -13t-28.5 14t-12.5 31t16 28.5t34 11.5q14 0 25 -9q6 38 43 38t43 -38q11 9 25 9q19 0 35 -11.5t16 -28.5z" />
<glyph unicode="&#x2da;" d="M244 552q-1 -22 -17.5 -36.5t-39.5 -13.5q4 -25 -11.5 -40t-39.5 -16q-48 -2 -48 36q0 11 5 24q-29 -10 -50 11q-13 14 -10 34q4 20 20.5 36t36.5 15q2 20 19.5 41t36.5 21q15 0 27 -17q18 -27 8 -51q10 6 20 6q17 0 30.5 -16t12.5 -34zM153 568q-11 -5 -22 -5 q2 -11 -2 -21q9 2 17 2q0 12 7 24z" />
<glyph unicode="&#x2db;" />
<glyph unicode="&#x2dc;" d="M301 585q0 -38 -45 -38q-12 0 -23 7q-17 -35 -36 -35q-16 0 -30.5 12.5t-17.5 28.5q-10 -10 -34 -10q-14 0 -24 10q-3 -16 -17.5 -28.5t-30.5 -12.5q-17 0 -29.5 14t-12.5 30q0 18 16 29.5t35 11.5q14 0 25 -9q6 37 43 37t43 -37q11 9 25 9q13 0 25 -6q9 34 43 34 q19 0 32 -14t13 -33z" />
<glyph unicode="&#x3bc;" />
<glyph unicode="&#x2018;" d="M361 368q0 -40 -50 -40q-52 0 -53 49q0 18 11 32q-21 0 -35 15t-14 35t16 32q-7 -1 -13 -1q-21 0 -35 14t-14 35q0 27 24 38q-24 12 -25 43q0 42 48 42q25 0 41 -14q13 18 38 18q21 0 39 -13t18 -33q0 -22 -16.5 -36t-39.5 -14q-24 0 -38 18q-6 -7 -15 -11q29 -12 29 -41 q0 -22 -21 -37q6 1 12 1q20 0 38.5 -12.5t18.5 -32.5q0 -17 -16 -31q22 -2 37 -18t15 -38z" />
<glyph unicode="&#x2019;" d="M382 620q-1 -31 -25 -43q24 -11 24 -38q0 -21 -14 -35t-35 -14q-6 0 -13 1q16 -12 16 -32t-14 -35t-35 -15q11 -14 11 -32q-1 -49 -53 -49q-51 0 -51 40q0 22 15.5 38t37.5 18q-16 14 -16 31q0 20 18.5 32.5t38.5 12.5q6 0 12 -1q-21 15 -21 37q0 29 29 41q-9 4 -15 11 q-14 -18 -38 -18q-23 0 -39.5 14t-16.5 36q0 20 18 33t39 13q25 0 37 -18q17 14 42 14q48 0 48 -42z" />
<glyph unicode="&#x201a;" d="M375 215q0 -28 -22 -42q26 -10 20 -39q-8 -45 -50 -45q-20 0 -36 13t-16 32q0 25 30 37l-17 12q-11 -17 -31 -17q-21 0 -41.5 18t-20.5 38q0 34 52 34q27 0 40 -15q18 16 44 16q49 0 48 -42zM327 53q-1 -49 -49 -49q-23 0 -38 13.5t-15 35.5q1 42 54 42q48 0 48 -42z" />
<glyph unicode="&#x201b;" d="M341 368q0 -40 -50 -40q-52 0 -53 49q0 18 11 32q-21 0 -35 15t-14 35t16 32q-7 -1 -13 -1q-21 0 -35 14t-14 35q0 27 24 38q-24 12 -25 43q0 42 48 42q25 0 41 -14q13 18 38 18q21 0 39 -13t18 -33q0 -22 -16.5 -36t-39.5 -14q-24 0 -38 18q-6 -7 -15 -11q29 -12 29 -41 q0 -22 -21 -37q6 1 12 1q20 0 38.5 -12.5t18.5 -32.5q0 -17 -16 -31q22 -2 37 -18t15 -38z" />
<glyph unicode="&#x201c;" d="M261 368q0 22 -15 38t-37 18q16 13 16 31q0 20 -18.5 32.5t-38.5 12.5q-8 0 -12 -1q21 15 21 37q0 29 -29 41q10 5 15 11q13 -18 38 -18q23 0 39.5 14t16.5 36q0 20 -18 33t-39 13q-25 0 -38 -18q-17 14 -41 14q-48 0 -48 -42q1 -31 25 -43q-24 -11 -24 -38q0 -21 14 -35 t35 -14q8 0 13 1q-16 -12 -16 -32t14 -35t35 -15q-11 -14 -11 -32q1 -49 53 -49q50 0 50 40zM481 368q0 22 -15 38t-37 18q16 13 16 31q0 20 -18.5 32.5t-38.5 12.5q-8 0 -12 -1q21 15 21 37q0 29 -29 41q10 5 15 11q13 -18 38 -18q23 0 39.5 14t16.5 36q0 20 -18 33t-39 13 q-25 0 -38 -18q-17 14 -41 14q-48 0 -48 -42q1 -31 25 -43q-24 -11 -24 -38q0 -21 14 -35t35 -14q8 0 13 1q-16 -12 -16 -32t14 -35t35 -15q-11 -14 -11 -32q1 -49 53 -49q50 0 50 40z" />
<glyph unicode="&#x201d;" d="M272 620q0 42 -48 42q-25 0 -42 -14q-12 18 -37 18q-21 0 -39 -13t-18 -33q0 -22 16.5 -36t39.5 -14q24 0 38 18q5 -6 15 -11q-29 -12 -29 -41q0 -22 21 -37q-4 1 -12 1q-20 0 -38.5 -12.5t-18.5 -32.5q0 -18 16 -31q-22 -2 -37.5 -18t-15.5 -38q0 -40 51 -40q52 0 53 49 q0 18 -11 32q21 0 35 15t14 35t-16 32q5 -1 13 -1q21 0 35 14t14 35q0 27 -24 38q24 12 25 43zM512 620q0 42 -48 42q-25 0 -42 -14q-12 18 -37 18q-21 0 -39 -13t-18 -33q0 -22 16.5 -36t39.5 -14q24 0 38 18q5 -6 15 -11q-29 -12 -29 -41q0 -22 21 -37q-4 1 -12 1 q-20 0 -38.5 -12.5t-18.5 -32.5q0 -18 16 -31q-22 -2 -37.5 -18t-15.5 -38q0 -40 51 -40q52 0 53 49q0 18 -11 32q21 0 35 15t14 35t-16 32q5 -1 13 -1q21 0 35 14t14 35q0 27 -24 38q24 12 25 43z" />
<glyph unicode="&#x201e;" d="M559 215q0 -28 -22 -42q26 -10 20 -39q-8 -45 -50 -45q-20 0 -36 13t-16 32q0 25 30 37l-17 12q-11 -17 -31 -17q-21 0 -41.5 18t-20.5 38q0 34 52 34q27 0 40 -15q18 16 44 16q49 0 48 -42zM511 53q-1 -49 -49 -49q-23 0 -38 13.5t-15 35.5q1 42 54 42q48 0 48 -42z M262 215q0 -28 -22 -42q26 -10 20 -39q-8 -45 -50 -45q-20 0 -36 13t-16 32q0 25 30 37l-17 12q-11 -17 -31 -17q-21 0 -41.5 18t-20.5 38q0 34 52 34q27 0 40 -15q18 16 44 16q49 0 48 -42zM214 53q-1 -49 -49 -49q-23 0 -38 13.5t-15 35.5q1 42 54 42q48 0 48 -42z" />
<glyph unicode="&#x2026;" d="M499 134q-5 -31 -30 -41q29 -9 29 -40q-1 -49 -49 -49q-23 0 -38 13.5t-15 35.5q1 30 34 40q-34 12 -33 41q0 20 20 33q17 10 38 10q52 0 44 -43zM319 134q0 -32 -24 -43q23 -11 23 -38q-1 -49 -49 -49q-23 0 -38 13.5t-15 35.5q0 26 29 38q-29 13 -28 43q1 20 17 31 t37 11q49 0 48 -42zM139 134q-5 -31 -30 -41q29 -9 29 -40q-1 -49 -49 -49q-23 0 -38 13.5t-15 35.5q1 30 34 40q-34 12 -33 41q0 20 20 33q17 10 38 10q52 0 44 -43z" />
<glyph unicode="&#x2039;" d="M392 458q0 42 -48 42q-22 0 -36 -10q-17 -12 -19 -32q0 -22 16 -35.5t38 -13.5q48 0 49 49zM312 389q0 29 -44 29q-23 0 -39 -9q-20 -12 -22 -32q0 -20 11.5 -34t32.5 -14q42 0 59 48q2 6 2 12zM227 296q1 42 -48 42q-22 0 -36 -10q-18 -12 -18 -32q-1 -22 15 -35.5 t39 -13.5q47 0 48 49zM386 134q7 43 -44 43q-20 0 -39 -12t-19 -31q-1 -19 15.5 -32t36.5 -13q42 0 50 45zM307 215q2 41 -51 41q-21 0 -37 -10q-19 -10 -14 -31q5 -20 22 -34.5t38 -14.5q42 0 42 49z" />
<glyph unicode="&#x203a;" d="M469 296q-2 42 -54 42q-48 0 -48 -42q1 -49 49 -49q22 0 37.5 13.5t15.5 35.5zM387 377q-2 20 -21 32q-18 9 -39 9q-44 0 -44 -29q0 -9 1 -12q16 -48 59 -48q45 0 44 48zM304 458q-2 42 -54 42q-48 0 -48 -42q1 -49 49 -49q23 0 38.5 13.5t14.5 35.5zM390 215 q5 20 -15 31q-16 10 -37 10q-51 0 -51 -41q1 -49 42 -49q21 0 38.5 14.5t22.5 34.5zM310 134q0 19 -20 33q-16 10 -39 10q-50 0 -43 -43q9 -45 49 -45q20 0 37 13t16 32z" />
<glyph unicode="&#x2219;" />
<glyph unicode="&#x25fc;" horiz-adv-x="665" d="M0 665h665v-665h-665v665z" />
</font>
</defs>
</svg>
