<?xml version="1.0" encoding="utf-8"?>
<!-- Generator: Adobe Illustrator 19.2.0, SVG Export Plug-In . SVG Version: 6.00 Build 0)  -->
<svg version="1.1" id="Layer_1" xmlns="http://www.w3.org/2000/svg" xmlns:xlink="http://www.w3.org/1999/xlink" x="0px" y="0px"
	 viewBox="0 0 100 100" style="enable-background:new 0 0 100 100;" xml:space="preserve">
<style type="text/css">
	.st0{fill:none;stroke:#FFFFFF;stroke-width:3;stroke-miterlimit:10;}
	.st1{display:none;}
	.st2{display:inline;}
	.st3{display:none;fill:#FFFFFF;}
	.st4{fill:#FFFFFF;}
</style>
<circle class="st0" cx="50" cy="50" r="48.3"/>
<g class="st1">
	<path class="st2" d="M50,19.1c8.8,0,15.9,7.1,15.9,15.9c0,8.8-7.1,15.9-15.9,15.9S34.1,43.7,34.1,35C34.1,26.2,41.2,19.1,50,19.1
		L50,19.1z"/>
	<path class="st2" d="M26.4,80.9v-7.1c0-9.7,6.8-18.3,16.6-18.3h14.1c9.7,0,16.6,8.6,16.6,18.3v7.1H26.4z"/>
</g>
<path class="st3" d="M53,45.2c-7.1-2.8-9.1-4.5-9.1-7.6c0-2.5,1.9-5.4,7.2-5.4c4.7,0,8.3,1.8,8.3,1.9c0.4,0.2,0.8,0.3,1.2,0.3
	c1,0,1.9-0.6,2.3-1.6l1.3-3.3c0.4-1.2-0.2-2.2-1.1-2.6c-2.9-1.3-8.5-2.2-8.6-2.2c-0.1,0-0.4-0.1-0.4-0.4l0-4.8
	c0-1.4-1.2-2.6-2.7-2.6h-2.3c-1.5,0-2.7,1.2-2.7,2.6l0,5c0,0.4-0.4,0.5-0.6,0.6c-7.1,1.7-11.5,6.9-11.5,13.5
	c0,8.2,6.8,11.9,14.1,14.7c5.8,2.3,8.2,4.6,8.2,8c0,3.7-3.4,6.3-8.2,6.3c-4.1,0-9.7-2.6-9.8-2.6c-0.4-0.2-0.7-0.3-1.1-0.3
	c-1.1,0-2,0.6-2.4,1.6l-1.2,3.3c-0.4,1.2,0.2,2.2,1.1,2.7c3.4,1.8,10.1,2.8,10.4,2.9c0.1,0,0.5,0.2,0.5,0.5v5c0,1.4,1.2,2.6,2.7,2.6
	h2.4c1.5,0,2.7-1.2,2.7-2.6v-5.2c0-0.5,0.4-0.5,0.4-0.6c7.6-1.7,12.2-7.2,12.2-14.2C66.2,53.5,62.3,48.8,53,45.2L53,45.2z M53,45.2"
	/>
<path class="st4" d="M87,66L85.5,42c0,0,0-0.1,0-0.1c0-0.1,0-0.1,0-0.2c0-9.4-7.6-17-17-17c-3.8,0-6.4,1.3-8.6,2.8
	c-0.2-0.1-0.4-0.1-0.7-0.2c-2.1-0.7-4-1.3-7.5-1.5c-0.2,0-0.5,0-0.7,0h-2.1c-0.2,0-0.5,0-0.7,0c-3.5,0.2-5.4,0.8-7.5,1.5
	c-0.2,0.1-0.4,0.1-0.7,0.2c-2.2-1.5-4.8-2.8-8.6-2.8c-9.4,0-17,7.6-17,17c0,0.1,0,0.1,0,0.2c0,0,0,0.1,0,0.1L12.9,66
	c0,0,0,0.1,0,0.1c0,5.1,4.1,9.2,9.2,9.2h0c3.8,0,7.3-2,9.3-5.2l1.6-2.5c1.6-2.5,4.4-4.1,7.4-4.1h19.2c3,0,5.8,1.5,7.4,4.1l1.6,2.5
	c2,3.2,5.5,5.2,9.3,5.2h0c5.1,0,9.2-4.1,9.2-9.2C87.1,66.1,87.1,66,87,66z"/>
</svg>
