<?xml version="1.0" encoding="utf-8"?>
<!-- Generator: Adobe Illustrator 19.2.0, SVG Export Plug-In . SVG Version: 6.00 Build 0)  -->
<svg version="1.1" id="Layer_1" xmlns="http://www.w3.org/2000/svg" xmlns:xlink="http://www.w3.org/1999/xlink" x="0px" y="0px"
	 viewBox="0 0 100 100" style="enable-background:new 0 0 100 100;" xml:space="preserve">
<style type="text/css">
	.st0{fill:#D72027;}
	.st1{fill:none;stroke:#D72027;stroke-width:3;stroke-miterlimit:10;}
</style>
<g>
	<path class="st0" d="M78.4,19.9H25.7c-0.5,0-0.8,0.2-1,0.6l-4.1,6.9c-0.1,0.1-0.1,0.3-0.1,0.6v42.8c0,0.7,0.5,1.2,1.2,1.2h12.7v6.9
		c0,0.7,0.5,1.2,1.2,1.2h8.1c0.2,0,0.6-0.1,0.8-0.3l8.7-7.8h10.8c0.3,0,0.6-0.1,0.8-0.3l14.5-13.3c0.2-0.2,0.3-0.6,0.3-0.8V21.1
		C79.5,20.4,79,19.9,78.4,19.9z M72.6,54.1c0,0.3-0.1,0.6-0.3,0.8l-7.5,7.5c-0.2,0.2-0.5,0.3-0.8,0.3H51l-6.6,6.6
		c-0.2,0.2-0.5,0.3-0.8,0.3c-0.1,0-0.3,0-0.5-0.1c-0.5-0.1-0.7-0.6-0.7-1v-5.8H30.9c-0.7,0-1.2-0.5-1.2-1.2V26.9
		c0-0.7,0.5-1.2,1.2-1.2h40.5c0.7,0,1.2,0.5,1.2,1.2V54.1z"/>
	<path class="st0" d="M49.4,35h-4.6c-0.7,0-1.2,0.5-1.2,1.2v15c0,0.7,0.5,1.2,1.2,1.2h4.6c0.7,0,1.2-0.5,1.2-1.2v-15
		C50.6,35.4,50.1,35,49.4,35z"/>
	<path class="st0" d="M61,35h-4.6c-0.7,0-1.2,0.5-1.2,1.2v15c0,0.7,0.5,1.2,1.2,1.2H61c0.7,0,1.2-0.5,1.2-1.2v-15
		C62.2,35.4,61.7,35,61,35z"/>
</g>
<circle class="st1" cx="50" cy="50" r="47.4"/>
</svg>
