<?xml version="1.0" encoding="utf-8"?>
<!-- Generator: Adobe Illustrator 19.2.0, SVG Export Plug-In . SVG Version: 6.00 Build 0)  -->
<svg version="1.1" id="Layer_1" xmlns="http://www.w3.org/2000/svg" xmlns:xlink="http://www.w3.org/1999/xlink" x="0px" y="0px"
	 viewBox="0 0 100 100" style="enable-background:new 0 0 100 100;" xml:space="preserve">
<style type="text/css">
	.st0{display:none;}
	.st1{display:inline;fill:#D72027;}
	.st2{fill:none;stroke:#D72027;stroke-width:3;stroke-miterlimit:10;}
	.st3{display:inline;}
	.st4{fill:#D72027;}
</style>
<g class="st0">
	<path class="st1" d="M78.4,19.9H25.7c-0.5,0-0.8,0.2-1,0.6l-4.1,6.9c-0.1,0.1-0.1,0.3-0.1,0.6v42.8c0,0.7,0.5,1.2,1.2,1.2h12.7v6.9
		c0,0.7,0.5,1.2,1.2,1.2h8.1c0.2,0,0.6-0.1,0.8-0.3l8.7-7.8h10.8c0.3,0,0.6-0.1,0.8-0.3l14.5-13.3c0.2-0.2,0.3-0.6,0.3-0.8V21.1
		C79.5,20.4,79,19.9,78.4,19.9z M72.6,54.1c0,0.3-0.1,0.6-0.3,0.8l-7.5,7.5c-0.2,0.2-0.5,0.3-0.8,0.3H51l-6.6,6.6
		c-0.2,0.2-0.5,0.3-0.8,0.3c-0.1,0-0.3,0-0.5-0.1c-0.5-0.1-0.7-0.6-0.7-1v-5.8H30.9c-0.7,0-1.2-0.5-1.2-1.2V26.9
		c0-0.7,0.5-1.2,1.2-1.2h40.5c0.7,0,1.2,0.5,1.2,1.2V54.1z"/>
	<path class="st1" d="M49.4,35h-4.6c-0.7,0-1.2,0.5-1.2,1.2v15c0,0.7,0.5,1.2,1.2,1.2h4.6c0.7,0,1.2-0.5,1.2-1.2v-15
		C50.6,35.4,50.1,35,49.4,35z"/>
	<path class="st1" d="M61,35h-4.6c-0.7,0-1.2,0.5-1.2,1.2v15c0,0.7,0.5,1.2,1.2,1.2H61c0.7,0,1.2-0.5,1.2-1.2v-15
		C62.2,35.4,61.7,35,61,35z"/>
</g>
<circle class="st2" cx="50" cy="50" r="47.4"/>
<g class="st0">
	<path class="st1" d="M41.6,30.5v8.8h-6.4V50h6.4v31.9h13.2V50h8.9c0,0,0.8-5.1,1.2-10.8h-10v-7.3c0-1.1,1.4-2.6,2.9-2.6h7.2V18.2
		h-9.8C41.2,18.2,41.6,28.9,41.6,30.5L41.6,30.5z"/>
</g>
<g class="st0">
	<g class="st3">
		<path class="st4" d="M84.2,49.4c0-4.2-3.4-7.6-7.6-7.6c-2,0-3.8,0.8-5.2,2.2c-5.2-3.4-12.2-5.6-19.9-5.9l4.2-13.4l11.4,2.7
			c0,0.1,0,0.1,0,0.2c0,3.4,2.8,6.2,6.2,6.2c3.4,0,6.2-2.8,6.2-6.2c0-3.4-2.8-6.2-6.2-6.2c-2.6,0-4.9,1.6-5.8,3.9l-12.3-2.9
			c-0.5-0.1-1.1,0.2-1.3,0.7L49.3,38c-8.1,0.1-15.4,2.3-20.8,5.8c-1.4-1.3-3.2-2-5.1-2c-4.2,0-7.6,3.4-7.6,7.6
			c0,2.7,1.5,5.2,3.8,6.5c-0.1,0.8-0.2,1.6-0.2,2.4c0,11.2,13.7,20.3,30.6,20.3s30.6-9.1,30.6-20.3c0-0.8-0.1-1.5-0.2-2.3
			C82.7,54.7,84.2,52.2,84.2,49.4z M73.4,23.5c2.2,0,4.1,1.8,4.1,4.1s-1.8,4.1-4.1,4.1s-4.1-1.8-4.1-4.1S71.1,23.5,73.4,23.5z
			 M17.9,49.4c0-3,2.4-5.5,5.5-5.5c1.2,0,2.4,0.4,3.4,1.2c-3.2,2.4-5.5,5.4-6.6,8.6C18.8,52.7,17.9,51.1,17.9,49.4z M49.9,76.5
			c-15.7,0-28.4-8.2-28.4-18.2s12.8-18.2,28.4-18.2s28.4,8.2,28.4,18.2S65.6,76.5,49.9,76.5z M79.7,53.9c-1.1-3.3-3.4-6.2-6.5-8.7
			c1-0.8,2.2-1.3,3.5-1.3c3,0,5.5,2.4,5.5,5.5C82.1,51.2,81.2,52.9,79.7,53.9z"/>
		<path class="st4" d="M44.1,54.6c0-2.5-2-4.5-4.5-4.5c-2.5,0-4.5,2-4.5,4.5c0,2.5,2,4.5,4.5,4.5C42.1,59.1,44.1,57.1,44.1,54.6z"/>
		<path class="st4" d="M60.4,50.1c-2.5,0-4.5,2-4.5,4.5c0,2.5,2,4.5,4.5,4.5c2.5,0,4.5-2,4.5-4.5S62.9,50.1,60.4,50.1z"/>
		<path class="st4" d="M59.4,66.4c-1.9,1.9-4.9,2.8-9.4,2.8c0,0,0,0,0,0c0,0,0,0,0,0c-4.5,0-7.6-0.9-9.4-2.8c-0.4-0.4-1.1-0.4-1.5,0
			c-0.4,0.4-0.4,1.1,0,1.5c2.3,2.3,5.8,3.4,10.9,3.4c0,0,0,0,0,0c0,0,0,0,0,0c5.1,0,8.6-1.1,10.9-3.4c0.4-0.4,0.4-1.1,0-1.5
			C60.5,66,59.9,66,59.4,66.4z"/>
	</g>
</g>
<g>
	<path class="st4" d="M82.4,29.9c-2.4,1-4.9,1.8-7.6,2.1c2.8-1.6,4.8-4.3,5.8-7.4c-2.6,1.5-5.4,2.6-8.5,3.2
		c-2.4-2.6-5.9-4.2-9.7-4.2c-7.3,0-13.3,6-13.3,13.3c0,1,0.1,2.1,0.3,3c-11-0.6-20.8-5.8-27.4-13.9c-1.1,2-1.8,4.3-1.8,6.7
		c0,4.6,2.4,8.7,5.9,11c-2.2-0.1-4.2-0.7-6-1.7v0.2c0,6.4,4.6,11.8,10.6,13c-1.1,0.3-2.3,0.5-3.5,0.5c-0.9,0-1.7-0.1-2.5-0.2
		c1.7,5.3,6.6,9.1,12.4,9.2c-4.6,3.6-10.3,5.7-16.5,5.7c-1.1,0-2.1-0.1-3.2-0.2c5.9,3.8,12.9,6,20.4,6c24.4,0,37.8-20.2,37.8-37.8
		l0-1.7C78.4,34.9,80.6,32.6,82.4,29.9L82.4,29.9z"/>
</g>
</svg>
